<svg width="380.721" height="380.721" xmlns="http://www.w3.org/2000/svg">

 <g>
  <title>background</title>
  <rect fill="none" id="canvas_background" height="402" width="582" y="-1" x="-1"/>
 </g>
 <g>
  <title>Layer 1</title>
  <path stroke="null" fill="#d76700" id="svg_3" d="m190.37084,0.373455c-104.619744,0 -189.418216,84.926581 -189.418216,189.70556c0,75.494889 44.147165,140.487539 107.890254,171.020602l5.928684,-114.732947c0,0 -11.151826,-3.665386 -13.59291,-4.858822c-23.653385,-10.434887 -40.836541,-41.159373 -40.836541,-81.035506c0,-43.51316 33.694984,-80.992967 66.271481,-81.302552c0.041294,0 0.041294,0 0.068431,0c0.014158,0 0.041294,0 0.054273,0c32.583577,0.308403 66.27974,37.78821 66.27974,81.302552c0,39.876133 -17.204393,70.587621 -40.809405,81.035506c-0.185235,0.081532 -13.701455,4.997071 -13.701455,4.997071l6.621249,127.568886c14.529701,3.58149 29.636342,5.683593 45.270371,5.683593c21.083699,0 41.275441,-3.596852 60.220094,-9.953968l5.867333,-113.688395c-15.461772,-3.405429 -28.649998,-13.263686 -36.91594,-25.631703c-10.239811,-15.362243 7.882495,-151.32654 7.882495,-151.32654l11.788938,0l0,127.588974l11.707529,0l0,-127.574795l12.803598,0l0,127.603153l11.652077,0l0,-127.603153l13.283792,0l0,127.603153l11.692191,0l0,-127.603153l9.046995,0c0,0 18.122306,135.964297 7.869517,151.32654c-8.184534,12.246311 -21.248876,22.076208 -36.518335,25.563169c-0.273722,0.096893 -0.521488,0.191422 -0.521488,0.191422l5.099258,97.79206c56.423376,-32.853765 94.449544,-93.891532 94.449544,-163.963967c-0.028316,-104.77898 -84.826788,-189.706742 -189.433554,-189.706742z"/>
  <path fill="#d76700" id="svg_4" d="m103.662,148.98c0.575,-2.341 1.348,-4.566 1.383,-4.606c0.25,-0.877 -0.215,-1.772 -1.168,-2.341c-0.906,-0.488 -2.01,-0.238 -2.521,0.546c0,0 -1.098,1.749 -2.69,4.334c-1.295,2.225 -3.212,5.78 -4.52,10.207c-1.133,3.88 -2.486,9.039 -3.096,14.813c-0.261,3.033 -0.32,5.769 -0.227,8.586c0.227,3.212 0.714,5.96 1.644,9.103c3.154,8.964 5.583,17.644 14.349,26.206c2.771,2.847 5.618,4.787 7.674,6.216l0.726,0.511c0.442,0.291 0.866,0.559 1.284,0.803c1.726,0.906 2.881,1.231 3.091,1.277c0.859,0.232 1.743,-0.186 2.108,-0.883c0.343,-0.732 0.093,-1.65 -0.621,-2.23c0,0 -1,-0.871 -2.283,-2.498c-0.877,-0.988 -1.83,-2.417 -2.939,-4.031c-0.784,-1.139 -1.708,-2.429 -2.568,-3.684c-4.27,-6.518 -6.732,-15.615 -10.137,-24.934c-0.668,-2.022 -1.214,-4.642 -1.418,-6.867c-0.272,-2.568 -0.4,-5.042 -0.4,-7.337c-0.099,-5.333 0.139,-9.911 0.604,-13.623c0.534,-4.188 0.952,-7.331 1.725,-9.568z"/>
 </g>
</svg>