<svg xmlns="http://www.w3.org/2000/svg" xmlns:xlink="http://www.w3.org/1999/xlink" viewBox="0 0 500 500" xmlns:v="https://vecta.io/nano"><style><![CDATA[.B{fill:#263238}.C{fill:#ff725e}.D{fill:#e0e0e0}.E{fill:#455a64}.F{opacity:.3}.G{fill:#fff}.H{fill-rule:evenodd}.I{fill:#ebebeb}]]></style><g class="D"><path d="M385 249a7.2 7.2 0 0 1 .2-2.3 9.6 9.6 0 0 1 7.4-7.3 9.8 9.8 0 0 1 9.7 3.6 9.7 9.7 0 0 1 .2 11.5 9.1 9.1 0 0 1-2 2.1 9.2 9.2 0 0 1-2.4 1.4 9.8 9.8 0 0 1-5.1.5 9.6 9.6 0 0 1-7.6-7.1 7.3 7.3 0 0 1-.2-2.3 21.1 21.1 0 0 0 .4 2.3 9.5 9.5 0 0 0 3.6 5 9.3 9.3 0 0 0 8.8 1.1 8.9 8.9 0 0 0 2.3-1.3 8.7 8.7 0 0 0 1.9-2 9.2 9.2 0 0 0-.2-10.9 8.9 8.9 0 0 0-2-1.9 8.7 8.7 0 0 0-2.4-1.2 9.3 9.3 0 0 0-4.9-.3 9.1 9.1 0 0 0-3.9 1.8 9.5 9.5 0 0 0-3.4 5.2 19.4 19.4 0 0 0-.4 2.3zm-11.8-5a1.3 1.3 0 0 1-.3.1l-4.8 1.2.2 8.8h-.1l5.3 1.2a21.8 21.8 0 0 0 2.3 5.3l.1.1-2.8 4.4 6 6 4.7-3a22.2 22.2 0 0 0 5.3 2.1h.1v.1l1.3 5.2-.2-.2h8.6l1-5.4a21.5 21.5 0 0 0 5.2-2.3l.1-.1.1.1 4.6 2.8h-.3l6-6-3-4.7a21.3 21.3 0 0 0 2.1-5.3h0v-.2h.1l5-1v-8.6l-5.4-1.2a21.4 21.4 0 0 0-2.3-5.2l-.1-.1 3-4.4-6.4-6.2h.3l-4.7 3a21.5 21.5 0 0 0-5.3-2.1h-.1v-.1l-1-5-9 .1.2-.2-1.2 5.3a21.7 21.7 0 0 0-5.3 2.3h-.1l-4.4-2.8-6.2 6.3v-.2l3 4.5a22.2 22.2 0 0 0-1.8 4l-.4 1.3s0-.1.1-.3l.3-1a20.9 20.9 0 0 1 1.7-4v.1l-3-4.5 6.4-6.5 4.6 2.8h-.2a21.6 21.6 0 0 1 5.3-2.3v.1l1-5.4h9.2l1.3 5.2h-.2a21.8 21.8 0 0 1 5.4 2.1h-.2l4.7-3 6.4 6.5-2.8 4.3a21.9 21.9 0 0 1 2.3 5.3l-.2-.2 5.4 1.3q.1 4.4.1 8.8v.2l-5.2 1a22.3 22.3 0 0 1-2.1 5.4v-.3l3 4.8-6.3 6.5-4.5-3a21.6 21.6 0 0 1-5.4 2.3l.2-.2-1.3 5.4-9 .1v-.2l-1-5a22.3 22.3 0 0 1-5.4-2.2h.2l-4.7 3-6.4-6.4 2.8-4.4a21.9 21.9 0 0 1-2.3-5.3h.1l-5.3-1.2v-9l5-1z"/><path d="M114.4 219.6a24.6 24.6 0 0 1 2.4-6l-3.3-5 7-7 5 3a24.5 24.5 0 0 1 5.9-2.6l1.2-5.8 10-.2 1.4 5.8a24.2 24.2 0 0 1 6 2.4l5-3.3 7 7-3 5a24.3 24.3 0 0 1 2.6 5.9l5.8 1.2.2 10-5.8 1.4a24.2 24.2 0 0 1-2.4 6l3.3 5-7 7-5-3a24.3 24.3 0 0 1-5.9 2.6l-1.2 5.8-10 .2-1.4-5.8a24.2 24.2 0 0 1-6-2.4l-5 3.3-7-7 3-5a24.5 24.5 0 0 1-2.6-5.9l-5.8-1.2-.2-10 5.8-1.4zm13 5.6a10.6 10.6 0 1 0 10.4-10.8 10.6 10.6 0 0 0-10.4 10.8zm215-31.2a7 7 0 0 1 .7-1.7l-1-1.4 2-2 1.5 1a7.3 7.3 0 0 1 1.7-.7l.4-1.7h3l.4 1.7a7.3 7.3 0 0 1 1.7.7l1.4-1 2 2-1 1.5a7.3 7.3 0 0 1 .7 1.7l1.7.3v3l-1.7.4a7.4 7.4 0 0 1-.7 1.7l1 1.4-2 2-1.5-1a6.9 6.9 0 0 1-1.7.7l-.4 1.7h-3l-.4-1.7a7 7 0 0 1-1.7-.7l-1.4 1-2-2 1-1.5a6.9 6.9 0 0 1-.7-1.7l-1.7-.3v-3l1.7-.4zm3.8 1.6a3.1 3.1 0 1 0 3-3.1 3.1 3.1 0 0 0-3 3.2z" class="H"/></g><path d="M48.6 223.6a9.9 9.9 0 0 1 1-2.4l-1.3-2 2.7-3 2 1.2a9.4 9.4 0 0 1 2.4-1l.5-2.3h4l.6 2.3a10.4 10.4 0 0 1 2.4 1l2-1.3 2.8 2.8-1.2 2a9.8 9.8 0 0 1 1 2.4l2.3.5v4l-2.3.6a10 10 0 0 1-.9 2.4l1.3 2-2.7 2.8-2-1.2a9.4 9.4 0 0 1-2.4 1l-.5 2.3-4 .1-.6-2.3a10 10 0 0 1-2.4-.9l-2 1.3-2.8-2.8 1.2-2a9.3 9.3 0 0 1-1-2.4l-2.3-.5-.1-4 2.3-.6zm5.2 2.2a4.2 4.2 0 1 0 4.2-4.3 4.2 4.2 0 0 0-4.2 4.3zM408.3 160a22.2 22.2 0 0 1 2.2-5.5l-3-4.6 6.3-6.5 4.7 2.8a22.4 22.4 0 0 1 5.4-2.3l1-5.4 9-.2 1.3 5.3a22.4 22.4 0 0 1 5.5 2.2l4.6-3 6.5 6.3-2.8 4.7a22 22 0 0 1 2.4 5.4l5.4 1 .1 9-5.3 1.3a22.1 22.1 0 0 1-2.2 5.5l3 4.6-6.3 6.5-4.7-2.8a22.4 22.4 0 0 1-5.4 2.3l-1 5.4-9 .2-1.3-5.3a22 22 0 0 1-5.5-2.2l-4.6 3-6.5-6.3 2.8-4.7a22 22 0 0 1-2.4-5.4l-5.4-1v-9l5.3-1.3zm12 5a9.7 9.7 0 1 0 9.6-9.9 9.7 9.7 0 0 0-9.6 9.9z" class="I H"/><path d="M63 310.8a19.9 19.9 0 0 1 2-5l-2.7-4 5.7-6 4.2 2.6a19.8 19.8 0 0 1 4.9-2.1l1-5 8.2-.1 1.2 4.8a20.2 20.2 0 0 1 5 2l4-2.7 6 5.7-2.6 4.2a20.2 20.2 0 0 1 2.1 4.9l4.8 1v8.2l-4.8 1.2a20.2 20.2 0 0 1-2 5l2.7 4-5.7 6-4-2.5a20.3 20.3 0 0 1-4.9 2.1l-1 5H79l-1.2-4.8a20.3 20.3 0 0 1-5-2l-4.2 2.7-6-5.7L65 326a19.5 19.5 0 0 1-2.1-4.9l-5-1V312l4.8-1.2zm10.8 4.6a8.8 8.8 0 1 0 8.7-8.9 8.8 8.8 0 0 0-8.7 8.9zm161.2-174a9.1 9.1 0 0 1 .8-2.2l-1.2-1.8 2.5-2.6 1.8 1a8.8 8.8 0 0 1 2.1-.9l.4-2h3.6l.5 2a8.6 8.6 0 0 1 2.2.9l1.8-1.2 2.6 2.5-1 1.8a8.4 8.4 0 0 1 .9 2.1l2 .4v3.6l-2 .5a8.7 8.7 0 0 1-.9 2.2l1.2 1.8-2.5 2.6-1.8-1a8.9 8.9 0 0 1-2.1.9l-.4 2H242l-.5-2a8.5 8.5 0 0 1-2.2-.9l-1.8 1.2-2.6-2.5 1-1.8a8.8 8.8 0 0 1-.9-2.1l-2-.4v-3.6l2-.5zm4.7 2a3.8 3.8 0 1 0 3.8-3.9 3.8 3.8 0 0 0-3.8 3.9z" fill="#f5f5f5" class="H"/><path d="M420 391c4.5-2.3 9.8-2.6 14.8-1.8 2.7.4 5.5 1.3 7.3 3.3s2.2 5.6.1 7.3a6.9 6.9 0 0 1-4.6 1.2c-4 0-8.2-.7-11.4 1.6-1.8 1.3-3 3.6-5 4.2a5 5 0 0 1-5.5-2.5 8.6 8.6 0 0 1-.6-6.4 9.7 9.7 0 0 1 5.1-7zm-10.3-20c2.8 4 8 2.6 10.6.2s3.5-6 4.5-9.2c2.2-7.6 4.4-15.5 2.8-23.2a12.9 12.9 0 0 0-3-6.3 6.7 6.7 0 0 0-6.4-2.1c-2.7.7-4.4 3.4-5.6 6a55.4 55.4 0 0 0-5.4 23.8c0 3.8.4 7.8 2.6 11m-7.8 5.5c3-3.6 3.6-8.7 2.2-13.2s-4.3-8.2-7.8-11.3a41.8 41.8 0 0 0-14-8.2 14.9 14.9 0 0 0-6.3-1.1 6.6 6.6 0 0 0-5.3 3.2c-1.5 2.8-.1 6.2 1.5 9a106.4 106.4 0 0 0 9.2 13.9 25 25 0 0 0 10.1 8.6c4.2 1.6 8.5 1.4 10.8-1.5" class="I"/><g class="D"><path d="M409.5 430.3a8.5 8.5 0 0 0 .3-1.8l.5-5a70.8 70.8 0 0 1 1.1-7.1 54.8 54.8 0 0 1 2.6-8.4 31.1 31.1 0 0 1 4.3-7.6 16 16 0 0 1 5.4-4.5 15.6 15.6 0 0 1 4.6-1.4 8.6 8.6 0 0 0 1.8-.2 7.7 7.7 0 0 0-1.8 0 14 14 0 0 0-4.8 1.2 16 16 0 0 0-5.7 4.6 30 30 0 0 0-4.5 7.8 52.2 52.2 0 0 0-2.6 8.6 62.3 62.3 0 0 0-.9 7.2l-.2 5a8.9 8.9 0 0 0 0 1.8z"/><path d="M409.8 426.5a3.8 3.8 0 0 0 0-.8l.1-11 2-26.4a381 381 0 0 1 4.4-30.6l1-4.8a67 67 0 0 1 .9-3.6l.6-2.3a2.9 2.9 0 0 0 .1-.8 4 4 0 0 0-.3.8l-.7 2.3c-.3 1-.6 2.2-1 3.6l-1 4.8a268.6 268.6 0 0 0-4.6 28.4 292 292 0 0 0-1.8 28.7l.1 8.7.1 2.4a3.1 3.1 0 0 0 .2.8z"/><path d="M410 407a16.2 16.2 0 0 0 0-2.5 68 68 0 0 0-.8-6.7 87.5 87.5 0 0 0-2.2-9.7 79.5 79.5 0 0 0-4.1-11.6 61.7 61.7 0 0 0-12-18.7 30.9 30.9 0 0 0-2.8-2.6l-1.2-1-1-.8a15.7 15.7 0 0 0-2.1-1.3c-.1.2 3 2 6.8 6a64.9 64.9 0 0 1 11.7 18.6 91.5 91.5 0 0 1 4.1 11.4l2.3 9.7 1 6.6a14.6 14.6 0 0 0 .3 2.4zm-19 34.5l2 27h34.6l2-27H391z"/><path d="M387.6 431h46v10.6h-46z"/></g><path d="M387.6 467.4v3h45.2v-3h-45.2z" class="I"/><path d="M391.8 475.5l-2-5.2H431l-2.5 5.2h-36.8z" class="D"/><path d="M428.8 450.3s0 .1-.2.3L426 454l-4.7-7-5.2 7-5.8-7h.3l-5.7 7-4.7-7-6.2 6.8-2.4-4a1.6 1.6 0 0 1-.1-.3 1.9 1.9 0 0 1 .2.3l2.3 4 6-7 4.7 7 5.8-7 5.4 7 5.2-7 4.7 7 2.7-3.2zm1.2-9a429 429 0 0 1-19.4.2 428 428 0 0 1-19.4-.2 438 438 0 0 1 19.4-.2l19.4.2zm1.7 29.3a505 505 0 0 1-21 .2 505 505 0 0 1-21-.2 517 517 0 0 1 21-.2l21 .2z" fill="#f5f5f5"/><path d="M67.4 169.2a10.9 10.9 0 0 1 1.8 0l4.8.2a64.7 64.7 0 0 1 7.2 1.1 71.7 71.7 0 0 1 8.5 2.4 72 72 0 0 1 8.1 3.6 62.8 62.8 0 0 1 6.2 3.8l2.3 1.6c.7.5 1.2 1 1.7 1.3a12.4 12.4 0 0 1 1.3 1.2 10.5 10.5 0 0 1-1.5-1l-4-2.8-6.2-3.6a76.9 76.9 0 0 0-8.1-3.6 77.6 77.6 0 0 0-8.5-2.5 72.1 72.1 0 0 0-7.1-1.2l-2.8-.3c-.8-.1-1.5-.1-2-.2a11.4 11.4 0 0 1-1.8-.2zM49 280.6a3.1 3.1 0 0 1 .5-.5l1.5-1a65 65 0 0 0 2.6-2l3.5-2.3 9.7-5.2a109 109 0 0 1 12.5-4.9 110.8 110.8 0 0 1 13.1-3.2c2-.3 4-.7 5.8-.8l5-.4a126 126 0 0 1 4.2-.2h5.2a3.2 3.2 0 0 1 .7.1 3.5 3.5 0 0 1-.7 0l-9.4.3c-1.5.2-3.3.3-5 .5l-5.8 1a114.3 114.3 0 0 0-13 3.2 115.9 115.9 0 0 0-12.5 5l-9.7 5-8 5a4.7 4.7 0 0 1-.6.3zm71.8 53.7a2.2 2.2 0 0 1 .1-.5l.8-4 3.5-11.3 4.2-9.6 15.2-22a2.2 2.2 0 0 1-.3.4c-.2.3-.6.7-1 1.2s-1 1.2-1.5 2l-6.8 9.6-5 9-4.2 9.5a88 88 0 0 0-2.8 8c-.4 1.2-.6 2.2-1 3l-1 4a2.6 2.6 0 0 1 0 .6zM256.6 60a4 4 0 0 1-.4.6L248 73l-3 5.2a133 133 0 0 0-5.8 12.5 140 140 0 0 0-4.5 13l-3.5 15.2a67 67 0 0 0-.5 3.2l-.3 2a3.3 3.3 0 0 1-.2.7 3.9 3.9 0 0 1 0-.7l.2-2c.1-.8.2-2 .4-3.2l3.3-15.2a141 141 0 0 1 4.5-13.1 127 127 0 0 1 5.9-12.5l8.3-13.2c.7-1 1.4-2 2-2.6l1.3-1.6a2.9 2.9 0 0 1 .5-.6zm90 103.7a2.9 2.9 0 0 1-.6.1l-4.5.7c-1 .2-2.3.4-3.6.8l-2 .5c-.7.2-1.4.5-2.2.7l-4.7 1.8a57.8 57.8 0 0 0-18.9 13.3l-3.3 3.8c-.5.6-1 1.2-1.4 1.8l-1.2 1.8c-.8 1-1.4 2.2-2 3l-2 4a2.4 2.4 0 0 1-.3.5 3.3 3.3 0 0 1 .2-.6c.2-.4.4-1 .7-1.6l1.3-2.5a36.3 36.3 0 0 1 1.9-3.2l1.2-1.8c.4-.6 1-1.2 1.4-1.8l3.3-4a56.2 56.2 0 0 1 19.1-13.4l4.8-1.8 4.3-1.2a34.6 34.6 0 0 1 3.6-.7l4.5-.4a2.2 2.2 0 0 1 .6 0zm73.5 59.6l-22-6.7-8.7-1.7a150.9 150.9 0 0 0-40.6-1.2l-16.4 2.6c-2.3.4-4.4 1-6.2 1.5L318 220a1 1 0 0 1-.3 0l8.6-2.7c1.8-.5 4-1 6.2-1.6l7.6-1.5c2.8-.5 5.7-.8 8.8-1.2a147.1 147.1 0 0 1 40.7 1.3l30.7 9z" class="I"/><path d="M264.8 59.3V88l-29.8 30h29.8v22.4a14.5 14.5 0 0 0 14.4 14.5l165.5 1.6a14.5 14.5 0 0 0 14.6-14.5V59.3a14.5 14.5 0 0 0-14.5-14.5H279.2a14.5 14.5 0 0 0-14.5 14.5z" fill="#fafafa"/><path d="M264.8 59.3s0-.5.1-1.6a14.7 14.7 0 0 1 1.3-4.6 14.5 14.5 0 0 1 1.8-3 15.6 15.6 0 0 1 3.1-2.9 14.7 14.7 0 0 1 4.5-2 20.3 20.3 0 0 1 5.6-.5l163.5-.1c.6 0 1.2 0 1.8.1a13.4 13.4 0 0 1 1.8.3 14.8 14.8 0 0 1 10.4 9.3 15.1 15.1 0 0 1 .9 3.6 50 50 0 0 1 .1 3.7q0 3.7 0 7.3v30q0 15.3 0 31.2v12a15.3 15.3 0 0 1-.6 4 14.7 14.7 0 0 1-4.4 6.8 13.7 13.7 0 0 1-3.4 2.3 14.6 14.6 0 0 1-3.9 1.3 20.6 20.6 0 0 1-3.9.2h-4L279 155a14.8 14.8 0 0 1-10.7-4.8 15 15 0 0 1-3.9-10.7q0-11.3 0-21.7l.2.2h-30.3l30.2-30 .1-21.2.1 21.2-30 29.7 30.2.2q0 10.4 0 21.7a14.5 14.5 0 0 0 3.7 10.3 14.2 14.2 0 0 0 10.4 4.6l164.2 1.5a19.2 19.2 0 0 0 3.8-.2 14.2 14.2 0 0 0 11.2-9.9 14.4 14.4 0 0 0 .6-3.9V99q0-15.3 0-30 0-3.7 0-7.3l-.1-3.6a15 15 0 0 0-.8-3.4 14.2 14.2 0 0 0-10-8.9c-2.2-.6-4.6-.4-7-.4h-92.7l-67.2-.1a19.8 19.8 0 0 0-5.6.5 14.4 14.4 0 0 0-4.4 2 15.2 15.2 0 0 0-3.1 2.8 14.1 14.1 0 0 0-1.9 2.9 15.4 15.4 0 0 0-1.5 6.1z" class="B"/><path d="M317.3 124.7H314v4.4h-1.7v-4.4h-9.5v-1.2l9-11h2L305 123h7.3v-4h1.7v4h3.4zm1.7-4c0-5.3 2.8-8.5 6.7-8.5s6.7 3.2 6.7 8.5-2.8 8.5-6.7 8.5-6.7-3.2-6.7-8.5zm11.6 0c0-4.5-2-7-5-7s-5 2.5-5 7 2 7 5 7 5-2.5 5-7zm18.4 4h-3.4v4.4H344v-4.4h-9.5v-1.2l9-11h2l-8.6 10.8h7.3v-4h1.7v4h3.3zm21.3 2.8v1.5h-12v-16.8H370v1.5h-9.7v6h8.7v1.5h-8.7v6.2zm10.2-11v1.6h-.4c-2.6 0-4.2 1.7-4.2 4.7v6.4h-2v-12.6h1.6v2.5c.8-1.7 2.4-2.5 4.7-2.5zm9.5 0v1.6h-.4c-2.6 0-4.2 1.7-4.2 4.7v6.4h-1.7v-12.6h1.6v2.5c.8-1.7 2.4-2.5 4.7-2.5zm1.6 6.4a6.4 6.4 0 1 1 6.4 6.4 6.2 6.2 0 0 1-6.4-6.4zm11 0a4.7 4.7 0 1 0-4.7 4.9 4.6 4.6 0 0 0 4.7-4.9zm11.6-6.4v1.6h-.4c-2.6 0-4.2 1.7-4.2 4.7v6.4H408v-12.6h1.6v2.5c.8-1.7 2.4-2.5 4.7-2.5zM304 84.5c0-8 6-13.7 14.5-13.7S333 76.6 333 84.5s-6.2 13.7-14.5 13.7S304 92.4 304 84.5zm22.8 0a8.3 8.3 0 1 0-8.3 8.5 8.1 8.1 0 0 0 8.3-8.5zm8.8 3c0-6 4.7-10.5 11.2-10.5S358 81.4 358 87.6 353.3 98 346.8 98s-11.2-4.3-11.2-10.4zm16.4 0c0-3.5-2.2-5.6-5.2-5.6s-5.2 2-5.2 5.6 2.3 5.6 5.2 5.6 5.2-2 5.2-5.6zm32 0c0 6.4-4.4 10.4-10 10.4a7.9 7.9 0 0 1-6.1-2.5v9.5h-6V77.4h5.6v2.3a7.9 7.9 0 0 1 6.4-2.7c5.7 0 10 4 10 10.5zm-6 0c0-3.5-2.2-5.6-5.2-5.6s-5.2 2-5.2 5.6 2.2 5.6 5.2 5.6 5.2-2 5.2-5.6zm8 8.4l2-4.2a13.9 13.9 0 0 0 7.1 2c2.7 0 3.7-.7 3.7-1.8 0-3.3-12.3.1-12.3-8 0-4 3.5-6.6 9.4-6.6a16.8 16.8 0 0 1 7.8 1.8l-2 4.2a11.7 11.7 0 0 0-5.9-1.5c-2.6 0-3.8.8-3.8 2 0 3.5 12.3.1 12.3 8 0 3.8-3.5 6.5-9.6 6.5a17.5 17.5 0 0 1-8.8-2.2zm21.2-1.4a3.7 3.7 0 0 1 7.3 0 3.7 3.7 0 0 1-7.3 0zm.1-23.3h7L413 88.5h-4.7z"/><path d="M167 55l1-1a14 14 0 0 1 19.7.1l2.7 2.7a14 14 0 0 1-.1 19.7l-1 1L167 55z" class="E"/><path d="M189.2 77.6h0L167 55l1-1a13.9 13.9 0 0 1 9.8-4.1h.1a13.9 13.9 0 0 1 9.9 4.1l2.7 2.7a14 14 0 0 1-.1 19.8zM167 55l22.3 22.4 1-1a13.9 13.9 0 0 0 .1-19.7l-2.7-2.7a13.8 13.8 0 0 0-9.8-4.1h-.1a13.8 13.8 0 0 0-9.8 4z" class="B"/><path d="M121.8 143.6l-1 1a14 14 0 0 1-19.7-.8l-2.6-2.8a14 14 0 0 1 .8-19.8l1-1 21.5 23.3z" class="E"/><path d="M111.4 148.3h-.6a13.9 13.9 0 0 1-9.7-4.5l-2.6-2.8a14 14 0 0 1 .8-19.7l1-1 21.5 23.3-1 1a13.9 13.9 0 0 1-9.4 3.7zm-12-27a13.9 13.9 0 0 0-.8 19.8l2.6 2.8a13.9 13.9 0 0 0 9.7 4.5h.6a13.8 13.8 0 0 0 9.4-3.7l1-1-21.4-23.2z" class="B"/><path d="M85.6 94.4l1.6-2 16 13-1.6 2z" class="E"/><path d="M88.2 88.3a5.1 5.1 0 1 1-7.2.8 5.1 5.1 0 0 1 7.2-.8z" class="B"/><rect x="102.5" y="70.9" width="99.2" height="74.8" rx="16.5" transform="matrix(.71 -.7 .7 .71 -32.18 138.62)" class="C"/><path d="M150.5 57.2l-2.2-8.4-5.7 1-1.7-6 2-.4 1.3 4.4 5.7-.8 2.4 8.6-1.7 1.7z" class="E"/><g class="B"><rect x="101.8" y="85.3" width="85.1" height="30.6" rx="14" transform="matrix(.71 -.7 .7 .71 -28.95 130.92)"/><path d="M177.7 95l.4-.5a14.9 14.9 0 0 0 1.1-1.3 16.8 16.8 0 0 0 2.9-5.9 18.9 18.9 0 0 0 .7-4.7 18.6 18.6 0 0 0-.9-5.6 17.2 17.2 0 0 0-3.1-5.7l-2.5-2.6a26.5 26.5 0 0 0-2.8-2.5 17.7 17.7 0 0 0-7.2-3.3 17.9 17.9 0 0 0-8.6.5 17.5 17.5 0 0 0-4.1 1.9 21.4 21.4 0 0 0-3.6 3l-38.5 38.2a17.4 17.4 0 0 0-5 10.1 18.1 18.1 0 0 0 .2 5.6 17.9 17.9 0 0 0 3.4 7.4c.6.7 1.2 1.4 1.8 2a30.3 30.3 0 0 0 3.9 3.6 17.4 17.4 0 0 0 19 .9 18.6 18.6 0 0 0 2-1.3l1.7-1.6 15.5-14.8-17 16.8a19.9 19.9 0 0 1-2 1.4 17.8 17.8 0 0 1-19.5-.9 32.4 32.4 0 0 1-4-3.7c-.7-.6-1.3-1.3-2-2a20.6 20.6 0 0 1-1.6-2.3 17.7 17.7 0 0 1-2-5.3 18.5 18.5 0 0 1-.2-5.8 17.9 17.9 0 0 1 5.1-10.4l38.5-38.2a22 22 0 0 1 3.7-3.1 17.7 17.7 0 0 1 20.4.9 26.6 26.6 0 0 1 2.8 2.6l2.5 2.6a17.6 17.6 0 0 1 3.1 5.8 18.2 18.2 0 0 1 .9 5.7 19.3 19.3 0 0 1-.7 4.8 16.8 16.8 0 0 1-3 5.9 12.5 12.5 0 0 1-1.2 1.3z"/></g><g class="G"><path d="M125.8 126.4a78.3 78.3 0 0 1-.4-9 75.7 75.7 0 0 1 .1-9 80.3 80.3 0 0 1 .4 9 79.5 79.5 0 0 1-.1 9z"/><path d="M134.5 116.7a74.9 74.9 0 0 1-9 .7 81.2 81.2 0 0 1-9 .2 75.2 75.2 0 0 1 9-.7 81 81 0 0 1 9-.2zm27-26.7a78.8 78.8 0 0 1-.4-9 75.4 75.4 0 0 1 .1-9 80.3 80.3 0 0 1 .4 9 79.5 79.5 0 0 1-.1 9z"/><path d="M170 80.4a80.2 80.2 0 0 1-9 .7 76.9 76.9 0 0 1-9 .1 79.2 79.2 0 0 1 9-.7 78.2 78.2 0 0 1 9-.2z"/></g><g class="B"><circle cx="140.6" cy="40" r="5.1" transform="matrix(1 -.02 .02 1 -.6 2.18)"/><path d="M156.5 156.7a5.1 5.1 0 0 1-.9-.7l-16.8-16.5a22.3 22.3 0 0 1-2.8-3.2 11.1 11.1 0 0 1 .8.8l19 18.8a4.7 4.7 0 0 1 .7.9zm43.3-43.7a4.8 4.8 0 0 1-.9-.7l-9.6-9.2a400 400 0 0 1-7.2-7.3 22.6 22.6 0 0 1-2.8-3.2 7.8 7.8 0 0 1 .8.8l19 18.8a4.2 4.2 0 0 1 .7.9zm-57.3 23L179 99l4 4-36.6 37.2zm-5 6.8a1.1 1.1 0 1 1-1-1.1 1.1 1.1 0 0 1 1 1.1zm8.4 8.8a1.1 1.1 0 0 1-2.2-.1 1.1 1.1 0 0 1 2.2.1zM186.6 93a1.1 1.1 0 0 1-1.1 1 1.1 1.1 0 1 1 .1-2.2 1.1 1.1 0 0 1 1 1.2zm8.4 8.7a1.1 1.1 0 1 1-2.2-.1 1.1 1.1 0 1 1 2.2.1z"/></g><path d="M105.5 144a27.2 27.2 0 0 0-2.3-2.1l-2.7-2a10.4 10.4 0 0 1-2.5-3.3 11.3 11.3 0 0 1-.8-7.5 8.9 8.9 0 0 1 .8-2.2l.5-.7a22.9 22.9 0 0 0-.9 2.9 11.5 11.5 0 0 0 .9 7.2c1.2 2.7 3.5 4 5 5.4a7 7 0 0 1 2.1 2.3zM149 63.5c.1.1-10.4 10.5-23.5 23.2l-23.8 22.8a957 957 0 0 1 23.5-23.2L149 63.5zM84 96c0 .1-.5 0-1.2-.5a4.1 4.1 0 0 1-1.2-5.6c.4-.7 1-1 1-1s-.3.4-.6 1a4.5 4.5 0 0 0-.4 2.8 4.4 4.4 0 0 0 1.5 2.4c.5.5 1 .7 1 .7zm55.5-52.3c0 .1-.6 0-1.3-.5a4.2 4.2 0 0 1-.8-6c.6-.7 1-1 1-.8s-.4.4-.8 1a4.2 4.2 0 0 0 .7 5.5c.6.5 1 .7 1 .8zm37.8 8a22.6 22.6 0 0 0-4.1.9 23.1 23.1 0 0 0-3.6 2.1 6.6 6.6 0 0 1 3.4-2.6 6.7 6.7 0 0 1 4.3-.4zm-41.5 106.8a103.2 103.2 0 0 1-7.5-7.3l-7-7.7c.1-.1 3.4 3.2 7.5 7.3l7 7.7z" class="G"/><path d="M208.4 398.6h42.8v60.7h-42.8z" class="C"/><path d="M208.8 458.2h42a5.7 5.7 0 0 1 5.7 5.7v.5a0 0 0 0 1 0 0H203a0 0 0 0 1 0 0v-.5a5.7 5.7 0 0 1 5.7-5.7z" class="B"/><path d="M198.2 464.5h65v10h-65z" class="C"/><g class="B"><use xlink:href="#B"/><use xlink:href="#C"/><use xlink:href="#B" y="-14.3"/><use xlink:href="#B" y="-21.6"/><use xlink:href="#C" y="-21.4"/><use xlink:href="#C" y="-28.6"/><use xlink:href="#B" y="-42.9"/><use xlink:href="#B" y="-50.1"/></g><path d="M208.4 407L251 406v-6.2h-43l.4 7.4z" class="F"/><path d="M275.5 398.6h42.8v60.7h-42.8z" class="C"/><path d="M275.8 458.2h42a5.7 5.7 0 0 1 5.7 5.7v.5a0 0 0 0 1 0 0H270a0 0 0 0 1 0 0v-.5a5.7 5.7 0 0 1 5.7-5.7z" class="B"/><path d="M265.2 464.5h65v10h-65z" class="C"/><g class="B"><use xlink:href="#B" x="67"/><use xlink:href="#C" x="67"/><use xlink:href="#B" x="67" y="-14.3"/><use xlink:href="#B" x="67" y="-21.6"/><use xlink:href="#C" x="67" y="-21.4"/><use xlink:href="#C" x="67" y="-28.6"/><use xlink:href="#B" x="67" y="-42.9"/><use xlink:href="#B" x="67" y="-50.1"/></g><path d="M275.5 407L318 406v-6.2h-43l.4 7.4z" class="F"/><path d="M320.3 233l1-4.2c.2-1 1.2-1.6 2.2-1.3l17 4.3-2 7.8-17-4.3c-1-.2-1.6-1.2-1.3-2.2z" class="C"/><path d="M320.3 233l1-4.2c.2-1 1.2-1.6 2.2-1.3l17 4.3-2 7.8-17-4.3c-1-.2-1.6-1.2-1.3-2.2z" class="F"/><g class="C"><path d="M316.6 248l1.5-5.8a3 3 0 0 1 3.6-2.2l16 4-3 11.6-16-4a3 3 0 0 1-2.2-3.7z"/><path d="M328.3 249.8l5-19.8 7.5 2-5 19.8zm17.4 60.6s32-1.3 29.3-32c-2-23.4-37-23.7-37-23.7l9-19.5s40.8 3.6 48.8 33.2c9 33.5-12 61-50 60.3z"/></g><path d="M337.5 230l12 2.7-6 27-12-2.7z" class="B"/><path d="M344.2 256.8c0 .2-2.8-.2-6-1a35.6 35.6 0 0 1-5.9-1.6 37.8 37.8 0 0 1 6 1.1l5.5 1.3a2.1 2.1 0 0 1 .5.2zm1-4.8a23 23 0 0 1-6-1 34.2 34.2 0 0 1-5.9-1.6 38.3 38.3 0 0 1 6 1.1l5.5 1.3a1.7 1.7 0 0 1 .5.2zm1.3-5c0 .2-2.8-.2-6-1a35.6 35.6 0 0 1-5.9-1.6 38.1 38.1 0 0 1 6 1.1l5.5 1.3zm1-4.8a23 23 0 0 1-6-1 34.5 34.5 0 0 1-5.9-1.6 38 38 0 0 1 6 1.1l5.5 1.3a1.7 1.7 0 0 1 .4.2zm1.2-4.6a23 23 0 0 1-6-1 35.6 35.6 0 0 1-5.9-1.6 38 38 0 0 1 6 1.1l5.5 1.3a3.7 3.7 0 0 1 .4.2z" class="E"/><path d="M352.7 328.6a14.2 14.2 0 0 1-.6-2.7 93 93 0 0 1-1-6.6 88 88 0 0 1-.5-6.7 13.8 13.8 0 0 1 0-2.8 14.6 14.6 0 0 1 .3 2.8l.7 6.6a333 333 0 0 0 .8 6.6 15.7 15.7 0 0 1 .3 2.8zm10-1.6a93.2 93.2 0 0 1-2.9-9.5 95 95 0 0 1-2.4-9.7 96 96 0 0 1 2.9 9.6 97.7 97.7 0 0 1 2.4 9.7zm13.4-4.7a18.7 18.7 0 0 1-1.7-2.6l-7.8-13a20.3 20.3 0 0 1-1.5-2.7 17.5 17.5 0 0 1 1.9 2.6l7.8 13a18.8 18.8 0 0 1 1.4 2.8zm11.2-9c-.1.1-4-3-9-7l-8.6-7.4c.1-.1 4 3 9 7l8.6 7.4zm7.2-12.3a141 141 0 0 1-10.5-4l-10.3-4.6a141 141 0 0 1 10.5 4l10.3 4.6zm3.6-13.4a24.3 24.3 0 0 1-3.4-.3l-16.2-2a20.8 20.8 0 0 1-3.3-.5 20.9 20.9 0 0 1 3.4.1l16.2 2a20 20 0 0 1 3.3.7zm-1.7-13.8a17.5 17.5 0 0 1-3 1l-7.5 2c-3 .6-5.6 1-7.6 1.3a17.3 17.3 0 0 1-3.2.3 22.6 22.6 0 0 1 3.1-.6l15-3.2a22.1 22.1 0 0 1 3.1-.6zm-4-13.2a114 114 0 0 1-9.6 5.1l-9.8 4.6a112 112 0 0 1 9.6-5.1 78 78 0 0 1 9.8-4.6zm-8.3-10.8a108 108 0 0 1-8 7.2c-4.5 4-8.2 7-8.3 6.8s3.5-3.3 8-7.2l8.3-6.8zm-14-8a111 111 0 0 1-5 8.8 97 97 0 0 1-5.5 8.6 112 112 0 0 1 5-8.8 100 100 0 0 1 5.5-8.6zm-12.3-5a102.1 102.1 0 0 1-3 9.9l-3.5 9.7a98.5 98.5 0 0 1 3-9.9 99.8 99.8 0 0 1 3.5-9.7z" class="B"/><path d="M372.7 294.2a24.6 24.6 0 0 1-11.6 11.9 36.5 36.5 0 0 1-7.8 3.1c6 3.3 14 1.3 19.4-3s8.2-11.4 8.4-18.3a21.7 21.7 0 0 0-1.7-9.6 15 15 0 0 0-6.6-7.5 18.5 18.5 0 0 1 1.9 5.3 30.7 30.7 0 0 1-1.9 18.4z" class="F"/><path d="M137.8 348a8.6 8.6 0 0 1 1 1.1l2.5 3.2a70.5 70.5 0 0 1 6.6 11.6 68.7 68.7 0 0 1 4.3 12.6c.4 1.7.7 3 .8 4a9.3 9.3 0 0 1 .2 1.5 7.5 7.5 0 0 1-.4-1.4l-1-4a82 82 0 0 0-4.4-12.5 81.2 81.2 0 0 0-6.4-11.6l-2.3-3.3a7.6 7.6 0 0 1-.9-1.2zm-4.2-3.4c.1-.1.6.1 1 .6s.8 1 .7 1-.6-.1-1-.6l-.7-1zm1-3c.1-.1.6.5 1 1.3s.8 1.5.7 1.6-.6-.5-1-1.3-.8-1.5-.6-1.6z" class="B"/><path d="M153 382.7a5.2 5.2 0 0 1 .2-.8q.2-1 .5-2.3l2-8.4 4.8-28c.7-5.5 1-10.8 2.3-15.5a23.7 23.7 0 0 1 2.7-6.3 18.9 18.9 0 0 1 11.7-8.2 15 15 0 0 1 2.3-.4 4.6 4.6 0 0 1 .8 0 6.1 6.1 0 0 1-.8.1 21.6 21.6 0 0 0-2.3.4 19.5 19.5 0 0 0-7.5 3.9 18.6 18.6 0 0 0-3.8 4.4 23.3 23.3 0 0 0-2.6 6.2c-1.2 4.6-1.5 10-2.2 15.4l-5 28-2 8.4q-.4 1.4-.6 2.3a4.9 4.9 0 0 1-.3.8z" class="E"/><path d="M154.3 303.4a16 16 0 0 0 2.6 3.7 16.8 16.8 0 0 0 9.6 4.7 36.4 36.4 0 0 0 10.9-.5l3.3-.6a6.7 6.7 0 0 1 1.2-.2 5.3 5.3 0 0 1-1.2.4l-3.3.7a32.9 32.9 0 0 1-11 .6 16.5 16.5 0 0 1-9.8-4.9 10.8 10.8 0 0 1-1.9-2.8 4 4 0 0 1-.4-1.2zm-3.8-3c.1-.1.6.2 1 .7s.8 1 .7 1-.6-.2-1-.7l-.7-1zm1-1.8c.1-.1.6.4 1 1s.7 1.3.6 1.4-.6-.4-1-1-.7-1.3-.6-1.4zm3-.2c.2 0 .2.6.1 1.3s-.3 1.3-.5 1.2-.2-.6-.1-1.3.3-1.3.5-1.2z" class="B"/><path d="M164 337.3a10.4 10.4 0 0 1-.1 1.8l-3 20.6-5.3 20.2a12.7 12.7 0 0 1-.6 1.7 13.3 13.3 0 0 1 .4-1.7l5-20.2 3.3-20.6a14.8 14.8 0 0 1 .3-1.8zm18-23c0 .1-1.4.1-3.6.7a18.1 18.1 0 0 0-12.5 11.6c-.8 2-1 3.6-1 3.6a2.8 2.8 0 0 1 0-1 15 15 0 0 1 .6-2.7 17.4 17.4 0 0 1 12.8-11.8 15.4 15.4 0 0 1 2.7-.4 3.5 3.5 0 0 1 1.1 0zm-24.2 68.3a5.2 5.2 0 0 1 0-.7c0-.5.1-1.2.3-2a20 20 0 0 1 2.4-7.6c.8-1.5 2-3 3-4.6a9.7 9.7 0 0 0 1-2.8 11.5 11.5 0 0 0 .1-3.2c-.2-2.2-.8-4.5-.3-7a8.5 8.5 0 0 1 1.6-3.4l2.3-3a6.4 6.4 0 0 0 1.1-3.4 14.8 14.8 0 0 0-.5-3.6 21.1 21.1 0 0 1-.6-7 19.9 19.9 0 0 1 10.5-15.9 17.5 17.5 0 0 1 2-.9 4.3 4.3 0 0 1 .7-.2 3.9 3.9 0 0 1-.7.3l-2 1a20.5 20.5 0 0 0-5.9 5.1 19.7 19.7 0 0 0-4.2 10.7 20.9 20.9 0 0 0 .6 6.8 15.3 15.3 0 0 1 .5 3.7 6.9 6.9 0 0 1-1.2 3.7l-2.3 3a7.8 7.8 0 0 0-1.5 3.2c-.5 2.3.1 4.6.3 6.8a12 12 0 0 1-.1 3.3 10.2 10.2 0 0 1-1.1 2.9c-1 1.7-2.2 3.2-3 4.6a20.8 20.8 0 0 0-2.5 7.4l-.3 2a3.8 3.8 0 0 1-.1.7z" class="E"/><path d="M183 324.6a9.5 9.5 0 0 0-2.5.4 9.8 9.8 0 0 0-5.2 4.1c-1.6 2.4-2.3 5.8-2.7 9.6a121.1 121.1 0 0 1-1.8 12.4 200.6 200.6 0 0 1-6 21.8L162 381a2.5 2.5 0 0 1-.3.6 4.3 4.3 0 0 1 .2-.7l10.2-42.4c.4-3.8 1.2-7.3 3-9.7a9.7 9.7 0 0 1 5.4-4.1 6.3 6.3 0 0 1 1.9-.2 4.1 4.1 0 0 1 .7.1z" class="D"/><g class="C"><path d="M146.3 379h19.4S154 472.2 89 472l.8-18.2s44-2.7 56.4-74.8z"/><use xlink:href="#D"/></g><use xlink:href="#D" class="F"/><g class="C"><path d="M63 470.7v-6a3 3 0 0 1 3.1-2.9l16.5.3-.2 12-16.4-.3a3 3 0 0 1-3-3.1z"/><path d="M74.6 468.7l.4-20.4 7.7.1-.4 20.4z"/></g><path d="M79 447.3l12.4-.2.3 27.7-12.4.2z" class="B"/><path d="M91.6 472a24 24 0 0 1-6 .4 34.4 34.4 0 0 1-6.1-.3 38.7 38.7 0 0 1 6.1-.3h5.6a2.4 2.4 0 0 1 .5.1zm0-5a24 24 0 0 1-6.1.4 35 35 0 0 1-6.1-.2 38.7 38.7 0 0 1 6.1-.3H91a1.8 1.8 0 0 1 .5.1zm.1-5a24 24 0 0 1-6 .4 34.9 34.9 0 0 1-6.1-.2 38.7 38.7 0 0 1 6.1-.3h5.6a2 2 0 0 1 .5.1zm-.2-5a24 24 0 0 1-6 .4 34.3 34.3 0 0 1-6.1-.3 38.7 38.7 0 0 1 6.1-.3H91a2.6 2.6 0 0 1 .5.1zm.1-4.8a24 24 0 0 1-6 .4 36.2 36.2 0 0 1-6.1-.2 36 36 0 0 1 6.1-.3h5.6a2.4 2.4 0 0 1 .5.1z" class="E"/><path d="M98.4 471s0 .2.1.5v.6l-.2-.6a83.2 83.2 0 0 1-1.9-9.2l-1-7a14.7 14.7 0 0 1-.1-2.9 18.9 18.9 0 0 1 .5 2.9l2.5 15.6zm9.2-1.8a92.9 92.9 0 0 1-3.2-9.4 92.9 92.9 0 0 1-2.7-9.6 92.9 92.9 0 0 1 3.2 9.4 92.9 92.9 0 0 1 2.7 9.6zm11-4.6a98.8 98.8 0 0 1-4.8-9.1l-4.3-9.3a99.8 99.8 0 0 1 4.8 9.1l4.3 9.3zm9.5-7.2a91.9 91.9 0 0 1-6.2-7.9 98.6 98.6 0 0 1-5.8-8.2 96.3 96.3 0 0 1 6.2 7.9 103 103 0 0 1 5.8 8.2zm8.6-8a93.7 93.7 0 0 1-7.2-6.9 96.2 96.2 0 0 1-6.8-7.2 94.5 94.5 0 0 1 7.2 6.9 97.7 97.7 0 0 1 6.8 7.2zm7-9.4a14.6 14.6 0 0 1-2.5-1.3l-11.8-7a15.5 15.5 0 0 1-2.4-1.5 15.1 15.1 0 0 1 2.6 1.2l6 3.3a70 70 0 0 1 5.8 3.6 15.7 15.7 0 0 1 2.3 1.6zm4.7-9.8a13.8 13.8 0 0 1-2.4-1.1l-11.6-5.4a15.5 15.5 0 0 1-2.4-1.1 11.9 11.9 0 0 1 2.5.8l6 2.5a84 84 0 0 1 5.7 2.9 13.3 13.3 0 0 1 2.3 1.4zm5.6-9.4a13.9 13.9 0 0 1-2.8-.5l-6.6-1.7c-2.6-.7-4.8-1.5-6.4-2a14.2 14.2 0 0 1-2.6-1.1 16.2 16.2 0 0 1 2.7.7l13 3.8a16.1 16.1 0 0 1 2.7.8zm3-9.5a84.3 84.3 0 0 1-9.2-.9 84.5 84.5 0 0 1-9.2-1.4 84.1 84.1 0 0 1 9.3.9 79 79 0 0 1 9.2 1.4zm3.2-9.3a12.6 12.6 0 0 1-2.7-.1l-13-1.3a13.8 13.8 0 0 1-2.7-.4 14.3 14.3 0 0 1 2.7.1l13 1.3a14.8 14.8 0 0 1 2.7.4zm2.4-9a92.1 92.1 0 0 1-9.6.6 86.4 86.4 0 0 1-9.7 0 92.1 92.1 0 0 1 9.6-.6 89.4 89.4 0 0 1 9.6 0zm1-7.2a13.2 13.2 0 0 1-2.6.4 67 67 0 0 1-6.4.3 70 70 0 0 1-6.4-.3 12.8 12.8 0 0 1-2.6-.4 15 15 0 0 1 2.7 0l12.8-.1a15 15 0 0 1 2.7 0z" class="B"/><path d="M147 381.7a.7.7 0 0 1 0 .3l-.1 3.6a74 74 0 0 1-1.2 10.4 78.3 78.3 0 0 1-4.3 14.9 77.4 77.4 0 0 1-22 30.6 78.9 78.9 0 0 1-12.8 8.8 73.1 73.1 0 0 1-9.5 4.4L94 456a.8.8 0 0 1-.2.1.7.7 0 0 1 .2-.1l3.3-1.3a82.1 82.1 0 0 0 9.4-4.6 79.9 79.9 0 0 0 39-54 81.6 81.6 0 0 0 1.4-10.3l.2-3.6a.9.9 0 0 1 0-.4z" class="G"/><use xlink:href="#E" class="C"/><use xlink:href="#E" opacity=".8" class="G"/><use xlink:href="#F" class="C"/><use xlink:href="#F" opacity=".6" class="G"/><g class="C"><path d="M269.7 160.8a5.1 5.1 0 0 1-.2.6l-5.2 13-1.7 5.3a129 129 0 0 0-2.9 12.5 124 124 0 0 0-1.6 12.8v19.4a3 3 0 0 1 0 .7 5.3 5.3 0 0 1-.1-.7q-.1-.7-.2-2l-.3-3V205a113.2 113.2 0 0 1 4.6-25.4l7.4-18a3 3 0 0 1 .3-.6zM198 154a33 33 0 0 0-6-4.5 33.3 33.3 0 0 0-7.1-2.5 6.8 6.8 0 0 1 2.2.2 18.6 18.6 0 0 1 5.1 1.8 18.9 18.9 0 0 1 4.3 3.2 6.6 6.6 0 0 1 1.4 1.7zm7.8 43.4a2.3 2.3 0 0 1 .4.4l1 1.2a67 67 0 0 1 3.9 4.6l5.4 7 6 9.2a90 90 0 0 1 5 9.7 111 111 0 0 1 3.5 8.2l2 5.7q.3 1 .5 1.6a2.3 2.3 0 0 1 .1.6 2.3 2.3 0 0 1-.2-.5l-2.7-7-3.6-8a137 137 0 0 0-5.1-9.6l-5.8-9.2-5.3-7.2c-1.6-2-2.8-3.6-3.8-4.7l-1-1.2a2.4 2.4 0 0 1-.4-.5zm68.7 5a1.7 1.7 0 0 1-.2.5l-1.7 3.3c-.4.8-1 1.7-1.3 2.7l-3 7.2a78.1 78.1 0 0 0-4.2 18.5 81 81 0 0 0-.4 7.7l.3 6.7a1.4 1.4 0 0 1 0 .5 2.3 2.3 0 0 1-.1-.5l-.4-3.7-.1-3a71 71 0 0 1 .3-7.8 72.8 72.8 0 0 1 4.2-18.6 70.4 70.4 0 0 1 3.1-7.2l3.3-6a2 2 0 0 1 .3-.4zm19.7 4c.1.1-.8.7-2.2 2a36.8 36.8 0 0 0-8.5 10.7 26.4 26.4 0 0 1-1.4 2.5 11.4 11.4 0 0 1 1-2.7 30.9 30.9 0 0 1 3.7-5.9 30.1 30.1 0 0 1 4.9-4.9 11.1 11.1 0 0 1 2.4-1.6zM210.7 232a11.9 11.9 0 0 1 2.4 1.5 34.6 34.6 0 0 1 5.2 4.7 33.8 33.8 0 0 1 4.1 5.6 11.7 11.7 0 0 1 1.3 2.6 27.7 27.7 0 0 1-1.6-2.4 45 45 0 0 0-4.2-5.5 45.6 45.6 0 0 0-5-4.7 22.6 22.6 0 0 1-2.2-1.8zm-5-9.4c-.1.1-2-1-5-1.7s-5-.7-5-1a14.5 14.5 0 0 1 10 2.6z"/><path d="M185 191.3a6.9 6.9 0 0 1 .7-1.7l-1-1.4 2-2 1.4.8a7.3 7.3 0 0 1 1.6-.7l.3-1.6 2.7-.1.4 1.6a7 7 0 0 1 1.7.7l1.4-1 2 2-1 1.4a6.3 6.3 0 0 1 .7 1.6l1.6.3v2.7l-1.6.4a6.8 6.8 0 0 1-.7 1.7l1 1.4-2 2-1.4-1a6.3 6.3 0 0 1-1.6.7l-.4 1.6h-2.7l-.4-1.6a6.9 6.9 0 0 1-1.7-.7l-1.4 1-2-2 1-1.4a6.3 6.3 0 0 1-.7-1.6l-1.6-.3v-2.7l1.6-.4zm3.6 1.6a2.9 2.9 0 1 0 2.9-3 2.9 2.9 0 0 0-2.9 3z" class="H"/></g><path d="M299.6 265.2a5.2 5.2 0 0 1 .5-1.2l-.7-1 1.4-1.4 1 .6a5.1 5.1 0 0 1 1.2-.5l.3-1.2h2l.3 1.2a4.8 4.8 0 0 1 1.2.5l1-.7 1.4 1.4-.6 1a5 5 0 0 1 .5 1.2l1.2.3v2l-1.2.3a5.2 5.2 0 0 1-.5 1.2l.7 1-1.4 1.4-1-.6a5 5 0 0 1-1.2.5l-.2 1.2h-2l-.3-1.2a5.2 5.2 0 0 1-1.2-.5l-1 .7-1.4-1.4.6-1a5 5 0 0 1-.5-1.2l-1.2-.2v-2l1.2-.3zm2.7 1a2.2 2.2 0 1 0 4.3-.1 2.2 2.2 0 1 0-4.3.1z" class="E H"/><path d="M275 188.2l4.5-9.4 4.3 2-4.5 9.4z" class="D"/><path d="M275 188.2a10.7 10.7 0 0 1 1.2.5l3 1.4h-.2l4.4-9.4c-.1-.3.1.4.1.3h-.1l-4-2h.3l-3.3 6.6a104 104 0 0 0-1 1.9 4.6 4.6 0 0 1-.4.7 3.1 3.1 0 0 1 .3-.7l1-2c.8-1.7 1.8-4 3-7l.1-.2 2.3 1 2.2 1c0-.1.2.7.1.3l-4.8 9.5-3-1.6a7.7 7.7 0 0 1-1.1-.6z" class="B"/><path d="M283.4 175.8a4.3 4.3 0 0 0-5.8 2.1l8 3.7a4.4 4.4 0 0 0-2.1-5.8z" class="D"/><path d="M283.4 175.8a1.2 1.2 0 0 1 .5.2 4.2 4.2 0 0 1 1.1.9 4.3 4.3 0 0 1 1 2 4.5 4.5 0 0 1-.3 2.8v.2l-8.2-4.2a4.5 4.5 0 0 1 2-2 4.4 4.4 0 0 1 2.2-.5 3.9 3.9 0 0 1 1.4.3c.3.1.5.2.4.3a8.5 8.5 0 0 0-1.8-.3 4.2 4.2 0 0 0-2 .6 4.2 4.2 0 0 0-1.8 1.9l-.1-.3 8 3.7-.3.1a4.2 4.2 0 0 0 .4-2.6 4.4 4.4 0 0 0-.8-1.9 8 8 0 0 0-1.4-1.3z" class="B"/><path d="M283.5 178.2a2.7 2.7 0 0 0-.9-2.8" class="D"/><path d="M282.6 175.4c.1-.1.8.3 1 1.2s-.1 1.7-.2 1.6 0-.7-.3-1.4-.7-1.2-.6-1.3zm-4 4.6a9 9 0 0 1 2.3.9 9.2 9.2 0 0 1 2.2 1.1 4.7 4.7 0 0 1-2.4-.6c-1.3-.6-2-1.3-2-1.4zm-.7 1.2a9.7 9.7 0 0 1 2.3 1 9.2 9.2 0 0 1 2.2 1.1 4.5 4.5 0 0 1-2.4-.6c-1.3-.6-2.2-1.3-2-1.5zm-.4 1a9 9 0 0 1 2.3.9 9.4 9.4 0 0 1 2.2 1.1 4.7 4.7 0 0 1-2.4-.6c-1.3-.6-2.2-1.3-2-1.4zm-.6 1a9.7 9.7 0 0 1 2.3 1 9.2 9.2 0 0 1 2.2 1.1 4.5 4.5 0 0 1-2.4-.6c-1.3-.6-2-1.3-2-1.5zm-.5 1a9.3 9.3 0 0 1 2.3.9 9.9 9.9 0 0 1 2.2 1.1 7.2 7.2 0 0 1-4.5-2zm-.5 1a9 9 0 0 1 2.3.9 9.2 9.2 0 0 1 2.2 1.1 7.2 7.2 0 0 1-4.5-2zm-.5 1a9.5 9.5 0 0 1 2.3 1 9.2 9.2 0 0 1 2.2 1.1 4.5 4.5 0 0 1-2.4-.6c-1.3-.6-2.2-1.3-2-1.5z" class="B"/><path d="M171.3 264.3l9.5-4.3 2 4.3-9.5 4.3z" class="D"/><path d="M182.8 264.3a11.2 11.2 0 0 1-.6-1.2l-1.2-3-9.5 4.4c-.1.3.2-.4.1-.3h0v.1.1l1.8 4-.3-.1 8.8-3.8a5 5 0 0 1 .8-.3 3 3 0 0 1-.6.4l-9 4-2-4.3.1-.3 9.8-4 1.3 3.2a5.9 5.9 0 0 1 .5 1.2z" class="B"/><path d="M168.4 268.4a4.4 4.4 0 0 0 5.8 2.2l-3.6-8a4.3 4.3 0 0 0-2.2 5.8z" class="D"/><path d="M168.4 268.4s-.1-.1-.3-.4a4.1 4.1 0 0 1-.3-1.4 4.3 4.3 0 0 1 .5-2.2 4.6 4.6 0 0 1 2.1-2l.2-.1 3.8 8.4-.2.1a4.5 4.5 0 0 1-2.8.3 4.3 4.3 0 0 1-2-1 3.9 3.9 0 0 1-.9-1.1c-.2-.3-.2-.5-.2-.5a7.9 7.9 0 0 0 1.2 1.4 4.3 4.3 0 0 0 4.4.6v.3l-3.3-8a4.2 4.2 0 0 0-2.5 3.7 8.5 8.5 0 0 0 .3 1.9z" class="B"/><path d="M170 266.4a2.7 2.7 0 0 0-1.2 2.7" class="D"/><path d="M168.8 269c-.1.1-.4-.7-.1-1.6s1.2-1.2 1.2-1-.4.6-.7 1.3-.3 1.4-.4 1.4zm6-1a9 9 0 0 1-1.1-2.2 9.4 9.4 0 0 1-1-2.3 7.1 7.1 0 0 1 2.1 4.5zm1.2-.4a9.6 9.6 0 0 1-1.1-2.2 9.8 9.8 0 0 1-1-2.3c.1-.1 1 .8 1.5 2a4.5 4.5 0 0 1 .7 2.5zm1-.6a9.2 9.2 0 0 1-1.1-2.2 9.4 9.4 0 0 1-1-2.3 7.1 7.1 0 0 1 2.1 4.5zm1-.4a9.9 9.9 0 0 1-1.1-2.2 9.6 9.6 0 0 1-1-2.3 4.7 4.7 0 0 1 1.5 2 4.5 4.5 0 0 1 .7 2.5zm1.3-.6a9.1 9.1 0 0 1-1.1-2.2 9.4 9.4 0 0 1-1-2.3 7.1 7.1 0 0 1 2.1 4.5zm1-.4a9.4 9.4 0 0 1-1.1-2.2 9.6 9.6 0 0 1-1-2.3 4.7 4.7 0 0 1 1.5 2 4.5 4.5 0 0 1 .7 2.5zm1-.6a40.2 40.2 0 0 1-2.1-4.5c.1-.1 1 .8 1.5 2a4.6 4.6 0 0 1 .7 2.5z" class="B"/><path d="M201.5 142.4a88 88 0 0 0 15.1 19.4l4.8 13.7s3-5.5 6.6 0 20 71.8 22.8 96.7h10.6l-7.3-46.4c-2.3-4.7-4.3-6.2-4.3-6.2s-2.7-17.6-4.7-20.3a13.2 13.2 0 0 0-4.3-3.9s-3.5-19-8.6-23-9-2-9-2-3.2-20.5-21.8-28z" class="C"/><path d="M300.7 231a55.8 55.8 0 0 0-7 2.4 58.3 58.3 0 0 0-6.4 3.7 6.8 6.8 0 0 1 1.6-1.5 24.1 24.1 0 0 1 9.6-4.4 7.2 7.2 0 0 1 2.2-.2zm-.4-2a72.8 72.8 0 0 0-7.1 3.1c-3.7 2-6.3 4.4-6.4 4.3a8.1 8.1 0 0 1 1.6-1.6 28 28 0 0 1 4.5-3.1 26.9 26.9 0 0 1 5.1-2.2 7.9 7.9 0 0 1 2.2-.5zm-2 5c0 .2-2.2.2-4.8 1l-4.6 1.7a13.3 13.3 0 0 1 9.4-2.7z" class="E"/><path d="M275 272.2c-1.8-14 2.8-30.4 14-38.3l2.7 2.2s-14 8.3-13 36.2" class="B"/><path d="M217.4 252a33.6 33.6 0 0 0-5.4 2.4 34.9 34.9 0 0 0-4.6 3.7 13.8 13.8 0 0 1 9.9-6.1zm-.4-1.2a51.2 51.2 0 0 1-5.4 2.1 50.9 50.9 0 0 1-5.5 2 24.2 24.2 0 0 1 5.3-2.5 23.8 23.8 0 0 1 5.6-1.6z" class="E"/><path d="M248 275.6l-4.8-1.3a10.7 10.7 0 0 0-3.7-11.1 9.2 9.2 0 0 1-5.3 7.1 7.9 7.9 0 0 1-6.7-.4 6.9 6.9 0 0 1-3.6-4.7 7.9 7.9 0 0 1 3.9-8 9.8 9.8 0 0 1 3.7-1.2 3.5 3.5 0 0 0-.4-.3 13.4 13.4 0 0 0-15.1-.4l-2.8-4a18.3 18.3 0 0 1 20.9.6 14.9 14.9 0 0 1 4.3 5.2 15.8 15.8 0 0 1 9.5 18.7zm-15-14.8a5.4 5.4 0 0 0-2.8.7 2.9 2.9 0 0 0-1.5 2.8 2.1 2.1 0 0 0 1.1 1.3 2.9 2.9 0 0 0 2.4.2 4.5 4.5 0 0 0 2.3-4.6v-.2a8.4 8.4 0 0 0-1.5-.1z" class="B"/><path d="M207.3 182.8a7.8 7.8 0 0 1 1.3.7c.8.5 2 1.2 3.5 2.2a61.1 61.1 0 0 1 4.8 3.8 62 62 0 0 1 10.1 11.1 58.3 58.3 0 0 1 3.3 5.2l2 3.7a7.7 7.7 0 0 1 .6 1.4 8 8 0 0 1-.7-1.3 85 85 0 0 0-2-3.6l-3.3-5a67.2 67.2 0 0 0-10-11 61 61 0 0 0-4.7-3.9l-3.4-2.4a8.6 8.6 0 0 1-1.3-.9z" class="C"/><path d="M190.4 294.2h.8a0 0 0 0 1 0 0v50.5a0 0 0 0 1 0 0h-.8a9 9 0 0 1-9-9V303a9 9 0 0 1 9-9zm145.6 0h1a8.9 8.9 0 0 1 8.9 8.9V336a8.9 8.9 0 0 1-8.9 8.9h-1a0 0 0 0 1 0 0v-50.5a0 0 0 0 1 0 0z" class="B"/><rect x="188.7" y="284.3" width="149.4" height="110" rx="14.1" class="C"/><path d="M282.4 296a34.2 34.2 0 0 0-34.2 34.2h68.5a34.2 34.2 0 0 0-34.2-34.2z" class="G"/><path d="M310 328.6h3.7a6.7 6.7 0 0 1 1.5.1 7.9 7.9 0 0 1-1.5.1h-8.5a1.8 1.8 0 0 1-.4 0 1.3 1.3 0 0 1 .4 0l1-.1zm-2.4-10.4l4.8-2a27 27 0 0 1-4.6 2.4 34.8 34.8 0 0 1-4.8 2 35 35 0 0 1 4.6-2.4zm-6.4-8.4l3.7-3.7c.1.1-1.4 2-3.3 4a33.9 33.9 0 0 1-3.7 3.7 34.9 34.9 0 0 1 3.3-4zm-9.2-5.4a23 23 0 0 1 2.1-4.8c.2.1-.5 2.3-1.6 5a35.7 35.7 0 0 1-2.1 4.8 34.2 34.2 0 0 1 1.6-5zm-10.5-1.8c0-3 .1-5.2.3-5.2s.3 2.3.3 5.2a33.9 33.9 0 0 1-.3 5.2 33.2 33.2 0 0 1-.2-5.2zm-10.5 2l-1.6-5c.2-.1 1 2 2 4.8a32.4 32.4 0 0 1 1.6 5 34.9 34.9 0 0 1-2-4.8zm-9 5.5l-3.3-4a27 27 0 0 1 3.7 3.7 34.9 34.9 0 0 1 3.3 4 33.9 33.9 0 0 1-3.7-3.7zm-6.3 8.7l-4.6-2.4c.1-.2 2.2.7 4.8 2a35.1 35.1 0 0 1 4.6 2.4 34.9 34.9 0 0 1-4.8-2zm-2 10H250a7.9 7.9 0 0 1-1.5-.1 6.7 6.7 0 0 1 1.5-.1l8.5.1a1.2 1.2 0 0 1 .4 0 1.6 1.6 0 0 1-.4 0h-1z" class="D"/><path d="M225.3 302a4.6 4.6 0 1 1-4.6-4.5 4.6 4.6 0 0 1 4.6 4.5z" class="G"/><path d="M225.3 315.7a4.6 4.6 0 1 1-4.6-4.5 4.6 4.6 0 0 1 4.6 4.5z" class="E"/><path d="M311.4 384.8V338h-93.2l.3-.3-.2 46.8 67 .3-67.4.1.3-47.5 93.4.3-.1 46.2c0 .6-.1 1-.1 1zM204 394h118.6a0 0 0 0 1 0 0v.6a6.2 6.2 0 0 1-6.2 6.2h-106a6.2 6.2 0 0 1-6.2-6.2v-.6a0 0 0 0 1 0 0z" class="B"/><path d="M301.5 344.4a2.8 2.8 0 0 0 1.9 3 3.1 3.1 0 0 0 3.4-1.2 3.5 3.5 0 0 0 0-3.7 3.5 3.5 0 0 1-.8 2.4 2.6 2.6 0 0 1-2.3.9 2 2 0 0 1-1.7-1.6" class="F"/><path d="M306.8 343.3a2.8 2.8 0 1 1-2.8-2.8 2.8 2.8 0 0 1 2.8 2.8z" class="D"/><g class="B"><path d="M306.8 343.3a5.2 5.2 0 0 1-.2-.6 2.8 2.8 0 0 0-1-1.4 2.6 2.6 0 0 0-2.4-.3 2.5 2.5 0 0 0 0 4.7 2.6 2.6 0 0 0 2.4-.3 2.8 2.8 0 0 0 1-1.4 6 6 0 0 1 .2-.6s.1.3 0 .7a2.7 2.7 0 0 1-1 1.6 2.9 2.9 0 0 1-2.8.5 3 3 0 0 1 0-5.6 2.9 2.9 0 0 1 2.8.5 2.7 2.7 0 0 1 1 1.6c.1.4 0 .7 0 .7z"/><path d="M305.3 342c.1.1-.6.5-1.2 1s-1 1.3-1 1.2 0-1 .7-1.6 1.6-1 1.6-.7z"/><use xlink:href="#G"/></g><path d="M302.8 378.6a2.8 2.8 0 0 0 1.9 3 3.1 3.1 0 0 0 3.4-1.2 3.5 3.5 0 0 0 .1-3.7 3.4 3.4 0 0 1-.8 2.3 2.6 2.6 0 0 1-2.2.9 2 2 0 0 1-1.7-1.6" class="F"/><circle cx="305.4" cy="377.5" r="2.8" class="D"/><g class="B"><path d="M308 377.5c-.1 0-.1-.2-.2-.6a2.7 2.7 0 0 0-1-1.4 2.6 2.6 0 0 0-2.4-.3 2.5 2.5 0 1 0 2.4 4.4 2.7 2.7 0 0 0 1-1.4c.1-.4.1-.6.2-.6s.1.3 0 .7a2.7 2.7 0 0 1-1 1.6 2.9 2.9 0 0 1-2.8.5 3 3 0 0 1 0-5.6 3 3 0 0 1 2.8.5 2.7 2.7 0 0 1 1 1.6c.1.5 0 .7 0 .7z"/><path d="M306.6 376.3c.1.1-.6.5-1.2 1s-1 1.3-1 1.3 0-1 .7-1.6 1.6-1 1.6-.8z"/><use xlink:href="#G" x="1.3" y="34.2"/></g><path d="M222.4 344.4a2.8 2.8 0 0 0 1.9 3 3.1 3.1 0 0 0 3.4-1.2 3.5 3.5 0 0 0 0-3.7 3.5 3.5 0 0 1-.8 2.4 2.6 2.6 0 0 1-2.2.9 2 2 0 0 1-1.7-1.6" class="F"/><circle cx="225" cy="343.3" r="2.8" class="D"/><g class="B"><path d="M227.7 343.3s-.1-.2-.2-.6a2.7 2.7 0 0 0-1-1.4 2.6 2.6 0 0 0-2.4-.3 2.5 2.5 0 0 0 0 4.7 2.6 2.6 0 0 0 2.4-.3 2.7 2.7 0 0 0 1-1.4c.1-.4.1-.6.2-.6a1.2 1.2 0 0 1 0 .7 2.8 2.8 0 0 1-1 1.6 2.9 2.9 0 0 1-2.8.5 3 3 0 0 1 0-5.6 2.9 2.9 0 0 1 2.8.5 2.8 2.8 0 0 1 1 1.6 1.2 1.2 0 0 1 0 .7z"/><path d="M226.2 342c0 .1-.6.5-1.2 1s-1 1.3-1 1.2 0-1 .7-1.6 1.6-1 1.6-.7z"/><use xlink:href="#G" x="-79.1" y="-0.2"/></g><path d="M221.8 378.3a2.8 2.8 0 0 0 1.9 3 3.1 3.1 0 0 0 3.4-1.2 3.5 3.5 0 0 0 0-3.7 3.5 3.5 0 0 1-.8 2.3 2.6 2.6 0 0 1-2.3.9 2 2 0 0 1-1.7-1.6" class="F"/><circle cx="224.4" cy="377.2" r="2.8" class="D"/><g class="B"><path d="M227 377.2s0-.2-.2-.6a2.9 2.9 0 0 0-1-1.4 2.6 2.6 0 0 0-2.4-.3 2.5 2.5 0 1 0 2.4 4.4 2.8 2.8 0 0 0 1-1.4 6 6 0 0 1 .2-.6s.1.3 0 .7a2.7 2.7 0 0 1-1 1.6 3 3 0 0 1-2.8.5 3 3 0 0 1 0-5.6 3 3 0 0 1 2.8.5 2.7 2.7 0 0 1 1 1.6c.1.4 0 .7 0 .7z"/><path d="M225.7 376c0 .1-.6.5-1.2 1s-1 1.3-1 1.3 0-1 .7-1.6 1.6-1 1.6-.8z"/><path d="M225.7 378c-.1.1-.6-.4-1.3-1s-1.3-.7-1.3-1 .8-.1 1.6.4 1 1.3 1 1.3z"/></g><path d="M218.3 385a140 140 0 0 0 35.2 1.9c5.6-.3 11.8-.6 16.3 2.8 1 .7 2 1.7 3.3 1.3 1.7-.6 1.7-3.7 3.5-3.8 1 0 1.6.8 2 1.7a13 13 0 0 0 .8 2.6c.5.8 1.6 1.3 2.3.8 1-1-.2-2.7.3-4s2.5-1.5 4-1 2.7 1.5 4.2 1.3a8.2 8.2 0 0 0 2.8-1.4c2.6-1.6 6-1.7 9-1.8 3.3-.1 6.6-.4 10-.4z" class="F"/><path d="M292.8 349.8a2.2 2.2 0 0 1-.5.2 11.7 11.7 0 0 0-1.4.5 22 22 0 0 0-4.9 2.8l-6.8 5a15.6 15.6 0 0 1-4.6 1.9 26.2 26.2 0 0 1-5.3.4 20 20 0 0 0-9.6 3l-7.3 4.2a26.2 26.2 0 0 0-4.3 3.6l-1.4 1.5s.1-.2.3-.4a14 14 0 0 1 1-1.2 23.8 23.8 0 0 1 4.3-3.7 78 78 0 0 1 7.2-4.3 33.1 33.1 0 0 1 4.5-2.1 15.5 15.5 0 0 1 5.3-.9 26.2 26.2 0 0 0 5.3-.4 15.8 15.8 0 0 0 4.5-1.8c2.7-1.6 5-3.5 7-4.8a20.6 20.6 0 0 1 5-2.6 8.7 8.7 0 0 1 1.5-.4 2 2 0 0 1 .5-.1zm-23.8 8a13 13 0 0 1-2.9-.4 43.6 43.6 0 0 1-6.8-2.1 42.8 42.8 0 0 1-6.3-3.2 12.4 12.4 0 0 1-2.4-1.7 25.5 25.5 0 0 1 2.6 1.4 59.8 59.8 0 0 0 13 5.2 21 21 0 0 1 2.8.8z" class="B"/><path d="M284 325c.8-.4 23.2-7.6 23.2-7.6l-21.5 12z" class="C"/><g class="B"><path d="M281.8 322.6a7.6 7.6 0 0 0-7.6 7.6h15.2a7.6 7.6 0 0 0-7.6-7.6zM205.4 394a2798 2798 0 0 1-.3-54.5l.3-54.6a2799 2799 0 0 1 .3 54.6l-.3 54.5zm118.8 0a2798 2798 0 0 1-.3-54.5l.3-54.6a2799 2799 0 0 1 .3 54.6l-.3 54.5z"/><circle cx="200.4" cy="298.6" r="1.2"/><circle cx="200.4" cy="320.5" r="1.2"/><circle cx="200.4" cy="342.4" r="1.2"/><circle cx="200.4" cy="364.3" r="1.2"/><circle cx="200.4" cy="386.2" r="1.2"/><circle cx="330.3" cy="298.6" r="1.2"/><circle cx="330.3" cy="320.5" r="1.2"/><circle cx="330.3" cy="342.4" r="1.2"/><circle cx="330.3" cy="364.3" r="1.2"/><circle cx="330.3" cy="386.2" r="1.2"/></g><path d="M234.3 272.3h51v12h-51z" class="E"/><g class="B"><use xlink:href="#H"/><use xlink:href="#I"/><use xlink:href="#J"/><use xlink:href="#H" x="15.7"/><use xlink:href="#I" x="15.8"/><use xlink:href="#J" x="15.7"/><use xlink:href="#H" x="31.5"/><use xlink:href="#I" x="31.5"/><use xlink:href="#J" x="31.5"/></g><path d="M345.7 310.4l3.6 18.4a26.7 26.7 0 0 1-3.6 0v-18.4" class="F"/><path d="M192.2 296c.1 0 0 18.7-.3 41.7l-1 41.7a1590 1590 0 0 1 .3-41.7 1653 1653 0 0 1 .9-41.7zm21.8 86a406 406 0 0 1-.3-20.8l.3-20.8a406 406 0 0 1 .3 20.8L214 382zm98-94.3c0 .1-23 .3-51.2.3s-51.2-.1-51.2-.3 23-.3 51.2-.3l51.2.3z" class="G"/><path d="M462.6 475.2c0 .1-95.2.3-212.6.3s-212.6-.1-212.6-.3 95.2-.3 212.6-.3l212.6.3z" class="B"/><defs ><path id="B" d="M251 452.6a437 437 0 0 1-21.2.3c-11.7 0-21.2-.1-21.2-.3a437 437 0 0 1 21.2-.3l21.2.3z"/><path id="C" d="M251 445.4a422 422 0 0 1-21.2.3c-11.7 0-21.2-.1-21.2-.3s9.5-.3 21.2-.3l21.2.3z"/><path id="D" d="M63 454.3V450c0-1 1-1.8 2-1.8l17.6.3-.1 8-17.6-.3c-.5 0-1-.2-1.3-.6s-.5-.8-.5-1.3z"/><path id="E" d="M237 273s-10.7-14.5-35.5-12.4c0 0 25.3-19.4 10.4-39.3 0 0 32 9.4 32.3-30.4 0 0 5.8 37 36 26.5 0 0 2 29.4 23 24-10 10-20 18.6-18 31.3"/><path id="F" d="M237 273s-.2-17-20.2-15.2c0 0 18.5-10.7 6.6-26.7 0 0 25.6 7.6 26-24.4 0 0 4.7 29.7 28.8 21.3 0 0-3 21.5 13.8 17.2a30 30 0 0 0-9.8 27.2"/><path id="G" d="M305.3 344.2c-.1.1-.6-.4-1.3-1s-1.3-.7-1.3-1 .8-.1 1.6.4 1 1.2 1 1.3z"/><path id="H" d="M238 284.3a32.1 32.1 0 0 1-.3-5.8 32 32 0 0 1 .3-5.8 33.1 33.1 0 0 1 .3 5.8 33.3 33.3 0 0 1-.3 5.8z"/><path id="I" d="M243.2 284.3a33.3 33.3 0 0 1-.3-5.8 33.1 33.1 0 0 1 .3-5.8 32 32 0 0 1 .3 5.8 32.1 32.1 0 0 1-.3 5.8z"/><path id="J" d="M248.5 284.3a33.3 33.3 0 0 1-.3-5.8 33.1 33.1 0 0 1 .3-5.8 33.1 33.1 0 0 1 .3 5.8 33.3 33.3 0 0 1-.3 5.8z"/></defs></svg>