<svg xmlns="http://www.w3.org/2000/svg" xmlns:xlink="http://www.w3.org/1999/xlink" viewBox="0 0 750 500" xmlns:v="https://vecta.io/nano"><style><![CDATA[.B{fill:#263238}.C{fill:#ffc727}.D{fill:#ebebeb}.E{fill:#fff}.F{fill:#455a64}.G{fill:#d3766a}.H{fill:#c7c7c7}.I{fill:#ffc4c0}.J{fill:#774442}.K{fill:#dbdbdb}.L{fill:#ff99ba}]]></style><g class="D"><path d="M208.4 260.7c-1-11.2-9-22.5-22.5-22.5s-21.4 11.2-22.5 22.5c-1.7 17.4 10 33 22.5 47.5 12.5-14.4 24.2-30 22.5-47.5zM186 273.2a12.3 12.3 0 1 1 12.3-12.3 12.3 12.3 0 0 1-12.3 12.3zm395 5.3l8.3 20-8.2 3.4-8.3-20-13.7 10.6V236l39.4 39.8-17.4 2.6zm-22.3-54.2h1v5.7h-1zm-8.7 4l.7-.7 4 4-.7.7zm-3.4 8h5.7v1h-5.7zm3.4 9l4-4 .7.7-4 4zm16-9h5.7v1H566zm-2.3-4.7l4-4 .7.7-4 4z"/><path d="M285.8 328.8c.6 2.5.6 2.5-.8 4.5l-5 7.4c-.8 1.2-1.8 2-2 3.5l-.8 11c-.1 2.4-2.7 5-4 6.8-.6.8-1 2.2-2 2.3s-3-.3-4 .3l-7.2 5c-.5.3-.5 4-.6 4.6-.1.8.1 2-.4 2.7l-11.5 14.7c-.4.6-6.2-2-7-2.2-.5 2 2.8 2.2 3 4 .2 1 .8 2.4.7 3.3a8.6 8.6 0 0 1-1.7 2.4c-1.2 1.8-2.8 1.8-4.7 2.3a8.3 8.3 0 0 1-4.7.1c.4 1.2.7 1.7.2 3-.2.7.1 2-.3 2.2-2 1.4-3 .8-5-.2a14.4 14.4 0 0 0-.1 3.3c.2.7 1.3 2 1 2.6l-1.8 4c-.6 1.3-.8 1-2.2 1.5-1 .3-1.4 1.3-2 2.4-.4.7 1 2 1.4 2.6.6.7 2.3.1 2 1.3a5.9 5.9 0 0 1-1.3 2.6 8.8 8.8 0 0 0-2 2.7c-.5 1.6-1 1.6-2.2 2.4s.2 5 .4 6.4c.1.6.1 2 .5 2.2l3 2.6c1.8 1.5 3 1.3 5.2 1.3l-6.2 2.8c-1.6.8-2 .3-3.6-.5l-7.3-3.5c-1.3-.6-1.4-2-2-3.4-1.4-3.2-3.6-6.4-3.2-10l3.6-31.6q1.8-9.6 3.6-19.2 1-6 2.2-11.7a37.1 37.1 0 0 0 1-5.2 27.2 27.2 0 0 0-.6-4.5c-.1-1 0-3.2-.5-4s-2.2-1.6-3-2c-1.5-1-3-2-4.5-3s-2-2-3-4l-10-19c-1-1.8.7-5 1-6.8.2-1 .3-3 1-3.6l2.6-3.4c2-2.5 3.6-4 3-7.4-.1-.8-.6-1.2 0-1.8.1-.1-.2-1.2-.1-1.6.2-1-2-2-2-3 .3-1.3.3-1-.8-1.7-.7-.5-.7-.4-1.5 0a6.3 6.3 0 0 0-1.5 1.2c-.3.2.5 1.2.7 1.4-1.5.6-1.4.8-2-.8-.3 1-1.8-.6-2.7-.8-.4-.1-.7.4-1 .2l-1.4-1c-1-.7-2.8-1.6-3.4-2.6-.6-1-.3-2.2-1-3-1.8-2-3-4-5.3-4.6-2-.5-5-.6-6.6-2.2l-4-4c-1-1-2 0-3.2.4-2.3.7-4.8-1-7-2l-5.4-2.2c-.6-.2-1.6-.4-2-1l-3.5-3.6c-1.2-1.2-.4-1.8 0-3.3.3-1-1.6-3-2-3.8a10.3 10.3 0 0 0-1.9-2.2l-3.8-3.6c-.3-.2.1-1 .2-1.4s-.6-1-.8-1.3a16.7 16.7 0 0 0-2.8-3.1c-1-.7-2-1.2-2.3-2.4-.2-.7-.7-4-1.3-4.3l-3.6-1.6c.4 1.3.7 4 1.5 5a16.4 16.4 0 0 1 3.1 4.6 4.4 4.4 0 0 0 1.6 2.1 5.2 5.2 0 0 1 1.1 2.3 8.3 8.3 0 0 1 .8 2.6c.1 1.4.7.4 1 .7s1.4 1.2 1.4 2c-.2 1-1 1.2-1.4.5a11.4 11.4 0 0 0-3.7-3.5c-.4-.3-.2-2-.3-2.6-.1-.8-1.2-1.3-1.7-1.8s-1-.2-1.6-.7l-2-1.7c.8-.1 2.6-.2 1.6-1.8a6 6 0 0 0-2.7-2.7c-1-.5-1-2-1.5-3l-1.8-4.8a7.7 7.7 0 0 0-4.7-3.8c-1.3-.3-1.8-.2-2.4-1.4a1 1 0 0 1-.1-.2l-2-4.4c-1-2.2-3-3.5-3.6-5.8a21.7 21.7 0 0 1-.7-8.3l.4-8c.2-2.7-.5-4.2-1.3-6.7a35.5 35.5 0 0 1 4.4 1.4c.1-2.2.2-2.5-1.3-4a18.3 18.3 0 0 0-3.3-2.8c-1-.8-2.3-.8-3.5-1.3-2-1-2.2-1-3-3-1-2.4-4.6-3.7-4.3-6.3.2-2.5 0-2.2-2-3.5-.3-.2-1.5 2.4-2.3 1.2-.6-1-1.6-3.4-2.6-3.8a4.8 4.8 0 0 1-2.5-2.3c-1-1.3-1.6-3-2.7-4a22.4 22.4 0 0 0-3.2-2.2 30 30 0 0 0-7.4-3.6c-1-.4-2.4.5-3.5.3s-2.5-1.5-3.5-2.2c-1.4-1-1.8-1.2-3.4-1s-2 .5-1.6 2.3c.4 1.5-5.3 3-6.5 3.4a.9.9 0 0 1 .6-1.3c-1-.3-.2-3 .4-3.4a6.1 6.1 0 0 1 3.9-.8l-1-1c.4-.3.8-.6 1.3-1a11.2 11.2 0 0 0-5.7 2.6c-1.8 1.4-2.6 3-3.8 5 .6.2 1.2.3 1.8.4a25.5 25.5 0 0 1-5.8 5.4c-1 .8-4.8 1.8-5 3.4s-4.8 2.4-6.2 2.8a10.6 10.6 0 0 1-1.7.2c-.7.1-.3.5-1 .8a3.5 3.5 0 0 1-3.2.7c1-1 2.3-1.4 3.6-2.2 1-.6 3.8-3.3 4.7-1.8.6-1 3-3.6 4-2.7-.4-1.2 1.7-2 2-3.2a2.9 2.9 0 0 1 .9-2.1c.5-.5 1-.7.5-1.4-1.5 1-3.2 2.2-4.8 1-.5-.4-1.6-1.6-2.2-1.3l-2.4 1-.8-5c-.4.2-2.5 1.8-2.8 1.5-.8-.7-2.3-1.4-2.8-2.3s-.6-3-1-4c-.2-1 .5-1.7 1-2.4 1-1.6.8-2 2.5-1.8 1.4.1 1.6-1 2.8-1.5s2.2.5 2.8-1c.5-1.2-.2-1.4-1-2.3l1-.7c-.5-1.6-1.8-.2-2.7.3-1 .6-1.3-.1-2.5 0-2.3.3-4.8.7-6-1.7.3-.1.6-.4.8-.4-1-.4-2.6-.6-3.4-1.7 1.6-1 2.8-1.6 4.6-1.6-.1-.2-.2-.3-.4-.5a7.5 7.5 0 0 1 3.7-1.1c-.1 1.8 1.3 1.5 2.7 2 1.2.3 1.6-.2 2.7-1L42 147c.2-.1.4-.2.6-.2-.5-.4-.7-1-.1-1.4a14.9 14.9 0 0 1-3.6-.7c-1-.3-1-2-2-2.4-.7-.3-3.5-1-4-1.8-.1-.3.5-1.7.6-2s.7-.2 1-.2c1-.1 2.7.3 3.4-.7a18.2 18.2 0 0 1 2.5-3.2 12.3 12.3 0 0 1 6.3-2.9c1.5-.2 2.6-.2 3.8-1.2 1.6-1.3 1.5-1.3 3.3-.4 1.6.8 6-.3 6.8 1.6.5 1.4 5.2 1.3 6.7 1.5l7 1 10.3 1.8c2.2.4 4.4 1.7 6.5 2.7.4.2 2.8-2.7 3-3 .7-.6 2 1.3 2.6 1 1.2-.5 6.7-3.8 7.5-2.6l-6 3c1.5 1 6.6-3.3 7-1.5.6-.7 1.2-1.4 1.8-2s-.7-.7.2-1.4a64.1 64.1 0 0 0 4.7 5 5.7 5.7 0 0 1 2-3.3c.7.8-.6 1 .5 1.7.4.2-.2 1-.4 1.4.7-.2 2-.2 2.4-.6.2-.2-.2-1 .1-1l1-.2c1.3-.2 3 1 4.3 1.6 2.5 1 5.4 1.5 8 2.2l-.2-.6c1.7.1 2.6 1 4 1.8 1 .7-2.2 2-2.5 2a9.5 9.5 0 0 0 3.5.9l5.8-.5c1-.1 2.5-.3 3 .6l2.7 4-.4-1.7c-.1-.3.3-.7.2-1-.2-1.4-.8-1-.1-2.3.5-1 4.4-1 3.6-2.4a12.2 12.2 0 0 1-5.3 1.3c.5-1.7 1.2-1.5 2.7-2s1.8-.7 3.3.2c.4.2.7 1.2 1 1.7.3.6.7.5 1.4.7a23 23 0 0 1 3.5 1.1c1 .4 6.5 1 6.7.2.5-1.6.6-2.3 2.3-2.3a15.5 15.5 0 0 1 3.4.9c-.2.5-.8 2-.7 2.6s1.7 1 2 1.4c-.6-1.8-1.2-3.3 1-3.7 1-.2 1.4-1 2-1.6.5-.5.2-1 0-1.7l-1.7.8c-.2-1.8 1-2 2.3-2-.1-1.4-1.4-.4-2.2-.7-.7-.3-3-.7-3.2-1.4a8.6 8.6 0 0 1-.6-4.1c0-1.6.7-1.8 2-1.3.2-.8-.3-1-1-1 1.2-.8 1.3-.7 1.3-2.2a5.5 5.5 0 0 0-.7-3c-.4-.8-.1-2-.1-3 .1-.8 1.3-.4 2-.3-2-2.4 1.6-1.7 3-1.7a17 17 0 0 1 5.4.8c-.8 1.2-2 3.8-3 4.5s-3.6.1-4.7.1c3.6.5-.5 2.8-.3 4 1.8-.3 2.8 1.3 3.2 3 .2 1 2 2.4 2.7 3.3l-2.6 1.8c1 .3 1.6 1 2.4.4s1.5.1 2.4.5l-1.2 1c.8.7 1.3.7 1 2s-.5 1.4.6 2a4.6 4.6 0 0 0 1.1-2.4c0-.4.4-2 1-1.6.5.3 2 1 2.2 1.5.2 1 .8 2-.4 2.5 0-.2-.1-.5-.1-.7-2.4 1.4 3 6.3 3.3 3.6.1-.7-.1-1.2.5-1.7.3-.2 1-.7 1-1 0-2 0-1.8 1.7-2.6-.7-1-1.3-1.6-1-2.8s1-1 2-.7c.7.1 2.7 0 3.2.6a3.6 3.6 0 0 0 2.6 1.6c-.6 1 .3 1.7-.3 2.4-.4.5-1.7.3-2.2.3a9 9 0 0 0 1.7 2.8c1 .8 1.3 1.5.3 2.7-.6.8-2.2 1.3-3 1.8s-1.4-.6-2-1.2l1 2.3-1.6-.8a4.8 4.8 0 0 0 .2.7l-1.6-.4c-.4-.1-.1-1-.4-1-.8 0-2-.3-2.4.7.5.3 1 .6 1.5 1a6.4 6.4 0 0 1-1.8 2.3c-1.2.7-1.6.1-3-.6-2-1-3.6-1-5.7-1l4.4 2.2c1 .6 3 .4 4 .5-.5.8-1.3 3-2 3.3a3.8 3.8 0 0 1-1.6.7c-.6-.1-1.2-.3-1.7.1-1.6 1.2-1.8 1.2-3.6.7-1.2-.4-2.3-.7-3.5-1l2.3 1c-.2.2-.3.4-.5.5a2.6 2.6 0 0 1 2.6.3c.6.3 1.5 1.2.5 1.7a4.6 4.6 0 0 1-2.7.4c-.4 0-1 1.3-1.2 1.6-1 1.5-2.4 3-2.8 4.8l-1.3 6c.8.2 2.6.2 3.2.8s1 3 1.4 4c.6 1.6 1 1 2.5.7a5 5 0 0 1 2.5.7 22.8 22.8 0 0 1 6.2 3.1c.6.5 2 1.8 2.7 2l3.5.4c.4.1 2.7 0 2.7.5l-.2 5c-.1 2.3 2.2 4 3.5 5.6s4-1.4 3.8-2.7l-.7-4.4c-.1-.8-1-1.8-1.5-2.4 1.4-1 4.2-2 5.2-3.4s1-4.8 0-6a20.3 20.3 0 0 1-2.2-2.3c-1-1.3-1.2-1.2-.1-2.2s1.3-1 1-2.6c-.2-1-.8-2-.5-3a4.3 4.3 0 0 0 .1-3.6c-.3-1 .3-1.4 1.4-1.5 2-.2 3.7 1.4 5.6.6 1.2-.6 1.5.1 2.6 1 .5.4 2 1 2.2 1.7.3 1 1 2 2 1.7a3.9 3.9 0 0 1 2.5.7c-.5 1-.8 1-.6 2a4.7 4.7 0 0 1 .1 2.7c.3-.1.5.1.8 0-.5.6-1.8 1.5-1 2.2 1.2-3.7 5.7 4.4 6.6-.6.2.2.6.3.8.5.5-1 1.3-2 1-3.3-.2-.8 1-2.5 2-2.3l-.3 1.3c2 .1 3.2 4 4 5.6.5 1 2 2.7 2 3.7.1.6-1 1.3-.8 2 0 .3 1 .8 1.2 1a7.2 7.2 0 0 1 1.6 1.3c.3.6-.2 1.2.6 1.3a5.2 5.2 0 0 1 3.3.9c.8.6 2.5 1.4.7 1.6a27.3 27.3 0 0 0-3.1.9c.6.2 1.4-.2 2-.4-.5.8-2 1-2.7 1s-.6 1.8-.1 1.3a2.2 2.2 0 0 1 1.2-.8c.5-.2.3-.4.6-.6a5.4 5.4 0 0 1 2.4-.7 1.3 1.3 0 0 1-.9-.5c.6 0 1.7 0 2 .7.3 1-.7.8-.1 1.5.7-1.2 1.5-.6 2.5-.2.8.3.2 1.8 0 2.3-.3 1 .7 1.2 0 2.3a6.3 6.3 0 0 1-2.3 1.4c-.8.2-1.6 0-2.5.3s-1.3.8-2 1.6c-1.4 1.5-2.6 1.8-4.6 1.5a35.8 35.8 0 0 0-6-.2c-1.8.1-3.7-.5-4.2 2-.1.6-2 .8-2.4 1.2a14.7 14.7 0 0 0-2.2 2.3c-1.2 1.3-2 3-3.3 4 2.5-1.2 3.8-3.8 6.2-5 1.7-.8 6.3-3.4 7.5-.4-.2-.1-.4-.2-.7-.2 1.3.8-.4 1.5-1 2-.8.7-1.4-.5-2.4.1.4.1 1.3 1 1.3 1a2.6 2.6 0 0 1 1.7-.1 2.7 2.7 0 0 1-1.1 1.7c.3-.1.6 0 1 0-.5 1.3 1 2.3 2 2.6a1.9 1.9 0 0 0-.3.2c1.4.7 2.8 1.3 4 .4 0 .2.1.4.1.7a2.1 2.1 0 0 0 .9-.2c-1-1 .8-2.7 1.4-3.6 1 .4.5 1.4.2 2.3.8-.6 2 .6 1.3 1a4.8 4.8 0 0 1-2.8.8c.2.2.3.5.6.7l-3.5 1.4a3.3 3.3 0 0 0-1.3.6c-.5.4-.6-.6-1-.2-.8.7-1.5 2-2.4 2.7-.6.6-1-.2-1.5-.3-1.2-1.7 1.7-3.3 2.8-4 .7-.5.3.1.7.4.7.6 1-.2 1.7-.8-.8 0-1.8-.3-2.4.2a2.6 2.6 0 0 1 .7-1.2c-1-.2-2 1-2.8 1.4-.5.3-.5-.4-1 .2-.3.3-1 .2-1.3.2.6 2-2.6 1.2-3 2a3.6 3.6 0 0 0-.4-.4c-.5 1-1 1-2 1.5-.6.3-.7.7-1 1.4-.4 1-2.2 4.3.3 4l-.2-.5a2.5 2.5 0 0 1 .5.6c-.7.5-1.6.1-2.4-.1-.4-.1-.3 1-.8 1a7.2 7.2 0 0 0-4.2 1.3c1-.1 2-.7 3-1a1.9 1.9 0 0 1-.4.3c.3 0 .6.1 1 .1a5.2 5.2 0 0 1-2.2.8c-.7.1-2-.2-2.3.5 1.7.2-.8 3.4-1.4 4 .4-.7-.8-1.2-1-2 0 1 1.3 2.3 1 3.3a20.4 20.4 0 0 0-1.5 3h-.2a4.7 4.7 0 0 1 .6-1.9c-.5-.3-.2-1.2-1-1a6.8 6.8 0 0 1 .4-2c.1-.1.6-1.4 0-1-1.4 1-1 1.7-.6 3.5a3.9 3.9 0 0 0-1.4-.7c.4.6 1.3.7 1.5 1.2s-.3 1.6-.2 2c.2.7 1.2.3 1 1.5-.2 1-.8 1-1.6 1 .7 0 2-.2 1.8.8-.1.5-1.6.5-2 .6.2.1.4.3.6.5-.3.1-.5.3-1 .3.3 1 1 .1 1.4.4l-1.2.7c-.4.2-.8-.3-1-.2-.5.3-1 1.4-1.3 2-.2.4-1 .2-1.6.8a6 6 0 0 1-1.3 1.5c-2 1.2-2.3 1.7-3.4 3.8a5.3 5.3 0 0 0 .3 3.8 38 38 0 0 1 1.9 5.3c.3 1 .6 3.5-.2 4.2-.6.5-1 1.2-1.6.4-.2-.4-1.3-1.4-1.3-1.5a17.6 17.6 0 0 0-.9-2.1c-.3-.8-.7-1.2-.5-2l-.4.4c-.3-1.2.7-2.8-.4-3.6s-1.6-2-2.8-1.7c-.7.2-1.3.7-2 .3a8.8 8.8 0 0 0-1.8-1.2c-1-.3-2.8 1-3.2-.7-.2 1.6-3.7.4-4.7 1.3.7.1 3.4.4 1.4 1.4.2.1 1.3.5 1.3.7.2.6-.3.8-.7.7.3-.7-.8-1-1.3-1.3.1.5-.1.7-.1 1-.5-1-1 0-1.6-.5-.8-.6-1.2-1.2-2-1a.9.9 0 0 1-.4 0 5.8 5.8 0 0 1-1.4-.5c-1-.4-2.5.7-3.5 1-1.5.6-5.2 3.4-5.2 5.6 0 .7 1 1.3 1 2a6.1 6.1 0 0 1-.5 1.7 13.9 13.9 0 0 0-.9 3.7 13.5 13.5 0 0 0 2.2 8.2c1 1.6 1.4 2.7 3 3.2.4.1 1 1 1.2 1l2-.8a6.8 6.8 0 0 1 1.9-.4c.5 0 1 .6 1.2.5a3.7 3.7 0 0 0 .9-.4c.2-.1-.2-.6 0-.8a2.9 2.9 0 0 0 1.1-1.6c.4-1.4.3-3 1.7-3.5a11.6 11.6 0 0 1 3.2-.6c.8.1 3-.4 2.4 1.4-.3.7-1.2 2.7-1.7 2.8.2.1.1.4.7.4a5.7 5.7 0 0 1-.6.6l.1.1.3-.2a14.2 14.2 0 0 0-.7 2.5 1.8 1.8 0 0 1-.4-1.5 4.4 4.4 0 0 0-.6 1c1 .1-.2 2.2.2 3s-.8 2-1.3 2.4c1.5.6 3 .1 4.7.4.7.1 1-.5 1.8-.4a10 10 0 0 1 2.4.3c1.4.6 2.3 1.6 2 3.3l-.5 3.2c-.1.6-.6 1.2-.7 1.8-.4 3 3.2 7.6 5.8 6.5 1.6-.6 2.5-1.3 4.2-.8s2.3 1.4 3.5 2.7c-.1-2 2.4-4.8 3.4-6.5.3-.5 2.2-.8 2.7-1l4-1.5c1.3-.5 3.6.6 4.8 1l9.8 2.3c1.8.4 3.6.4 5 1.7l7.7 7.4c1.6 1.5 5 1.6 7.2 2 2 .5 3.4 3.7 4.7 5.2l3.7 4.8c.3.4 1 1.7 1.4 1.8l15.8 5.7c2.2.8 4.4 3.2 6.4 4.6.4 0 2.8.1 3 .3l1 3.5z"/><path d="M167 119.5l-1.3.8c.3.1.5.4.8.5l-2.6 1.7c1.7 0 2-.3 2.8 1.3.2-.2.6-.2.8-.5l.6 1.3a5.9 5.9 0 0 0-1 .4c2.3.8-1.2 3-2.5 2.6.3 1-1 1.6-1.7 1.4-1-.2-1.4-1.2-2-2-1.3-1.7-3.2-2-4.8-3.4-1-.7.2-1.3 1-1.5s1.4 1.3 2 1.4c1.4.2 1.4-1 1.4-2 0-.5-2-1-2.4-1.2.4-.3 1-1.4 1.4-1.5 1 0 1.6-.4 2.6.1s1.4.2 2.5-.2 1.4.1 2.4.6zm467.6-6.2c-.3-1.2 2-2.5 2.2-.5 1-.8 2-.5 3-.4-.1.3 0 .5-.1.8a3.7 3.7 0 0 1 2.8-.2c.2.1 1.4.2 1.5.5a2.8 2.8 0 0 1-.2 1.4 15.5 15.5 0 0 1-6 .7c-.5-.4-3-1.6-3-2.3zm85.4 35.3c-.6.6-1.7 1.8-2.5 2s-2-.3-2.7-.4c0 1.3.2 1.7-1 2.2-.8.4-.1 1.6.1 2.4a5.1 5.1 0 0 1-3.1-1.3c-.7-.5-2.3.4-2.5-.5-.3-1.3-.1-2.5-1.4-2.6l-4-.3c-.8-.1.5-2.5-1.2-2.2-1 .2-.5 2.5-.6 3.4-.1 1.4-4.6 1.8-6 2.2 1 .8 2.3 1 2.4 2.6.1 1.7.8 2.4 1.7 3.7.1.1-.7 1-1 1.2-.4.1-1.4-.3-1.7-.3-.6-.2-2-.8-2.8-.4l-7.5 4.6c-2 1.2-4 1.8-5 4-1.8-1.7-2-2-4.2-1.6s-2.3.4-3.6 2.3l-.1-2c-.7.3-2 1.3-2.6 1.2-1-.1-1.8-.7-2.3.3l-3.8 6c.7.2 3 .5 2.8 1.3-.5 2-.6 2 .6 3.6-2 1-3.7 1.7-2.7 4.3.2.4-1.5 1-2 1.2-1 .3-1.8.2-2 1.4-.1 1.3.3 2.5-1 2.8-1.6.4-1.6.2-2 2s-2.4 3.5-3.5 4.8c-1.3-6-5.6-17.5 1.6-21 2-1 3.3-1.3 4.5-3.3s2.4-2.8 4.2-4c1.2-1 2.8-1.4 3.2-3l1-3.6c.1-.3 1.7-.4 2-.5a7.9 7.9 0 0 0-3-.3c-1 .1-1.4 1.5-2 2.3-1 1.6-3 2.7-4.5 4-.7-1.8-.5-2.5-.1-4.4a5 5 0 0 1-3.3 1.1c-1.5 0-2-.1-3 1a40.9 40.9 0 0 0-5.1 5.2c.5.4 1.8 1 1.4 1.7-.2.3-2 .4-2.2.4l-5.2.6 2-1.3-5-1c-.5-.1-1.6 1-2 1.2s-1.2 0-1.8-.1a21.6 21.6 0 0 0-4.5-.2c-1 0-3.8-.4-4.5.3L621 179a51.5 51.5 0 0 1-7.5 6c.3 1 1 .8 1.7 1 1 .1 1-.1 1.5 1 .1.3.4 1.7.7 1.8 2 .2 2.2.5 3-1.4.8-1.6 5.6 2.2 5.3 3.5-.5 3-1.3 6.2-2 9.3s-1.7 4.5-3.3 7a35.9 35.9 0 0 1-4.7 6.5l-3.4 3.4a6.4 6.4 0 0 1-.5.5c-.7.7-2.2.7-3 1-.5.1-1-1.2-1.3-1.3s-1.4.8-1.7 1c-1.5 1-1.5 1.3-2 3a8.9 8.9 0 0 1-.5 1.2c-.1.1-.1.3-.2.4a4.7 4.7 0 0 1-.6.9 10.1 10.1 0 0 1-.9 1.1l-2.8 2.6a13.4 13.4 0 0 1 2.4 2.5h0a4.9 4.9 0 0 1 .6.9 3.3 3.3 0 0 1 .3.7 2.5 2.5 0 0 1 .2.6 2.6 2.6 0 0 1 .2.7 6 6 0 0 1 0 1.9c-.3 2.2 0 2.7-1.8 3.6a6.7 6.7 0 0 1-3.9.7l.5-3.7c.2-1.4-1-1.3 0-2.6a1.2 1.2 0 0 0 .3-1.2.2.2 0 0 0-.1-.2.7.7 0 0 0-.2-.3.8.8 0 0 0-.6-.2c-1 .1-2.4.7-2.7-.7-.1-.7.8-2.5 1-3.3a7.4 7.4 0 0 0-1.7-1.2 2.2 2.2 0 0 0-.6-.3c-.7 0-2 1.3-2.8 1.7l-2.8 1c-.7-1.8 1-3.2 2-4.3-1.2-1-1.2-1.2-2.5-.6a10.3 10.3 0 0 0-2.2 1.6 7.4 7.4 0 0 1-2.6 1.7c-.2.1-2.2.8-1.7 1.4a17.9 17.9 0 0 1 2.1 2.6c.8 1.3.7 1.2 2 .5 2-1 3.5-.2 5.5.4L583 237c1 .8 2 1.5 2.7 2.7l2 4.7-3.5-.6 3.7 2.7-2.7 2 3.4 1c-1.4 2.6-2.6 5.8-4.4 8-2 2.4-3.4 5-6 6.3-3 1.2-6 2.5-9 3.6l-2.8 1c-.8.3-.6.3-.4 1.2.1.6.1 1.8-1 1.3-.3-.2-.6-1.5-.7-2 .3-.1.6-.3 1-.4-1-.8-3-1.4-4-.5-1 .8-3.4 2-3.8 3.3-.1.4-1 2-.7 2.4l1.8 2.8a44.4 44.4 0 0 0 2.8 3.8c1.2 1.6 2 2 2 4 0 1.2.7 4-.2 5a92 92 0 0 1-7.9 6.7c-1-1 .3-2.3-.3-3l-2.6-3c-1.6-1.7-2.8-2.6-5-2.7l.2-1.6c-2 .1-1.7.4-2 2.6a15 15 0 0 1-1.2 3.9 1.9 1.9 0 0 0-.1.9c0 .3.1.6.1.8.1 1 .1 1 1 1 .5 0 1.2 3.3 1.4 4 .3 1 2.3 2 3 2.5a8.3 8.3 0 0 1 2.3 2.6c.5 1.2 0 3 .3 4.2a33 33 0 0 0 1.5 3.6c-1.8-.3-3-1.4-4.3-2.6s-1.5-1.7-2-3.4c-.4-1.2-.7-4-1.6-5l-3.8-4c-.4-.4-.1-2.3.1-3.7a1.9 1.9 0 0 1 .1-.4h0c0-.3.1-.6.1-.8a35.8 35.8 0 0 0-.3-5.4c-.2-3.4-1.3-6.2-2.3-9.5-.7.8-1.4 1.6-2 2.5-.8 1-.8 1-2 .7s-1.2-.2-1-1.7c.1-.6.6-2.3.4-3-1-2-1.4-4-3-5.3-1.5-1.2-2-3.3-2.8-5-.7.5-1.8 1.7-2.7 1.8l-4.7.6c-.2 0-1.2 0-1.4.2s.2 1.4-.1 1.7l-8.8 9c-.7.8-2.2 1-3 1.6-1.2.6-.7 1.4-.7 2.8 0 1.2.4 3 .1 4s-1 2.7-1 3.8a4.7 4.7 0 0 0 .2.8l.2 1a5.4 5.4 0 0 0 .3.7 3.7 3.7 0 0 0 .3.6 8.7 8.7 0 0 0 .7.9 13.3 13.3 0 0 1 2 3.7c1 2.5-3.2 4.6-3.5 1.3a27.4 27.4 0 0 1-.1-4.3c.1-1.4-.5-1.7-1.4-2.6v-.1c-.1 1 .1 2-.8 2.6l-2.6 1.8a188 188 0 0 1-6.7-14.4 24.8 24.8 0 0 1-1.8-4.1 19.8 19.8 0 0 1-.1-3.3l-.3-9.3-2 2.7c-.6 1-.7.8-1.8.7-1.2 0-2.6-2.4-3.5-3.3 1-.2 2.7-.1 2.8-1.3a5.2 5.2 0 0 1-1.5.2c-1.3-.3-2.7-1.5-3.8-2.2-.8-.5-1.3-2.5-1.7-3.4s-7 .5-8 .7c-2.4.3-5-.7-7.3-1.2-1-.2-2.2-.1-2.8-1.2-1-2-.7-2.5-2.6-1.8-1.6.6-2.6.4-4.2.1-1-.2-1.7-1.4-2.6-2-1.7-.8-2-1-2.7-2.8-.6-1.2-.8-2.7-2-3-2.2-.3-2.2-.2-3.7 1.6-.5.6 1.3 2.8 1.7 3.5 1.4 2.3 2.5 4.7 3.8 7l.5-3.2c1 1.6.7 3.2.8 5 1.6-.1 4.2.2 5.7-.7s2.7-3 4-4.4c.1 1.4-.2 3.6 1 4.3a12.8 12.8 0 0 0 2 1.4c.6.3 1.4 0 1.7.7.3.5.7 2 1.3 2 1 .2.6 1 .5 2s-2 2.7-2.7 3.4c-.1-.3-.3-.6-.3-1a6.6 6.6 0 0 0-.8 3.1c0 1.2-.4 1-1.4 1.5l-3 1.4c-.6.3-.6 2-1 2.3s-1.2-.4-1.7-.2l-2.2 1c-1 .5-1 1.8-1.8 2.2l-5 1.8c-.5.2-.6.4-1 1s-1 .6-1.6.7l-4.3 1c-1 .3-1.3 1.5-2.4 1.5-1.8 0-2 .4-2.3-1.4s-.7-3.7-1-5.6c-.6-3-2-4.8-3.4-7.4-1-1.5-1-1.7-2.6-2.3-1-.3-1-3-1-4a16 16 0 0 0-1.8-4c-.4-.8-1.3-1-1.7-2l-3-5.3c-.5-1-1-2.4-2-2 .1-1 .3-2.2.4-3.3l-1.3 4a17.9 17.9 0 0 1-3.2-4.9c-1 1.4.8 3.6 1.4 4.8l3.6 7.4c.7 1.5.5 3.2 1.5 4.4.5.5 1.6 1.3 1.8 2l.6 3.8c.1.7 0 2 .6 2.7a12.3 12.3 0 0 1 2.2 2.2c1 1.6 1.5 4 2.2 6 .2.6 2 .5 2.4 1a64 64 0 0 1 2 2.4c1 1.3 3.4 2.7 1.7 4.5 1.2.3 2.5 2.8 3.4 2.6l9.8-2.6c.6-.2 2.4-1 2.8 0 .3.5-.8 3.7-1 4.3-.6 2.6-2.5 5-3.7 7.4-1 2-2 4-3.4 5.6-4 4.2-8.5 8-11.5 13-.7 1-5 6.8-4.2 8 1.2 1.8 1.2 2 1 4.3-.1 2 0 2 1 3.7 1.8 2.4 1.2 6 1.3 9a6.7 6.7 0 0 1-3.5 5.7c-1 .5-3 1-3.7 1.8l-3 3.5c-1 1-2 1.5-1.4 2.8.4 1 1.7 3 1.6 4s.1 3.7-.5 4.6-3 1.4-3.8 1.8c-1.4.7-1 1.3-1.2 3-.1 1 .1 3.4-.4 4-1.6 2.3-3 5-5 7a43.9 43.9 0 0 1-3.4 2.9c-.6.5-1.8 2-2.6 2.3l-12.7 2.7c-.6.1-2-1.6-2.4-2-1.6-1.4-1.5-1.4-1.3-3.7.1-1-1-2.4-1.2-3.2l-2-5c-.4-1-1.6-1.8-2.4-2.5-.5-.5-.5-2.8-.6-3.5l-1-5.8c-.4-2.6-1.7-4.6-3-7q-1-2.3-2.2-4.5c-.3-.7.1-2 .2-2.6.5-3.3.6-6.4 2.2-9.3s.6-5-.1-7.8l-2.2-9.2c-.2-1-1.5-2-2-2.8l-3-4.2c-.6-.8-.1-1.7 0-2.7l.7-5.8c.2-1.6.3-1.7-.7-3-1-1.5-1-1.6-2.7-1.5-1 .1-3 .7-3.7-.2-1-1.2-2-2.5-3-3.7-.4-.5-6.6.5-7.3.8l-4.4 2.2c-1 .6-1.6.3-3 0s-2-.7-3.4-.3l-4.8 1.7c-.7.3-1.6-.7-2.2-1.2l-4.6-3.3c-2-1.4-3-2-4-4L321 284c-.3-.5.7-2.4 1-3 .3-1 1.3-2.6 1-3.6l-1-4.8c-.2-1-1-3-1-4a9.5 9.5 0 0 1 1.2-2.2l5.6-10.2c1.3-2.4 3-3 5-4.5 1.2-.7 1.7-.7 2-2.2q.4-2.7.8-5.4c.3-2 4.5-2.5 5.3-4.6.6-1.4.8-3.4 2.3-3.8.4-.1 1.4 1.8 2.6 1.6.5-.1 1.7-.6 2.2-.4.3.2 1.4 1 1.6.8a29 29 0 0 1 3.4-2 26.9 26.9 0 0 1 7.2-2.2 7.6 7.6 0 0 1 2.2-.2 5.4 5.4 0 0 0 1.8.6c.6 0 1.2-.7 1.8-.8a7.4 7.4 0 0 1 1.6.1c1.6.1 2.7.3 4-.5 1-.6 2 .2 3.3.7-1 2-1 2-.1 3.8.4.8-1.3 2-2 2.7 1 .8 2 2.3 3.2 2.7l6 1.6c1.5.4 1 2 2.6 2.8 1.3.6 2.6.3 3.8 1.2 1.7 1.2 2.6 1.5 3.8-.7.3-.5-.6-1.3-.3-1.8s.7-1.6 1-1.7c2-.6 3-.8 4.8-.3.4.1.1 1 .6 1l2.7.6c1 .2.8.5 1 1.2.2.4 1-.5 1.2-.4l4.3 1.3a3.3 3.3 0 0 0 3-.2c1.7-.8 1.8-1 3.4-.2 2 1 5 .7 6-1.8.6-1.6 3.3-6.3 2.2-8-.7-1 .8-3 .5-3.6s-1 .3-1.3.5-1-.5-1.4-.4-1 1.3-1.5 1.5a7.4 7.4 0 0 1-2 .1c-1.2 0-1.8-1.3-3-1.5-.8-.1-1.4-.6-1.7.3s-.3 1-1.3 1-2.5-1-3.3-1.6c-1.4-.8-4-5-2.3-6.7h-1.5c-.2-1.7 2-2.2 3-2.2a7.7 7.7 0 0 0 4.3-1l-1.4-.7c.3-.8 2-.5 3-.4 1.5.2 1.6-.2 2.7-1a5.3 5.3 0 0 1 2.8-1.2 8.2 8.2 0 0 0 3.4-.1c-.3.5.2 1 .7 1.2.8.4.5-.7 1.3.5.3.4 2.6.7 3.3 1 1.2.5 2-.2 3.2-.1a4.8 4.8 0 0 0 3.5-1.1c1-.6.5-2.3-.1-3-1-1-2-1.2-3-2s-1.8-2.2-3.2-2.3a12.2 12.2 0 0 1-1.4-.8l-1.6-1.2a6.7 6.7 0 0 1 .4-.6l1.5.3c-.5-1.6.6-2 1.8-2a5 5 0 0 1-1.6-1.5h1.5c-.4-1 1-.3 1.4-1s-1-.5-1.3-.4c-1.3.2-2.6.3-3.5 1.4v-.4a5.3 5.3 0 0 0-3 1.6 4.4 4.4 0 0 1 .2-.6c-1.4-.2-.8 1.6-.2 2.3.7 1 2 .4 3 .4-.8 1.5-1.8.4-2.7 1s-2.8 2.2-4 1.4c.6-1.8-.2-1.5-1.6-2.2.7-.4 3.5-1.4 1.6-2a5.7 5.7 0 0 0-1.9 0c-.4 0-1-.6-1.4-1 .8.1 1.8.5 2-.4-.8.4-3-.6-3.5 0s-2 2-2.3 2.7a6.9 6.9 0 0 1-.3 2c-.2.4-1.4.3-1.4.8-.3 1.5-.2 2.7-1.5 3.4s-1 2.2-.3 3.3c.4.7 2.3 1.6 2.2 2-.3 1-2-.3-2.7.3l-3 2.7c-.1-1 .5-1.2 1.2-1.7-.6-.2-1.2-.2-2-.5a14.4 14.4 0 0 0-2.5-.4c-.4-.1-1 .2-1.4.4s.1 1-.1 1c-.8.6-1.3.1-2-.4-.7.8.1 1.6.5 2.4.6 1 .7 1-.2 2 1.2.8 2.5 1 2.3 3-.7-.6-1.2-1.2-2-.3 1 .2 1 .8.3 1.3s-.3 1-.1 1.8c-.8-.2-1.4 0-1.8-1s-.6-.5-1.3 0c-.6-2-1-2.3.6-3.6-1.5 0-1.5-.2-2.4-1.6-.5-.8-1-2-1.6-2.7-1.2-1-.8-1.8-.6-3.4s-.4-1.5-1.5-2.4c-1.5-1.2-3.2-2.8-5-3-.5-.1-1.6-1.5-1.7-2a4 4 0 0 0-1.7-2.7c-.5 1.5-1 .8-1.3-.3s0-.8-1.2-.5-2 .4-1 1.8c.3.5-.6 1.6.2 2.2a10.4 10.4 0 0 1 2.3 1.8c.6.7.5 2 1 2.5s1.3 1.3 2.3 1.3c.7 0 2 0 .8 1 1 .8 6 2.8 4.6 4.5-.5-.2-2-2.2-2.5-1.6a2 2 0 0 0-.9 1.5c-.2.7.3.7.8 1 1.4 1-1 1.4-1 2 .1 1-1.8 2.6-1.7 1a2 2 0 0 0-.7 2.7c.5 1-1.5 1.3-1.7.5-.4-1.4-5-1.2-3.3-3.3.2.3 2.8.5 3.4.4a8.2 8.2 0 0 0 2.4-.6c.6-.4.1-.8.7-1.2.4-.2-.6-3-1-3.2s-1.3-.1-1.2-.7-.6-1-1.2-.7c.1-.7-1.3-1.7-2-1.6-1 .1-1.6-1-2.3-1.6-1.3-1.2-3-2-3.4-3.6s-.4-1.7-1.7-2.4c-.7-.4-1.6-.7-2 0-.4.4-4 3-4.5 3l-3.6-1.2c-.6-.2-1.6 1-2 1.6a.1.1 0 0 0 0 .1c-.1.3.5 2 0 2.7s-2 1-2.8 1.4c-2 1-2.6 2.7-3.8 4.7-.4.6 1.2 1.2.4 2.2-.4.6-1.7 1.6-1.3 2.4-.4.1-1.4.1-1.7.6s-.7 1.5-1 1.5a25.6 25.6 0 0 1-3.8 0c-1 0-1.8 1.4-2.7 1.6s-2.2-1.5-1.2-2.2c-1 .5-1.4-1.2-2.7-.5-1 .6-1.7-.3-2.6.4a8.2 8.2 0 0 0 .3-2.2l-.1-1.2c0-.4-.5.1-.6-.2-.7-1-.2-1.4.1-2.7s1.2-3.2.7-4.4a6.1 6.1 0 0 1 0-3.5c-.7.6-1-.5-1-1.2s1.5-.6 2-.7c-.1-.2-.1-.3-.2-.4 1.2-1 1.8.4 2.8.1a4.9 4.9 0 0 1 3.4 0c1 .4 2-.2 3 .2a6.1 6.1 0 0 0 2.8.3c1.2-.3 1.6-2 1.7-3.4.1-1 0-1.8 0-2.4 0-1.5.2-2-1-2.4-.8-.2-1-1.7-.8-2.2-.7.2-.5-.3-.8-.4s-1.2-.2-1.4-.3c-.6-.5-.8-.8-1.6-.7a1.1 1.1 0 0 1-1.2-.6c.2 0 .4-.2.6-.2a1.3 1.3 0 0 1-.8-1.2 4.9 4.9 0 0 0 2.5-.4c1.5-1 .6.8 1.6.6.3-.1 2.2-.4 2-1l-.2-1c-.1-.3-.2-.5-.3-.7l-.3-.7c.4 0 1-.1 1.3.3a.3.3 0 0 1 0 .2h0a.9.9 0 0 0 .2.4.7.7 0 0 0 .4.2 4.4 4.4 0 0 0 2.6-.4c-.2 0-.5-.2-.7-.2a2.5 2.5 0 0 1 .5-.5 9.1 9.1 0 0 1 1.9-.9c1.2-.6-.1-1.3.5-2.2.2-.4 2-.8 2.6-1a4.3 4.3 0 0 1 2.5-.3c-.4-.1-1.3-.2-1.3-.7 0-.1 1-.2 1-.2s0-.6.2-.8a5 5 0 0 0 1-2.3c.1-.5 1-.4 1.3-.8 1-1.2 2-.5 3.3-1 .2-.1 0-.7.3-.7s.7-.1 1-.2a5.5 5.5 0 0 1 1.6.2c-.2-1 .6-.7 1.3-.8-.4-.1-1.4-1-1-1.4.8-.6.1-.6-.2-1.4s.3-1.4-.5-2-.5-1-.5-1.7c0-1.4.2-3 1.7-3 1 0 2-1.3 3-1.8-.8 1-1 3.5.5 4-1 1.5-2.8 2-2.5 4 .3 1.5 1.7 2.7 3 2l-.6 1.2c1.4.8 2.5-1 3.7-1.3a2.4 2.4 0 0 1 1.7 1.1c.2.8 1 1 1.6 1.3a2 2 0 0 0 .1-.7c-.4 0-.8-.1-1-.1.8-.5 3.8-.6 4.4-1.3a4.3 4.3 0 0 1 4.1-1.3c.1 1.3 1.8 1.4 2.4.7.3-.3.4-1 .5-1.2s.5 0 .7-.2c.4-.4 1-.6 1.3-1a3.2 3.2 0 0 1-.8 1.2c2 1 1-3 .8-4a2.9 2.9 0 0 1 .6-2c.5-.6.1-1.4 1-2 2-1.4 2.4 1.8 3.8 1.8.8.1 1.4-1 1.2-1.8-.1-.5.3-2.3.2-2.4s-.6.3-.8.2a12.3 12.3 0 0 1-.9-.9c-.2-.2-.6-1.8-.4-2 1.3-.6 3-1.4 4.5-1.3l3.3.4c1.6.2.3-.4 1-1 .6-.4 1.4-.2 2-.6.5-.3 1.5.2 2 .2-.3-1-2.4-1.4-3.2-1.7.1-.2.1-.6.3-.8l-9.4 2c-.3.1-1.6.6-1.8.2a2.8 2.8 0 0 0-1.8-1.6c-1.2-.5-1-.4-1-1.8a4.6 4.6 0 0 0 0-2.4c-.1-.7-1-2.2-.7-2.8s1.4-1.6 1.8-2c1-1 2.3-2 3.3-3 .5-.6 1.3-2 2-2.3s1.6.3 1.2-1a3.1 3.1 0 0 0-3.1-2.3c-2.2-.1-2.3-.2-3.8 1.5-1 1-1.4 2-.7 3.3s-5 4.2-5.6 4.8c-1.4 1.8-4 4.8-2.3 7.5.7 1 2.6 1 3.2 2.5.4 1-1.2 1.8-2 2.3-1.2 1-2 1.5-2.4 3-.2 1.3-.1 3.3-.7 4.5-.7 1.7-2 1.7-3.4 2-.6.1-.5.8-.7 1.4s-.6.5-1.3.5c-1 .1-1 .3-1.3-.8a4.7 4.7 0 0 1-.2-2.1c.4-1.2-1.3-2.6-2-3.5-.3-.4-.1-1-.3-1.6a10.5 10.5 0 0 1-.9-1.8c-.1-.6.4-1.6-.3-1.8s-.6-1-1-1.7a3.6 3.6 0 0 1-1.9 2.7c-1 .6-1.6 1.6-2.5 2-1.4 1-5 .4-5-1.7-.1-2.7-1-5.2-1-8 .1-2.3.3-2.3 2-3.7a14.4 14.4 0 0 1 3-1.7 9.4 9.4 0 0 0 3.4-2.2l2.7-2.8c2-2 3-4.4 4.5-6.8s3.4-4 5.2-6.2 3.4-4.2 5.8-5.3a71.1 71.1 0 0 1 8.1-2.9c1-.3 1.6-2 2.6-2.6a5.7 5.7 0 0 1 3.3-.6 7.7 7.7 0 0 0-2.3 4c1.2-.2 2.2-2.2 3-3.2l.4 1.8 1.6-2.2c.2-.3 1.6 0 2 0l-1 1.7c1.4 1 .6-1.6 1.8-1l3.7 1.4c1 .4-1 1.4-1.3 1.5a13 13 0 0 1-3-.3c.5.8 1.4.5 1.8 1.5.1.2 1.3-.2 1.8-.1 1 .1 2 .6 2.7-.4.3-.5 1.6.5 2 .7-.3 1-1.2.4-2 .2-.3 2 3.2 1.3 4.2 1.3a8.7 8.7 0 0 1 4.7 1.6 25.1 25.1 0 0 0 4.9 2.3c1.4.4 3 1.3 3.6 2.8s.4 1.5-.4 2.8c-.5.8-.7 1.3-1.6 1.6a6.3 6.3 0 0 1-4.5.3 40.9 40.9 0 0 1-9.9-3.3c1 1 3.8 2.8 3.8 4.3s-.2 4.5 1 5c1.5.7 3.5 2.4 5 1.8 1-.4.4-1.8-.5-1.8s-1.2-.8-2-1.6c1.4-1.3 1.5-1 3.2-.4l4.2 1.4a23.9 23.9 0 0 1-1.1-3.2l3-2c.6-.4 1.6-1.4 2.2-1.2l3.3 1c.1-.6.6-1.8.4-2.4-.1-.2-1-2-1.2-1.7l.7-3c.1-.4-1-1.4-1.3-1.7l4 .5c1 .1 1.7 1.6 2.3 2.5-.6.1-2.6-.1-3 .5-.6 1 .5 1.7 1 2.5s1.7.3 2.7.2c1.3-.2.3-1 1-2 .3-.4 1.5-.7 2-1l9-4c.5 1.7.5 1.7 2 2 1 .2 1.6-1.7 2.5-1.6a5.1 5.1 0 0 0 3.4-.2 3.9 3.9 0 0 1 3.4-.3l-.7 1.2c1.7.5 1.6.6 2.7-1s.4-1.5-.6-3c2.4-1 5.8-.7 8.2.3l5 2c1.2.5 2.4 1.8 3.4 2.6.1-.6.7-2.7.2-3L480 136c-.8-.6.5-2.3.8-3s-1.6-1.4-2-1.8l3.6-2.8c.8-.7 1-3 1.5-4 .5-1.3 6 .1 7.4.2l-1.5 4.2c-.3.7 1 2.4 1.3 3 .6 1.2-1.4 6.7-.4 7.4 1.2.8 2.5 1 2 2.4-.4.8-.8 2.8-1.5 3.2l-4 2.3c-.6.3-2.3-.2-3-.3 1.6 1.4 3.5 2.5 5.7 1.8 1.8-.6 3.7-3 5-4.3s-2.3-3.7.8-4.6c.6-.2 2.3-1 2.7-.6l2.3 2.7c-.2-1.2 0-2.3-1-3a2.8 2.8 0 0 0-2.9-.7c-.4.1-3.4.7-3.4.5-.2-.8-1-2.3-.6-3 .5-1 1.6-2.3 1-3.3-.5-.8-2.2-2.3-1.6-3.2.7-1 1.8-1.3 3-1.8 1-.4.1-2.4-.1-3 .6-.2 2 1.6 1.5 2.3-1 1.7-.8 1.7.2 3.4.6 1 5.3 1.2 6.5 1.2a44.5 44.5 0 0 1-5-2.1c-2-1 1.4-2.3 2-2.6 2.3-.7 3.3-.2 5.6.7a13 13 0 0 1 2 1.2c.6.4 1.5.1 2.2-.1a8.7 8.7 0 0 0-.9-2.5c-.5-.4-2-.3-2.7-.5-.8-.1-1-3.5-1-4.4l12-1.2c1-.1.6-1 .6-2 .1-2-.1-2 1.4-2.8a25.2 25.2 0 0 1 3.3-1.9c2.4-1 5.3-1 7.8-1.5l13.8-3c1-.4.6-2 1.4-2.6q2-1 4-2c1.6-.8 4.5-.8 5.6 1l-3.8 1 6 1-2.4 2.2 3.3.2c0-.4-.2-2 .2-2l2.6.1c1.3 0 2.7-.2 4 .5s3 1.5 4 2.7c.2.3 1.3 1.4 1.2 1.7s-.5 1.7-1 2l-16 9.8 11-3-2.8-.4c1-1 3-2 4.2-1 2 1.5 2.5 1.4 5 1.2 3.2-.3 6.4.4 9.6.7l-1.8 1c.8.4 2.2 1.4 3 1.4h3.8c.7-.1 2.8.3 3-.7.3-2 .1-2 1.8-2a20.9 20.9 0 0 0 3.6-.1c1-.2 2.7-1 3.6-.7s2 2.3 2.6 3c.4.4-.4 2.8-.5 3.4 0 .5.1 3.4.5 3.6l3.5 2c.5.3 2-2.3 2.4-2.8 1-1.3.8-1.5 2.2-.6s1.7 1.4 3.2 1c1-.3 2-1 3-.6.7.4 2.2 1.6 3 1.3l3.6-1.5c-.3-.6-1.5-2-1-2.5s1.5-2.5 2-2.4l7 1a39 39 0 0 1 5.2 1.3c1.8.5 4.3.6 6 1.5 1 .5 3.3 4.3 4.3 4l7-1.2c2-.3 3.7.6 5.5 1 1 .3 1.6.2 2 1.3a3.7 3.7 0 0 1-.1 2.8c2 .6 3.4 1.4 5.4 1a14.9 14.9 0 0 1 6.1-.1c.8.1 2 .6 2.7.1 1-.8 1-1 2 .1.7.7 1.8 2.2 2.6 2.6.6.3 2-.2 2.7-.3l-.6-4.6 9.8.8c2.6.2 5 2 7.4 3a112 112 0 0 1 7.9 4.2c1.6 1 2 1 2.5 2.8.8 2 .5 2.7 2.6 2.7l-.7-2.5a13.3 13.3 0 0 1 5 .8c1 .2 2.3 1.8 3.4 2.7zm-330.2 36.6a2.2 2.2 0 0 0-.8-.3c.2.1.7.3.8.3zM245 197.8c0 .4.7.5 1 .7s.3 1 .3 1.5c.7-.2 3-1 3.5-.4.7.8.8.8.7 2-.1.4 1 .7 1.2 1.3.2 1 1 3 .3 4s-.7.8-1.6.4c-1-.4-1-.4-.7-1.7-1.7.1-2 1.2-3.6 1.6a1.3 1.3 0 0 1 1-1.3 9.1 9.1 0 0 0-5.4-.7c-.6.1-2 .3-2.3-.4a3.8 3.8 0 0 1 .3-2.4 14.8 14.8 0 0 0 3.6-5.3c.6-1.4 2.3-3.6 4-3l-.8 1.7c-1 .8-1.4 1-1.3 2.2zM555 326c0 .4-.1.7-.1 1a86 86 0 0 1-5.1-5.2 11.3 11.3 0 0 1-2.2-2.8c-.5-1.2-1-3.5-2-4.4-.4-.4-1-.2-1-.8l-.7-2.6c-.4-1.5-2.3-1.2-2.3-2.8s-1.7-1.7-2.5-2.5c-.4-.3-2.4-2.8-2-3.4.2-.4 2.8.6 3.3.6 1.7.2 1.4 1 2.3 2a24.9 24.9 0 0 0 2.8 2.6c1 1 2.2 1.3 3 2.4.4.6 1 .5 1.6.6 1 .2.4.4 1 1s1 0 1 1c0 .5 1.2.4 1.4 1.3.1.6-.6.8-.5 1.6.1.5 1 .7 1.5.8s.4 1.5.5 2c.1.7 1 .7.1 1.6a1.5 1.5 0 0 1 2.6 1.6c-.5 1.4-.2 3.5-.5 5-.7-1.4-1.2.2-2-1zM344.7 187h-.3a1.2 1.2 0 0 1 .7-1 .8.8 0 0 1-.4 1zm-146.2-65.6a1.3 1.3 0 0 1 .3-2.5l2.2.8c.6.2 1.5-.2 2 .1a10.2 10.2 0 0 1 4 3.2 13 13 0 0 0-3.1-.1c-.7.2-2.8 1-3.5.7a4.6 4.6 0 0 1-1.3-.8c-.4-.7.3-1-.6-1.4z"/><path d="M210.3 275c-.4-1.3 3 .2 4-.5-1-1.3-.7-1.8-2.2-2.4 1.4-.6 1.8-.2 3.2-.2a3.7 3.7 0 0 0 1.3-.3c.5-.3 1.2.3 1.7.4s.7-.3 1 .4c.5 1 .6 1 1.5 1 .4.1 1.3.6 1 1-.6 1-.4.3-1.3.3-1.2 0-2 .3-3 .4-.2 0-.3-.6-1-.2-.3.2-.3 1.5-.7 1.6-.8.3-.7-1-1-1.2s-1 .1-1.6 0c-1.4-.2-2 .4-3-.5zM393 134l-.2-.6a2.2 2.2 0 0 1 .9 0c.1.7-.2 1-.7.6zm-13.3 7.3c0-.2 0-.4.1-.6.4-.3.7-.4 1-.1a.9.9 0 0 1-1.1.6zm-267.3-14.8a6.2 6.2 0 0 1-1 .2c-.2-1 .7-1.7 1.2-2.4s-.6-1.5 1-1.6c0 0 0-.1-.1-.1-1-.8.7-2.3 1.3-3 .3-.3-1-2.2-1.5-2.8l5.8-.8c1.3-.2 2.5 1 3.8 1.3h0a1.8 1.8 0 0 0 .5.1 1.8 1.8 0 0 0 .6-.1 5.1 5.1 0 0 1-.2.8c1.3-1.5 3-.8 4.4-.2a9.5 9.5 0 0 1 2.1 1.3c1 .7 1 1 .2 1.8-1.3 1-3.7 1.6-5.3 2.3-.7.3-1 .3-1.3 1s-1 1.6-2 1l-.5 2.6a12 12 0 0 1-1.8.8c-.2 0-.1-.5-.4-.4s-.6.3-1 .5c-1.8 1-1.7 1-3-.6a8.4 8.4 0 0 0-3-2zM205 270.3c0-.8-1.2-.5-1.5-.6-1.2-.6-1.2-1.8-2.3-2s-2.2-1-3.3-1c-.7 0-.7-.5-1.3-.3a1.4 1.4 0 0 1-1.4-.5 1.2 1.2 0 0 0 1-.2c-2-2-4.2 2.5-6.2 1.4 1-.6 1.4-2 2.6-2.2a11.6 11.6 0 0 1 4.3-.6 16.9 16.9 0 0 1 7.4 3.2 3 3 0 0 1 .2-.3 3.9 3.9 0 0 0 3.2 1.5c.3 0 .6.8 1 1a4 4 0 0 1 1.8 1.1c-.8.2-1.6.5-2.3.7-1.5-.1-3 .3-4.5 0 .2-.2 1.2-1 1.2-1.2zm136.3-91c.3-.3 1-.6 1-.8a2.3 2.3 0 0 1 .7-1.3 2.3 2.3 0 0 0-.5-.2 2.8 2.8 0 0 0 .3-.2c-.3-.1-.6-.1-.5-.6.1 0 .3.1.5.1-.2-.3-.2-.7-.4-1a1.3 1.3 0 0 1 1.4.1c-.2-.2-.5-.6-.7-.8a5.2 5.2 0 0 0 .2-.5l.6-.1c-.3-.7.4-1.4.6-.6.6-.3.1-.2.6 0a4.6 4.6 0 0 1 2.8-.5c-.2 1.3-1.8 1.5-2 2.3a4.7 4.7 0 0 1-.6 0 5.4 5.4 0 0 1 .9.3c-.3.2-.5.6-.7.8l.2.2c.4-.8 4-1.2 4.4-.4.8 1.2-2.2 3-1.6 4.3a1.3 1.3 0 0 0-1.4.6c2.2.3 3 .5 4 3 .6 2 2.5 2 2.8 4.3a1.1 1.1 0 0 0-1.4-.4c1 0 2.6 1.5 1.4 2.3.3.3 3.3-1 3 1s-1 2.2-2.3 3.2c.5.1 3 .6 1.4 1.3a18.2 18.2 0 0 1-3.4.8c-.7.2-1-.5-1.5-.6-.5 0-1.4.7-2 1-1.5.7-2-1-2.7 1-1.5-1-2.6 1-3.7.3.6-.6 2-1.3 2.2-2.2.4-1.5 1.7-1 3-1a3.1 3.1 0 0 1 .9-1.4l-2 .7c-.2.1-1-.5-1.4-.5a2.2 2.2 0 0 0 .3-.2c-1-.5-1.6.8-2.2-.2a3.6 3.6 0 0 0-.1-.5c.5-.2 1.8-.4 2-1 .6-.8.1-1 .2-2l-1.3.3c.7-.5 1-1 .3-1.6a.7.7 0 0 1 1.1.5c.6-.5 1-.2 1.8-.1a4.6 4.6 0 0 1-.1-.5c.3.2.3-.1.5.3h.2a2.2 2.2 0 0 1-.1-2.5c-1 .8-2-2-.3-2.4-1-.1-2 .8-2.7.3.3.8-.5.2-1 .1a4.2 4.2 0 0 0 0 .6c-1-.8-.2-1 .1-1.7s.2-.6 0-1.4c-.1-.6-.2-.7.3-.8a3.9 3.9 0 0 0-.2-.7c-.6 1.4-1.4.6-.5-.2-.8.3-.8 1-1 1.7-.1.4.1 1.8-.6 1.2-.3-.3 0-.5.2-.8.3-.7-.1-.7.1-1.3.2-.8.3-1.7 1-2.2-.1-.1-.1-.2-.2-.2-.5.4-.8 1-1.4.8.7.6-.4 1-1 .6.8-.2.8-.5-.1-.7z"/><path d="M343.6 182.8a1.3 1.3 0 0 1-.3-.9c.5.1.6.4.3 1zm-210.6-75c1.4.5.8 1.3 2.6 1 1-.2 2 1 2.7 1.7a5.1 5.1 0 0 1-.6.3c1-.1 1.3-.2 1.6 1 .1.6 2 .3 2.6.4 1 .1 2 .6 2.2-.5.1-.6-1.8-1-2.2-1.2l1.4-.6-2-1.3a9.2 9.2 0 0 0 .9-.8l.7-1h.1l.3-.5a1.4 1.4 0 0 1 1-.1 1 1 0 0 1 .5.7 2 2 0 0 1 .1.3l.1.4a.9.9 0 0 0 .1.3 1.2 1.2 0 0 0 .4.6c.5.4.6 1.3 1 1.5.8.3 1.2.4 1.4 1.4.7-1-.8-1.5 1-1.8 1.6-.2 1.7 1 1.4 2-.2 1-.6 2-1.5 2h-2c-.7 0-.7.7-1 .7-.8 0-1.3-.7-2-.5l-4.3 1.6c-2.6 1-3.6 1.4-6-.1 2-.7 5-1 6.3-2.4-.7.5-2.4 1-3 0-.1 1-1.7.7-2.4.7.2-.8.5-1.5-.4-1.8-.4 1.5-.6 1.6-1.8 2.3-.2-1-1.3-1-1-.1a11.5 11.5 0 0 1-1.4-.4l.2-.5a4.3 4.3 0 0 1-2.8-.2c.8-1.6 3.6-.8 5-2-.5.1-4 1.2-4 .2s4-.8 4.6-1c-1 0-2.7.4-3.6-.1v-.7a7.3 7.3 0 0 1 3.8-.3c-.4-.1-2.2-.3-2.2-1s2.2-.6 2.6-.6zM636 413a3.8 3.8 0 0 1-3.4-2.6 10.8 10.8 0 0 1-.6-5l3 1.4c.5.2 2.3-1 3-1 2 .6.1 7.7-2 7.3zm-50.7-133c.2-.7-.5-1-.4-1.5l.6-3.6c.1-.5 1-.7 1.3-.7 1.3.3.6 1 2 .3.5 1-.4 1.3-.2 2 .3 1.3.8.7.3 2.2a4.7 4.7 0 0 1-.3 1.2c-.2.3-1-.2-1 .2.1 1.3-1 .8-.1 2.3.4.7 0 1.7 1 1.8.3 0 .4-.8 1-.6a2.8 2.8 0 0 1 1.1.4 5.4 5.4 0 0 0 1.2.7c.3.1.4-.8.7-.4.8.8.1 1.3-.8 1-.1 1.2 1.3 1 .7 2.2-.4-.2-1.5-.8-1.5-1.2 0-1.3-.2-1-1.3-1.5l-.2 1.5a2.8 2.8 0 0 0-.9-1c-1-.6-.8.1-1.6 0s-1.8-1.3-.6-2c-.6-.2-1.6-.3-1.7-1-.2-1-.7-2.2-.2-3l1 .8zm-251.8-87a3.8 3.8 0 0 0 1-.5c-.3 0-.6-.2-1-.3a1.9 1.9 0 0 0 1.3-.8c.3-.5 1.4-.5 2-.6a3.9 3.9 0 0 0-2.3.3 12.9 12.9 0 0 1 1.8-1.9 5.3 5.3 0 0 1-2.2-.7c.3-.3 1-.7.8-1-.2-1-.5-1 .3-1.4.4-.2 1 .1 1.4.3.7.2 1-.3 1.5-.7l-1.3-.5c.6-1 2-2.6 3.3-1.8l-.3.5c.4-.1 1.5-.6 1.8-.2.5.6.6 1.7 1.3 1.5-.1 1.5-.5 1.5-1.7 2.4a3 3 0 0 1 .7 2.5l-.6 2c-.2.6-.6.2-1.2.4-1.7.5-4 3.2-6 1.7.2-.1.3-.4.6-.5l-1.3-.3zM176 112c1-1-.6-2.2-1-2.8-1-1-1.5-.6-2.8-.5-1.5.2-2.2.5-3.4-.7s-1.8-2 .1-2.6c1.2-.3 2.6.2 3.8.4s1.6 1.2 2.8 1.4 2.3-.7 3.4 0c.6.4.2.8 1 1l1.8.5c-.2 1-2.4.2-2.2 1 0 .1 2.2 1.3 2.5 1.5l1.6 1c.3.2 1-.5 1.3-.5 1-.1 2.7.5 3.7.8a5.5 5.5 0 0 1-.7-.5 22.4 22.4 0 0 0 3.1-.8c1-.4 2 .2 3-.2 2.4-.8 4.7.4 6.5 2l-1.4 1a3 3 0 0 1 1.7.7c-1 .3-1.4.2-1.7 1.3-.2.5-2.4.6-2.8.6a4 4 0 0 1-2.2-.4c-1-.3-.2-1.7-1.4-1.7l.2 1.5c-1 .2-2.7 1-3-.3-.3 1.3-2 1-2.6.1a7.9 7.9 0 0 1 0 .9l-3.6-.2c-1.2 0-.1-1.3-1-1.8a8.1 8.1 0 0 0-.2 1.2c-.1-.3-.4-.5-.6-.7-.2 1.2-1 1-1.7.8-1-.1-1-.2-1.4-1.2-.6.4-2 1.3-2.3.3-.7-1.4-1-1.7-.5-3zm165 69.8a3.1 3.1 0 0 1 .6-.5c.3.5.2 1-.3 1-.2-.3.1-.5-.4-.6zM179.5 85l-3.2-1.5c1.7-1 3.6-2 5.2-.6 1.2-2.7 4.3-1.3 6.5-1.5l-1.8-1 2.6-.1-.5-1.4c.8 0 2-.2 2.6.3 1 .5 2 1.7 3 2 2.3.6 4.5 1 6.8 1.7l-6-3.3c.7-.6 1.7-1.8 2.6-2l2.4-.2c.6-.1.7-.7 1.2-1a8.1 8.1 0 0 1 3.4.6l3.6 1.5-3-2.5h5.2c1.2 0 2.5 1.4 3.5 2-.3-.6-.6-1-1-1.7 2-.2 4.4-1 6.5-1a49.9 49.9 0 0 1 6.8 1l-3.6 2c2.2-.5 4.2-1.2 6.3-.8a45.3 45.3 0 0 1 7.2 1.9c-1.8 1-4.3 3-6.3 3.2l-8.3.6 3.8.7q-3.2 1-6.5 2l10.7-2c-.1 1.7-4.8 3-6.2 3.8-1 .7-2.5 2-3.7 2.3l-4.2 1c1 0 1.7.1 2.6.1a7.3 7.3 0 0 1-2.6 2.1c-.8.4-2-.2-2.8-.4l.4 1.3c-2.4.5-4.8.7-7.2 1 1 .1 4.8-.4 4.5 1.2h-4c1 .2 4 .3 3.8 1.8l-3.4.5 2 1a4.2 4.2 0 0 1-2.6 1.9c-.7.3-2.2-.8-2.7-.4-.6.5 1.3 1 .1 2-.4.3-2.5 1.8-2 2.5s.5.5 1.2.1.7-.1 1.4.3c.4.2.3 1 .3 1.5s-1 .5-1.2.6c-.4.2-.8-.4-1-.3-.3.1-.5.7-.8 1l-3.4 1c.2-1 .6-1.4-.2-2-.5-.5-1 .7-1.8-.2-.1 1.6-2 .7-2.3-.2.3 1.2-.8.8-1.4.6s-1 .7-2 .7a24.8 24.8 0 0 1-2.6-.2c-1-.1-1.7.6-2-.7-.5 1.5-2.2.6-2.3-.8-.7 1-1 1.7-2 .5.7-.4-.2-.8.1-1.2s1.4-.6 2-.8c1.3-.5 2-.2 3-1.3-1.6-.2-1.6-.3-2.4-1.8a5.9 5.9 0 0 1 3.3-.2c1 .2 1 1.7 2.2 2 2.8.7 3.8-1 5.4-3-1 1-3 3.5-4.5 2.3-2-1.5-.3-2.6.3-4.6-1 .8-1.8 2.4-3 2-1.7-.4-3.4-.5-1.6-2.3 2-2 5.6-1.6 7.7-.5a11.6 11.6 0 0 0-3.4-4.2c-1.5-1-4.3-1-3-3.6 0 .1 4.7.1 5 .2 1.6.4 3.4 2 5 3l-3.7-3 10.4-2.3-1.6-.7 2.6-2.3a15.7 15.7 0 0 0-5.1 3.1c-.5.5-2.2.5-2.8.6l-3.2.6 2-1.6c-1 .3-1.8.5-2.6.8.2-.2.4-.5.6-.7-.4.1-1.6.3-1.6.7-.1 1.2-.2 1-1.3 1a31.2 31.2 0 0 1-4.1-.4 9.3 9.3 0 0 1 4.3-2.4 7.9 7.9 0 0 0-4.8 1.6c-1.5 1-3-.1-4.7-.5a10 10 0 0 1 4.1-.8 10.5 10.5 0 0 0 4.3-1.5 26.4 26.4 0 0 1-5.1 1.1c-1.8.1-3.5 1-5-.2l2.8-2.3z"/><path d="M697.6 131.6l-.5-2.6c.8-.3 2-1.2 2.8-1.2h3.5c1 0 1.4.8 2 1.4-1.2 1.3-2.5 1.3-4 1.6-.5.1-1-.3-1.5-.1a53 53 0 0 1-2.3.7zm-387 2.4l-7.6 4.6c-2 1.2-4.7 1.5-7 2l-4.7 1.3c-1 .3-1.3.8-2 1.7s-1.7 2.7-2.8 3.4a14.5 14.5 0 0 1-3.5 1.1l-5 1.6c-1.2.4-1.2.4-1.7 1.8l-5.7 17c-.1.3-2.3.2-2.7.1l-5-1.8c-.8-.3-2.2-.5-2.8-1.3l-3-4.8c-1.8-2.7-3.7-5.2-4.8-8.3l-2-5.8c-.5-1.3.3-3.6.5-5 0-.2 0-1.6.3-1.7l2.8-1.2c.3-.1 1.5-.4 1.6-.8.1-1 .3-2 .4-3l-4 1.2c-1.8.6-1.7.6-3-1-1-1.2-.4-2 0-3.7s-1-2.3-2-3.4-.2-2 .3-3.5.3-1.7-.4-3.2c-1.2-2.8-2.2-5.6-4-8-.4-.6-1.8-3-2.5-3.2l-4-.7c-2.7-.5-5-1-7.7-.7l-4.4.6c-.7.1-2.6-1.5-3.2-2l-4-2.3c-1-.6-1.8-2.4-2.5-3.3-.2-.3-1.3-1.4-1.2-1.8.1-.5.1-2 .7-2l6.7-2a21.1 21.1 0 0 1 5-1c1.2-.1 1.4.2 1.8-1l1.3-3.2c-2-.2-3.7 0-5-1.5l16.2-8.4c1-.5 3-.4 4.2-.6l8.2-1c1.2-.2 3-.8 4.2-.6a76.7 76.7 0 0 1 11.3 3.3c-1.4-2.3-3.7-3.3-6-4.7l6.8-3c1.5-.7 3.5.2 5 .4l4 .7c1 .2 1-1.7 2-2a7.1 7.1 0 0 1 2.3-.2l5-.4c4.7-.4 9 .5 13.8 1 4.2.6 7.7 2.4 11.6 4l-6 2.2c1.3 1 2.7.7 4.2.8 1.7.1-.7 3.8-1 4.2 1.2-.5 3.8-2.3 5-2l3.4.6c1 .2 1.4-1 2-1.7 1-1 3.7-1 5-.6 2 .3 4 1.5 5.6 2.2l-5 2.8a14 14 0 0 1-4.4 1.1l1.2 1a18.2 18.2 0 0 1-3.6 3.2c-1.3 1-2.8 1.5-3.6 2.8s-2.6 3-2 4.6c.8 2 2 2.4 3.5 3.5L312 107l3.2 2.2c1 .6.7 2.2 1 3.2.1.5.8 3 .5 3.5l-3.2 3.5c-1.6 1.8-2 4.7-3 7-.3 1 .6 3 .8 4 .4 2 .3 2-1 3.5zm218-42c.2-.5.7-2.2 1-2.2s2-.3 2.3-.7c.3-1.3.2-1.6 1.3-2l3-1c1-.3-.1-1 1.4-1 1.3 0 3.2 2.2 4.3 3-1.7.5-1.7.3-1.3 2.2.1 1 2 .8 2.7 1l-1.6 1.7c1.6-.6 2.4-1.3 4-.5.7.4 0 1.3-.3 2s.4 1.6.6 2.2c-1.6.5-2.4.8-4 .2a7.9 7.9 0 0 0-4.5-.4c-1.5.2-2-1.5-3-2.7-.7-1-3-.3-4-.2-.2-.3-1.7-1-1.6-1.4zm97.7 101.3c.2-1 .7-2.4.5-3.3s-.4-1 .2-1.3.6.2 1-.1c.7-.7.3-1.8-.4-2.4 1.8-1.4 1.2 1.4 1.7 2.4 1 1.8-.5 2.8-.2 4.7.1.6.8 1 1 1.6l.6 2.6a18.1 18.1 0 0 0 1.8 4.8c-1 0-1-2-2-1.7-1.7.3-1.5.8-2 2.7-.4 1.3 0 1.6.7 2.7.5 1 1.7 2.5.7 3.5 0-.8-.4-2-1.4-2s-1 1.4-1.2 2.3c-.6-1.5-.3-1.8-.3-3.3 0-.5-.4-1.2-.1-1.6a1.9 1.9 0 0 0 .3-1.9c-.3-1.6-1-1.6-.1-3.2a8.4 8.4 0 0 0 .4-3.8c1-1-1-1.6-1-2.6zm-183.5-104l-2.5-.7c2.4-.7 4-1.5 6.5-1a6.8 6.8 0 0 0 3.4-.5c1.2-.3 1.8.3 3 1l-5.4 1.3.4 1.5a12 12 0 0 1-4.5-.7l2.7-1.8zM696 401c-.2.2.3 1-.3.7s-1.5-.2-1.5.7c0 1.4-1 3-1.8 4.2-.7 1.5-2 1-2.8.3.5-.6 2-2 1.3-3-.2-.3-1.2-.4-1.5-.6a13.1 13.1 0 0 1-1.4-1.2 4.4 4.4 0 0 0 1.9-2.6c.4-1-.3-2 0-3-1 .3-2-3-2.4-4-.1.1-.3.2-.5.3l-1.2-2.6c.8.2 1.2 1 2 1.3 1.6.6.8.4 1.2 2a4.4 4.4 0 0 0 .8 1.1c.3.4-.1 1 .1 1.4.7 1.4 1.4.5 1.3-.6 1 .5.4 2.5 1.5 2.8 1.8.5 2 .6 3.6-.4 1.6.2.4 2.5-.3 3zm-101.4-69c-1 1-3 .3-4.2.3-.6 0-1 1-1.8.7-.4-.1-.5.3-.8.4s-.6-.6-1.3 0c-.4-.4-3-.2-2-1.3 1-1 2.7.6 3.6.1.4-.2 1 .5 1.3.1.7-.6.8-.7 1.6-.6 1.4.1 2.2-.3 3.7.2zM155 135.6a6.5 6.5 0 0 0-.8-.1c.6.6.4 1.2.4 2 .7-.7 1.4-1.3 2.5-1-.7 1 .3.8.3 1.5 0 .4-1.6 1-2 1-1.6.2-3-.7-4.6-.7.2-.1.3-.3.5-.4l-2.8-.6c.1-.2.1-.6.2-.8-.8-.2-.8.5-1.4 1a3 3 0 0 1-1.8.8c-1.3.2-1.8 1.2-3.2 1.3l-5.8.5c-1.6.1-2-.8-1.8-2.6-2.8-.1-6 .4-7-3 1.7-.4 4-1.3 5.7-1a25.8 25.8 0 0 0 3.4.5c.5 0 2.8-.4 1.4-.8a21.7 21.7 0 0 0-5.9-1l-4.3.1c-1 0-1.4-.5-2.2-1.3l4.3-2h-4c.1-.2.2-.5.3-.7h-2c-.2-1.3 1-2 1.8-2.7-.3-.1-.6-.4-1-.4a18.7 18.7 0 0 1 5.8-3.1c1-.4 1.5-.8 2.5-.2 1.4.8.4 1.8-.6 2.6.6 0 1-.1 1.7-.2s.7-1.2 1.2-1.3c.7-.2 2.7 1.3 3.4 1.6-.3.3-.5.7-.8 1 1 0 1 .1 1.7-1 .2-.4 1.6.2 2 .3l-1.8-2c1-.2 3.5-.1 4 1.4l1 3c.4 1 .7.4 1.5.1l-1.8-5c-.2-.5.7-.7.2-1.5.4.2 1.7 1.2 2 .8.6-.8 1.2.2 2 .7 1.7 1 2.2 3.8 3 5.7.3.8-.4 1.7-.1 2.3s2.2 1.3 2.7 1.7c1.3.8 3 1.8 4.2 1.5.1.8.2 3.3-1 1.4-.1.3-.3.4-.4.7-.8-.7-1.7-1-2 .5a3.7 3.7 0 0 1-.7-.4z"/><path d="M568 311.5c-1-1-.8-1 0-2.3.6-1 1.5-1 2.6-1.4s1.3-1.3 2-2c.8-1.3 1-1.3 2.5-1.6 1-.3.4-1 1.2-2 .4-.5 1.8-2.6 2.4-2.7s2 1.4 2.4 2 .6 1 1 1.2 1 .1 1 .7l-2 .6.8 1c-.5.1-2.2.1-2.3 1a4.3 4.3 0 0 0 .1 1.2c.1.6.5 1 1 2 .1.3-.3.8-.2 1s1 .8 1.2 1c1.3 1.2.6 1.4-.7 1-.7-.1-1.2 1.2-1.2 2 .1 1.7.1 1.7-1 2.7-1 .8-1.2.8-1.2 2l-.1 3.8c-.6.1-.6-.5-.5-1l-2.7 1.3c-.1-.4-.2-1.4-.6-1.5s-1 .1-1.3-.1c-1.6-1-1.8-.6-3.5.3-.1-.5-.1-1-.2-1.5-.6.3-2.7 1-2.8 0-.1-1.3 0-3.2-1-4-.2.6-.1.3-.7.6.2-1-.1-.4-.2-1a.6.6 0 0 1-.1-.2l-.3-1c-.1-.3.4-.5.3-.7-.1-.4-.7-.8-.6-1.3l.3-2.3 1.3-.8c.2 1.3 2.2 1.3 3.2 1.5zm15.2 5.5c.3-1 1.5-1.5.7-2.7a5.4 5.4 0 0 1 2-2.6c1-.6 2.5.4 3.4.7s.6-.2 1.2-.2 1.2.5 1.7.3c.8-.5 1.5-2 2.4-2-.7 2-2 4.3-4 3-1-.5-2-.1-3 0s-1.7-.8-2.3-.1c-1.3 1.6.5 4.8 2.2 3 .7-.8.3.1 1-.1s.6-.5 1.4-.5c.5 0 2-1 1.5.6-1.6-1-2.2 2.5-4 2 .5.6 1 .5 1.3 1.3l.7 1.4c.3.5-.5.8-.4 1 .4 1 1.7.3 1.2 1.5 0-.3-1.7 1-1.4 1-.7.1-1.4 0-1-1s-.8-.8-1-1.7c-.1-.4.6-2-.3-2-1.6.2-.5.7-.6 1.5s.1 1.8 0 2.5c0 .4-.4.7-.4 1s.4 1 .3 1.3c-.2.5-1.8.3-2-.1s.4-2.7.5-3.3c.2-1.4-.8-.6-1.2-1.2-.7-1-.4-1.2.2-2.4.4-.8.2-1.4.4-2.2zm-133.5 25.3c.5 2.2 1.2 4 .3 6l-1-1a14.9 14.9 0 0 1-.7 6.6l-4.4 14.7c0 .1-2.5 1-3 1-.5.2-2.8-.6-3-1.2a38.5 38.5 0 0 0-.8-4.1 6.4 6.4 0 0 1-.2-4.1c.4-1.3 2-2.6 2-4s-.7-3-1-4.3c-.1-.7.5-3.2 1-3.3a12.7 12.7 0 0 0 3.9-1.4c1.2-.6 1.7-1.7 2.6-2.7 1.2-1.4 1.7-1.4 1.8-3.3.1-2.4 1.7.1 2.2.8zM163.4 107c.4-.2 1.2.3 1.6.5a3.4 3.4 0 0 1 .9 1.5c0 .5-.2 1-.2 1.6s.5.8.3 1.6c-.2-.2-.5-.2-.7-.4a1.2 1.2 0 0 1-.5 1.1c.3.2.6.5 1 .7-1 1-2.3.4-3.3.3-.3 0-.5.6-1 .5-.7-.2-1.4-.2-1.4-1 .3 0 .7-.2 1-.1a3.9 3.9 0 0 0-1.5-.4 1.3 1.3 0 0 1 1.3-.5 3.6 3.6 0 0 0-.3-.3 1 1 0 0 0 1.1-.7l-4 .6c-.8.2-3.3.1-1.5-1h-1.6a1.7 1.7 0 0 1 1.3-.6c.8-.2 2.3.6 2.6-.2-1 .3-1-.7-.2-1H157c-.2-2.7 4 1.2 4.4 1.5l-1.2-1.7c.3.1.6-.1 1 0-.2-.7-2.8-1-1.2-1.5s2.4.5 3.6-.3zM638 328.5l-1.7.2c.1.4.3 1.4.6 1.6s1.2.6 1.4 1c.8 1.7.8 2.2 2.5 2.3-.5 1 .5 1 1.3 1.2-.7.6.8 1.7 1.3 2.3-.7.2-2-.7-2.7-1-1.2-.2-2.3-.1-3.2-1l-3.3-3.4c-.5-.6-3-.5-3.6-.6s-1 2-1.6 2.5c-1.3.8-2.6.4-4 .3-1 0-1.4-2.2-2-2l-4 .4c.3-2 .4-1.8 2.2-2.3l-1.5-3.7c-.3-.7-2-1-2.5-1.3l-4.6-2c-1.3-.6-1.3-.5-1.5-2l-1.6 2-1.8-3a5.8 5.8 0 0 1 3.7-.1 2.3 2.3 0 0 0 .1-.9c-1 .1-2.5.4-3.5-.2-.4-.2-.1-1.2-.4-1.3l-1.8-.3a3.7 3.7 0 0 1 4.5-1.8c1 .3 1.4 0 1.6 1.3a11.2 11.2 0 0 0 .8 3.1c.4 1 .8 1 1.8 1.5.3.1 1.5-1.8 1.8-2 .7-1 2.5-1.8 3.5-1.4l6.6 2.5a24.6 24.6 0 0 1 4.3 1.7l2.6 1.6c1 .6.5 1.6 1 2.3 1 1 4 .2 4 2.6zm-12.3-112.2a2 2 0 0 0 .2-1.5c-.1-.6 1-1.2.7-1.7s-.6-4 .5-2.4c1 1.2 1.5 2.4 2.8 3 1.8 1 2 1.3 3.4-.2.3 1-1.3 2.7.8 2.6a3.2 3.2 0 0 1-2.8 1.1 2.5 2.5 0 0 0-1.5.8 9.3 9.3 0 0 0-.5 1.6c-.6.3-2-1-2.6-1.5-.3-.3-1.2.2-1.5.4s-1-.5-1.6-.2c-.2 1.2 1 .8 1.5 1.4s-.3.5-.6.4-.8 1-1 .8a8 8 0 0 1-.9-2.6c.2-.8.3-.8 1-1 .3-.2.3-1 .4-1.5zm-7-101.7c-.5-.7-1.6-1.5-1.4-2.3.4-1.6 1-2 2.4-3s4.2 1.6 5.6 2.2c-.2-1-.6-1.8.3-2.2.6-.2 1.4.4 2 .5l6 2.3a5.7 5.7 0 0 1-1.8 1.5c-1 .5-1.2.2-2-.2.3.4.5 1 .8 1.3l-2.2.5c-.5.1-1-1.4-1.4-1.2-1.5.6-3 2-4 .3-.6 1.3-.5 1.4-2 1.5-.7.1-1.5-.6-2-1zM151.8 96H150c.6-1.7 1.5-1.4 3-1.6s2 .8 2.7 2c.7-.4 3.4-1.5 3 .7 1-.2 1.3-.3 2.2.4.5.4.4.4.2 1-.1.5.6 1 1 1.3 2 2.3-2 2.4-2.5 1.6s-.5-1.4-1.4-1.5-2.2 0-2.8-.7-3.8 2.2-4.2-.8c1-.7 3.4.6 3.2-1l-1.5-.3c.2-.1.3-.4.5-.5-1-1-1.2.6-2.2.5a8.1 8.1 0 0 1 .5-1.1zM453 126.5c.1-1.2 1.4-.8 1.8-1.6.6-1.2-.5-1.2.7-2 .3-.2 2.3-1.3 2.2-1.7-.2-1-.6-1.6.1-2.3l2.7-3a50.9 50.9 0 0 1 4.1-3.8c1.2-1 3.7-1.5 5-2a13.3 13.3 0 0 1 5.4-1c2.3-.6 4.4-1 6.2-2.5 1-.7 5.6-1.7 5.3.7-.2 2-4.7 2.8-6 3.2l-6.8 2.2c-2 .6-3 2-4.7 3-1 .5-2.4 1-3 2l-2.2 2.8c-1.3 1.5-3.4 3.5-3.4 5.7.1 3 1.8 4 4 5.5-1.3 1-4.4.2-6 0a6.4 6.4 0 0 1-4.3-2.2c-1-1-1.3-1-1.2-2.7zm-111.6 51.8l-.2-.2a1.5 1.5 0 0 0 .3-.2c.1.2 0 .3 0 .4zm347 228l.7 2.3-2.4 3c-.8 1-.7 1-.1 2.3a1 1 0 0 1-.9-.8c-1.5 1-2.2 1.4-2.7 3.4-.4 1.4-1.7 3-2.5 4s-3 .3-3.7-.4c-.5-.5-3.7-.1-2.6-1.6l3.2-4.4c.3-.5 1.5-.7 2-1a8.2 8.2 0 0 0 1.8-1.4 11.6 11.6 0 0 0 1.8-1.5c.4-.6.3-1.6.7-2.2.6-.8 1-.3 1.2-1.4s.6-1 1.5-1.6a4.6 4.6 0 0 1 .6 2.2q.7-.5 1.4-1.2zM574 333l-2.2-1c-1.3.2-1.7-.2-3-.3-.2 0-.3.3-.6.3H567a6.8 6.8 0 0 1-1.5-.5 10.1 10.1 0 0 0-1.8-.6c-.6-.1-1.3.4-2 .3-1-.2-2.2-1-3.5-1a4 4 0 0 1 .1-.6c-1-.2-2.6-.3-1.4-1.7.4-.5.4-.7 1-.6s1 .6 1.4-.1c.4.3 2.4.7 2.5 1 .8 1.4 2 1 3.3 1.2.4 0 1 .3 1-.1.2-.7.5-1 1-.4a3.3 3.3 0 0 0 2.9.4 1.6 1.6 0 0 0 2 1.8c2.2-.5 1 1.2 2 2.3zM214.4 131c.4 1.2 1.8.3 2.2-.7.5-1 4.6 1.5 5.4 2-.3 1-2 1.2-2.8 1.4.7.1 1.5-.1 1.3 1 .7-.4 1.8-.6 2-1.6.7.5 1.8 1 1.8 2a3.6 3.6 0 0 0-2.8.7 3.9 3.9 0 0 0 2 .5c1.3-.2 1.2-.3 1.6 1-.8-.2-1.6-.3-2.5-.5l.3 1.7-1.8.2a52 52 0 0 0 6.3 2.6 4.4 4.4 0 0 1 2.1 1.5c1 1 1.5 1 2.8 1a46 46 0 0 1-.8 1.3c1 0 2.4-.4 3.2-.1 1.3.6.8 1.4.6 2.8-.6-.1-1.7-.6-2 0l1.5.7c-1.5.8-2 1.6-3.5.6a7.8 7.8 0 0 1 .1 3.4 9.2 9.2 0 0 1-3.8-3c.8-.3 2-.5 1.6-1.6-.5.2-1.5.8-2 .7-.7-.2-1.3-1.4-2-1.7-.7-.4-1.2-.5-1.7.2-.7 1 .5 1 .6 2h-1.6l.5 1.6c.8-.3 1-.7 1.3.2s.5 1.6.7 2.4c.3-1.2 1-.7 1.6-.3 1 .4.8.7 1 1.8.2 1 1 .6 1.4 1.3a9.6 9.6 0 0 1 .3 2.6l-1-1.3c-.6 1 1 1.3.4 2.4a4.5 4.5 0 0 1-.7-.2l.5 1.2c-.4.2-1.5-1.3-2.2-1.7l-3.5-2.2c.2.3.2.7.3 1l-2-1c.4.7.8 1.4 1.2 2 .3.5 1.4.4 1.8.7l2.2 1.5c.7.5.4.8.3 1.8l-5.8-1.5c-.7-.2-.6-1-1-1.2l-3-.8c.1-.2.2-.3.3-.5a4.1 4.1 0 0 1-2.5-.9l1.5-.8c-1-.5-2-.4-2.5-1.2-1-1.5-1-2.5-2.5-1.5 0-.7-.4-1-1-1 .1.3-.2.6-.1 1-1-.2-1.8-.8-2.6-.1s-2 .5-3 .5c-.7 0-1.7-1.2-1.3-1.8.5-.8 1.7-1 1.6-2 1.4.2 3 .7 4.5.3.4-.1 2.5-.4 2.7-.8.3-.7-1.2-1.5-1.6-1.8l3.6-3.6c.3-.3 1-.6.6-1l-1.5-2.8c-.8-1.4-2.4-1-3-2.3-.6-1-.5-1-1.5-.5l-2.2.8c0-1.8.3-1.6 2-2-1-.7-2.8-3.2-3.8-2l-.3-1.5c-.1-.5-1 0-1.2-.1-1-.4-.8-2.2-2-1 1 .3 1 .8 1.5 1.7-2.3.6-3.8 0-6-.7l1.8 1.6c-.8.3-1-.7-1.7-.8-.2 0-.4.7-.7.6l-1.4-.6c-1.4-.5-3.3-.2-4.7-.2a5.1 5.1 0 0 1-2.2-.6c-1-.8.3-1.2-1.3-1-.7.1-1 .7-2 .3a6.7 6.7 0 0 1-2.8-2.7l4.5.4c-1.5-1.6-3-1.4-5-1.6a11.6 11.6 0 0 1-.5-2.6c-.1-.7.8-2.2 1-3a5.7 5.7 0 0 1 3.3-3.5 8.7 8.7 0 0 1 5.5-.7l-.4 1.7a22.1 22.1 0 0 0 4.4-1.5 6.3 6.3 0 0 1 2.2.1c.8 0 .6 1 1 1.7s.8.6 1.2 1.5c.6 1.2.4 1.2-.2 2.4-.6 1 .3 1 1 .4 1-1 1-1 2.2-.2.3.2 1.4-1 1.7-1.4.5-.4 1.8-.3 2.3-.4a6.4 6.4 0 0 1 4 1.6c.7.7 2.5 3.5 3.2 3.3 1.2-.5 3.5-.7 4 1-.4.2-2.3 1-2 1.6zm-96.6-20.8c-.7-.8-.7-1.3-.2-1.7a1.2 1.2 0 0 1 .5-.3l.3-.1a1.3 1.3 0 0 1 .4-.1c.1 0 .2 0 .4-.1 1-.1 2.3-1.8 3-2.5 1-1 1.6-1.5 3-1.7a4.8 4.8 0 0 1 1.7-.2c.7.3 1.3.7 2 .1-.3-.1-.4-.3-.6-.4a4.9 4.9 0 0 1 .5-.2 1.3 1.3 0 0 1 .5-.1h0a4.5 4.5 0 0 1 2.2.9c-1 .3-2.7 1.2-.7 1.6a2 2 0 0 0-.8.1c-.1 0-.2.1-.2.1a1 1 0 0 1 .5.5c.2.4-.1.8-.5 1a4.1 4.1 0 0 1-1.6 1c-1.3.3-2.7-1-1.2-2-.3-.2-1-.3-1 .2 0 1-.6.6-1.2 1a.7.7 0 0 1 .4 1.1c-.7 1-1-.7-1.5-.5-.7.3.4 1.2 0 1.7s-1.2.5-1.7.7c.2-1-.6-1.7-1.2-1.2a.6.6 0 0 0-.1.4c0 .2 0 .4-.1.5s-.2.1-.5.1zm428-10.7a23 23 0 0 1 2.8-4c1-1.2 2.3-1.3 3.8-.7l-1 1c.5 0 2-.4 2.3 0 .8 1 1 1.3 2 1.5.5.1 1.4 1.4 1 1.7a3.6 3.6 0 0 1-1.9.9l-3.4.6c-.6.1-1.3-.7-1.7-.6-1.3.5-4 2.3-5 1 .4-.4.7-.8 1-1zm-203.3 81.3a6.1 6.1 0 0 1-.5.9c-.3-.7.1-1 .5-1zM608.7 242c-.5-2 0-1.5.7-3 .5.4 3.6-1.7 3.5.7 0 .3-.8 1-1 1.3s-.7-.6-1-.5c-1 .5-1 2.3-2.3 1.5zm-421.2-87c.2-.4-.2-1-.2-1.4l.3-1.7c.4-1.4.3-2.5 1.6-3s1.6 1.4.2 1.7a2.2 2.2 0 0 0 .4.8c.7-1 1-.7 1.6.1.4.5 1.3.3 1.8.6.7.5 4.2 2.2 3 3.6 1.5-.2 1.8-.2 3 .8l-1.7 1c-1-.3-4.2-.7-4-2.5-1 .4-1 1.3-2 1.8-.7.2-1.3 1.3-2 2-.5.3-.7-2-1-2.2s-2.5.5-3 .5c.3-.5 1.8-1.6 2-2zm-17-63.6c.3.1.7.2 1 .2-.2-.1-.4-.4-.6-.5.3-.1.5-.4.8-.4-.7-.5-1.6.4-2.5 0a2.7 2.7 0 0 1 .4-.2 9.8 9.8 0 0 1-2.3-.4l1.6-.6c-1-1 2.3-1.2 3-1.4-.6-.5-1.7-.4-2.4-.6 1-2.3 3.8-.2 4.7-1.7-.8-.5-1.8-.2-2.7-.5.7-1 2.3-.5 3.3-.2 1.6.4 2.3 1.5 3.4 2.8a2.6 2.6 0 0 0 2.8 1c1-.3.4 1 .6 1.2a1.8 1.8 0 0 0 1.7.8l-.8-1.4c1.2-1 3 .4 1.7 1.5 2 .3 1.7 1 .8 2.7.8-.3 2.6-1.3 2.7.3.1-.3.4-.5.5-1a6.7 6.7 0 0 1 1.7 2c-1 .3-3.4 1.6-4 1 .4 1-.5 1.3-1 1.8a3.1 3.1 0 0 1-.4-2c-2.3.7 1.4 4-2 2 .6 1 .3 1.4 0 2.3l-2.6-2 1.2 2.5a3.3 3.3 0 0 0-2.4-1.1 1.3 1.3 0 0 1 .9.9c-1.7-.1-4 .3-5.2-1.5l2.5-.3c-1.2-.3-3.2.1-4-1l1.3-.1a7.1 7.1 0 0 1-2.3-.9c2.5-1 4.8-.8 7.4-1.3-1.4.1-2.8.4-4-.2l2.7-.3c-.8-.7-2.6-.1-3.7-.6.2 1-.5.3-.7.4-.6.3-.8 1-1.5.5 0-.2.1-.3.1-.5-.6-.2-1 .2-1.4.5-.7.5-.7-.6-1.2-.5s-.8-.7-.2-.8c.8-.1 1.5-.1 2-.8-1.5.6-4 .6-4.2-1.7zM595.3 295l-.3-1.7a1.6 1.6 0 0 1 1.1 1.2c.5-.2.7.5.6 1-.1.2-.3.3-.4.4.1 0 .2.2.5.2a1.9 1.9 0 0 1 0 .7c1 .1.1 2.3 0 3a2.2 2.2 0 0 1-.3-.2v1.4c-.5-.8-.2-1.6-.7-2.3-1 .8-.5 1.4-.3 2.4.3 1.3-1.2 1.8-.8.4h-.2c-.3 1-2-.2-2.2-1-.4-1 1-3-1-2.8.1.3 0 .6.1 1-.5-.3-.5-.1-.5-.7-.3.3-.3.2-.5.7-.4-2-1.2.8-1.6 1-1-1.3.7-2.4 1.6-2.6.5-.1.2-1.4 1-1.4s1 1 .4 1.6c.8-.3 1.2-1.8 2-1-.1-.8.1-1.2.8-.8.3-.4.2-.4.8-.3z"/><path d="M647.8 368.8c.4 2.6 1.3 5.6 1.2 8.2s-1.5 6-2 8.6c-.6 2.2-3 4-3.5 6.2-.5 2.6-.2 6.8-3.3 7-1.8.1-2 .2-3.4 1.5-.6.6-2.2 1.2-2.8.4-1.3-1.6-1-2-2.6-.8-1.3 1.2-1.6 1-3.3.7-2.6-.4-5-1.3-5.5-4.4-.2-1-1-3-2-3s-.8-2.7-1-3.8c-.8 1.8-.8 2.8-2.6 2.4 1-1.8 2.5-3.5 1.8-5.7a29.6 29.6 0 0 1-4 5.3 32.6 32.6 0 0 1-2-3.2c-1-1.7-1-2-2.8-2.7a34 34 0 0 0-8.2-1.7c-.8-.1-2.2 1.2-3 1.7s-2.3-.2-3.4.3-2.8 1-3.2 2c-.2.3-.6 1.6-1 1.6l-6.4.3c-1.7.2-2 .6-3.4 2-1 1-2.3.5-3.5.5s-2.2-1.3-3.2-2c-1-1 1.2-2.2 1.3-2.5.4-1-.5-3.7-.7-4.8a27.7 27.7 0 0 0-2.4-7.9c-.5-1-1.2-2-.8-3 .5-1.6.7-2 .1-3.4-1-2.6-.4-4.7.6-7.2.3.6.5 1.3.8 2a5.9 5.9 0 0 1 2.6-3.4 8.9 8.9 0 0 1 3.4-1.8l6.2-1.4c1.6-.4 1.6-1.7 2.2-3.4 1.2-3.2 4.5-5 7-7 .4-.4 2.3-2.5 2.8-2l4.5 2.4a13.6 13.6 0 0 1 1.8-5c1-1.6 2.7-.7 4.4-.4-.1-.7-.1-1.5-.1-2.2a35.1 35.1 0 0 1 4.7.3 4.6 4.6 0 0 1 3.9 1.8 7.5 7.5 0 0 0-2.1 3.3c-.4 1.8-1 2.3.4 3.2l4.8 3c1 .6 1.6 2 2.5 2.3 2.4 1 3.4-4.7 3.3-6.4a15.6 15.6 0 0 1 0-4.5c.4-1.3.5-4 2-4.3a34.5 34.5 0 0 1 2.5 8.2 1.7 1.7 0 0 1 2.6 1.3c.1 2 0 2.7 1.3 4.3 1 1 .5 2.7.5 4.2 0 .6 3.5 2 4 2.4 1.3.7 1.2 1.6 1.7 3l.8 2.5c.2.7 1-.6 1.3-.5 1.8.6.2 2 1.4 3l3.6 3.3zM605.5 238a4.2 4.2 0 0 0 3.5-2.1c.8-1 3.2-.8 4.5-1 .7-.1.2 1 1.3.4.8-.3.1-1 .6-1.4.4-.4 1.3-1.3 1.3-2 0-1.2.4-1 1.4-1.4-.2.2-1 1.5-.3 1.5a6.1 6.1 0 0 0 2.1-.8 5.3 5.3 0 0 0 2.4-3.1l1-2.8c.1-.3-.7-.7-.5-1.4s1.6-4 2.2-1.6c-.3-1 .3-2 1.3-1.3-.1.6-.4 1.2-.2 1.8s1 1.4 1 2c0 1 .2 1.8-.5 2.3s-.4 1-.4 1.8c-1.2-.6-1 .8-1 1.6 0 1.3-.4 1.3-.6 2.4-.1.6.2 2.5.1 2.5-.8.4-1 1.2-2 1.6.1-.4.2-1 .3-1.4a10 10 0 0 0-1.6 2l-.6-1.2c-1 1.2-2.7 2-3.6.4-.8.6-.6 1.2.1 1.8-1-.2-1.7 1.2-2.2 2-1-1-2-1.8-.5-3-1-.1-2.4-.6-3 .2-.1.2-1.2.4-1.5.6-.6.4-1 .7-1.5-.1-.5 1.8-1.6.4-2.6 1.3.6 1 1 0 1.4.8.1.2.8 1.2.6 1.5-.6 1.4-1 3-2.4 4-1.5 1-1.4-1.8-1-2.7.3-.4 1-1.8-.2-2-1-.1.1 1.3-1.2 1.2l-.2-1.5c1-.6 3-1.3 2.5-3zm-491-35.5a24.1 24.1 0 0 1-8.1-6.3c1.5-.5 2 .2 3.4.7 1.8.6 2 .2 3 2 .3.6.4 1 1 1.2.4.2 1.2.3 1.4.7 1 1.8 1.2 2.5-.8 1.7zm206.8-46.2l-1.7.3c-.6.1-.5.5-1 .7a3.7 3.7 0 0 1-2.7.2 7.1 7.1 0 0 1-1.6-.4c-.2-.2-.5-1-1-1l-3.6.5c-.5-1.3 1.4-1 1.8-2a2.9 2.9 0 0 1-.5-.1l.1-.5c-.6.1-1-.3-.4-.8-.8 0-3.3.6-3.5-.6 1.4 0 3-.6 4.4-.6v-.4a1.7 1.7 0 0 1-1.5-.1l1.6-.8c-.6-.2-2-.7-2.5-.5-1.3.5-1.6.8-3 .2.5-.2.3-.4 1-.3a3.8 3.8 0 0 1 0-.6c.3.2 1 .5 1.2.1s-1-.4-.4-1.3 2.5 1.3 2.3-.6c-.6-.1-1.2.1-1.4-.7 1.4 0 1.4.2 2.5 1.2.2.2 1 .4 1 .8a.7.7 0 0 1-.8.7c.3.7.7 1.2 1 1.8a11.8 11.8 0 0 1 .8-1.8c.4-.7 1.2.1.6-1.4.8-.2 1.3.8 2 1.3-.2-.7.1-1.6.8-1.5 1 0 1 .7 1.7 1.5l-.2-1.7c1.5.7 2-.1 3.4.1-1-2.3 4.2-.2 3 1.5 1-.3 1.4.2 2.2.6.4.2-.2 1.2.5 1.7-.6.6-1 1.4-2 1 0 1.2-.6 2-1.7 1.7-.7-.2-2 1.2-2.8 1.6z"/></g><path d="M629.3 412.3a14.5 14.5 0 0 1-4.1 1.7 14.3 14.3 0 1 1 4.1-1.7z" class="H"/><path d="M626 398.5a4.4 4.4 0 1 1-4.4-4.4 4.4 4.4 0 0 1 4.4 4.4zm3.3 12v1.8a14.5 14.5 0 0 1-4.1 1.7 14.3 14.3 0 0 1-11-1.7v-1.8a7.6 7.6 0 0 1 15.1 0z" class="E"/><path d="M628 378.5c-.3-3.2-2.5-6.3-6.3-6.3s-6 3-6.3 6.3c-.5 5 2.8 9.3 6.3 13.3 3.5-4 6.8-8.4 6.3-13.3zm-6.3 3.6a3.5 3.5 0 1 1 3.5-3.5 3.5 3.5 0 0 1-3.5 3.5z" class="C"/><path d="M492.5 188.8a14.4 14.4 0 1 1 6.4-15.6 14.3 14.3 0 0 1-6.4 15.6z" class="H"/><g class="E"><circle cx="485" cy="174.9" r="4.4"/><path d="M492.5 187v1.8a14.4 14.4 0 0 1-15.1 0V187a7.6 7.6 0 0 1 15.1 0z"/></g><path d="M491.3 155c-.3-3.2-2.5-6.3-6.3-6.3s-6 3.2-6.3 6.3c-.5 5 2.8 9.3 6.3 13.3 3.5-4 6.8-8.4 6.3-13.3zm-6.3 3.5a3.5 3.5 0 1 1 3.5-3.5 3.5 3.5 0 0 1-3.5 3.5z" class="C"/><path d="M263.2 337.8a14 14 0 0 1-4.1 1.7 14.3 14.3 0 1 1 4.1-1.7z" class="H"/><path d="M260 324a4.4 4.4 0 1 1-4.4-4.4 4.4 4.4 0 0 1 4.4 4.4zm3.2 12v1.8a14 14 0 0 1-4.1 1.7 14.3 14.3 0 0 1-11-1.7V336a7.6 7.6 0 0 1 15.1 0z" class="E"/><path d="M262 304c-.3-3.2-2.5-6.3-6.3-6.3s-6 3-6.3 6.3c-.5 5 2.8 9.3 6.3 13.3 3.5-4 6.8-8.5 6.3-13.3zm-6.3 3.5a3.5 3.5 0 1 1 3.5-3.5 3.5 3.5 0 0 1-3.5 3.4z" class="C"/><path d="M287 137.3a14.4 14.4 0 1 1 6.4-15.6 14.3 14.3 0 0 1-6.4 15.6z" class="H"/><path d="M283.8 123.4a4.4 4.4 0 1 1-4.4-4.4 4.4 4.4 0 0 1 4.4 4.4zm3.2 12v1.8a14.3 14.3 0 0 1-15.1 0v-1.8a7.6 7.6 0 0 1 15.1 0z" class="E"/><path d="M285.7 103.4c-.3-3.2-2.5-6.3-6.3-6.3s-6 3.2-6.3 6.3c-.5 5 2.8 9.3 6.3 13.3 3.5-4 6.8-8.5 6.3-13.3zm-6.3 3.5a3.5 3.5 0 1 1 3.5-3.5 3.5 3.5 0 0 1-3.5 3.5z" class="C"/><path d="M512.8 143.2H677v224.3H512.8z" class="E"/><path d="M677.5 368H512.3V142.7h165.3zm-164.2-1h163.3V143.7H513.3z" class="D"/><path d="M512.8 143.2H677V159H512.8z" class="C"/><path d="M677.5 159.4H512.3v-16.7h165.3zm-164.2-1h163.3v-14.7H513.3z" class="D"/><use xlink:href="#B" class="B"/><use xlink:href="#B" x="16.2" class="D"/><use xlink:href="#B" x="32.3" class="F"/><path d="M512.8 158.4l164.3 1H512.8z" class="D"/><path d="M524.2 319.7h80.6v7.5h-80.6z" class="H"/><path d="M524.2 334.4l141.4 4.5H524.2zm0 8.6l141.4 4.5H524.2zm0 8.6l141.4 4.5H524.2z" class="D"/><path d="M524.2 168.4h141.4v141.4H524.2z" class="K"/><path d="M521.8 317.5c0-.2.1-.4.1-.6 0 .3-.1.5-.1.8v-.1zm34.5 6a3 3 0 0 1-.4.2v-.1l.4-.1z" class="C"/><g class="B"><path d="M568.5 173.7c3.4-7 11.4-10.7 20-11.4s19.6.4 24.3 13.3c3.8 10.4 3.3 21.8 6.8 33.6s25.8 36.8 7.4 57.3c-16.6 18.4-61 18.3-69.8-7.4-7-20.4 13.2-46.8 13.6-55.7s-6.2-22-2.5-29.6z"/><path d="M568.2 186.4a45.9 45.9 0 0 1 1.4 18.5 17.6 17.6 0 0 1-1.4 4.7l-2 4.3c-1.5 2.8-3 5.6-4.3 8.5a62.5 62.5 0 0 0-5.6 17.7 46.6 46.6 0 0 0 1 18.3 39.6 39.6 0 0 1-2.3-9 43.1 43.1 0 0 1-.1-9.4 55.6 55.6 0 0 1 5.3-18.2l4.4-8.5c1.5-2.8 3-5.5 3.7-8.5a37.5 37.5 0 0 0 .7-9.1 72.8 72.8 0 0 0-.7-9.2zm46.8-1.8l4.8 18.2a71.9 71.9 0 0 0 3.4 8.7l4.7 8.2c1.7 2.7 3 5.5 4.5 8.4a51.9 51.9 0 0 1 3.2 9 32 32 0 0 1 .8 9.5 23.2 23.2 0 0 1-3.1 9.1 24.6 24.6 0 0 0 2.2-9.2 31.7 31.7 0 0 0-1.3-9.1 76.9 76.9 0 0 0-8-16.8 94.5 94.5 0 0 1-4.6-8.3 58.3 58.3 0 0 1-3.1-9 146.8 146.8 0 0 1-3.5-18.6z"/></g><path d="M587.2 229.8c-2 9-27 92.8-32 94-15 3.6-33 6.3-33-6 .2-19.4 36-71 53.4-88.3 11.3-11.3 13.7-8.4 11.6.4z" fill="#ad6359"/><path d="M522 322.2c-6.5-22 45.6-87.4 55.8-95.7s11.6-5.8 9.6 4.6-26 89.6-31.3 92.5-31.2 8.6-34.2-1.4z" class="C"/><g class="E"><use xlink:href="#C"/><circle cx="585.4" cy="229.5" r=".4"/><use xlink:href="#D"/><use xlink:href="#E"/><use xlink:href="#F"/><path d="M585.8 238a5.5 5.5 0 0 1-.1.6.4.4 0 0 1-.2.1.4.4 0 0 1-.5-.4.5.5 0 0 1 .5-.4.4.4 0 0 1 .4.2z"/><use xlink:href="#G"/><use xlink:href="#D" y="8.8"/><use xlink:href="#H"/><circle cx="571.9" cy="246.9" r=".4"/><use xlink:href="#H" x="13.5"/><use xlink:href="#D" x="-13.5" y="17.3"/><use xlink:href="#I"/><use xlink:href="#D" y="17.3"/><use xlink:href="#E" x="-13.6" y="17.3"/><use xlink:href="#C" x="-13.5" y="26"/><use xlink:href="#E" y="17.3"/><use xlink:href="#C" y="26"/><use xlink:href="#J"/><use xlink:href="#D" x="-13.5" y="26"/><use xlink:href="#J" x="13.7"/><path d="M582.2 250.8l-.2.8a.4.4 0 0 1-.4-.4.4.4 0 0 1 .4-.4 1 1 0 0 1 .2 0z"/><use xlink:href="#K"/><circle cx="558.3" cy="264.2" r=".4"/><use xlink:href="#L"/><circle cx="571.9" cy="264.2" r=".4"/><circle cx="554.9" cy="259.9" r=".4"/><use xlink:href="#M"/><use xlink:href="#D" x="-13.5" y="34.8"/><use xlink:href="#M" x="13.7"/><use xlink:href="#D" x="-37.3" y="47.8"/><path d="M552 273a.4.4 0 0 1-.9 0 .4.4 0 0 1 .9 0z"/><circle cx="558.3" cy="272.9" r=".4"/><use xlink:href="#H" y="26"/><circle cx="571.9" cy="272.9" r=".4"/><use xlink:href="#E" x="-23.7" y="30.3"/><use xlink:href="#F" x="-23.7" y="30.3"/><use xlink:href="#I" x="-13.7" y="26"/><use xlink:href="#D" x="-13.5" y="43.3"/><use xlink:href="#I" y="26"/><use xlink:href="#I" x="-37.3" y="39"/><use xlink:href="#D" x="-37.3" y="56.3"/><use xlink:href="#M" x="-10" y="21.5"/><use xlink:href="#E" x="-13.6" y="43.3"/><use xlink:href="#F" x="-13.5" y="43.3"/><use xlink:href="#E" y="43.3"/><circle cx="541.3" cy="277.2" r=".4"/><circle cx="548.1" cy="277.2" r=".4"/><circle cx="554.9" cy="277.2" r=".4"/><use xlink:href="#J" y="26"/><use xlink:href="#D" x="-13.5" y="52"/><path d="M531.6 290.2a.4.4 0 0 1-.7.3l.4-.7a.4.4 0 0 1 .3.4z"/><use xlink:href="#J" x="-23.6" y="39"/><use xlink:href="#D" x="-37.3" y="65"/><use xlink:href="#K" y="26"/><use xlink:href="#N"/><use xlink:href="#L" y="26"/><use xlink:href="#E" x="-37.3" y="47.8"/><use xlink:href="#C" x="-37.2" y="56.5"/><use xlink:href="#E" x="-23.7" y="47.8"/><use xlink:href="#C" x="-23.7" y="56.5"/><use xlink:href="#C" x="-17" y="56.5"/><use xlink:href="#O"/><circle cx="531.1" cy="298.9" r=".4"/><use xlink:href="#M" x="-23.6" y="39"/><use xlink:href="#D" x="-37.3" y="73.8"/><use xlink:href="#M" x="-10" y="39"/><circle cx="558.3" cy="298.9" r=".4"/><use xlink:href="#M" x="3.5" y="39"/><circle cx="534.5" cy="294.5" r=".4"/><circle cx="541.3" cy="294.5" r=".4"/><circle cx="548.1" cy="294.5" r=".4"/><circle cx="554.9" cy="294.5" r=".4"/><use xlink:href="#I" x="-13.7" y="52"/><path d="M568.5 294l-.3.8a.4.4 0 0 1-.2-.4.5.5 0 0 1 .4-.4z"/><use xlink:href="#E" x="-47.5" y="69.3"/><circle cx="531.1" cy="307.5" r=".4"/><use xlink:href="#I" x="-37.3" y="65"/><use xlink:href="#D" x="-37.3" y="82.3"/><use xlink:href="#M" x="-10" y="47.5"/><circle cx="558.3" cy="307.5" r=".4"/><use xlink:href="#P"/><circle cx="534.5" cy="303.2" r=".4"/><circle cx="541.3" cy="303.2" r=".4"/><circle cx="548.1" cy="303.2" r=".4"/><circle cx="554.9" cy="303.2" r=".4"/><use xlink:href="#G" x="-13.7" y="69.2"/><use xlink:href="#N" x="-33.9" y="26"/><circle cx="531.1" cy="316.2" r=".4"/><use xlink:href="#J" x="-23.6" y="65"/><use xlink:href="#D" x="-37.3" y="91"/><use xlink:href="#K" y="52"/><circle cx="558.3" cy="316.2" r=".4"/><use xlink:href="#P" y="8.8"/><use xlink:href="#E" x="-37.3" y="73.8"/><use xlink:href="#C" x="-37.2" y="82.5"/><use xlink:href="#E" x="-23.7" y="73.8"/><use xlink:href="#C" x="-23.7" y="82.5"/><use xlink:href="#C" x="-17" y="82.5"/><use xlink:href="#E" x="-47.5" y="86.8"/><use xlink:href="#O" x="-37.4" y="39"/><use xlink:href="#C" x="-40.6" y="95.5"/><use xlink:href="#O" x="-23.8" y="39"/><use xlink:href="#P" x="23.8" y="21.8"/><use xlink:href="#K" x="-23.8" y="56.3"/><circle cx="534.5" cy="320.5" r=".4"/><circle cx="541.3" cy="320.5" r=".4"/><circle cx="548.1" cy="320.5" r=".4"/><circle cx="554.9" cy="320.5" r=".4"/></g><path d="M557.5 305.5l-1.2 4.2 74.8-.1c-4.6-37-9.2-69.3-22.6-83.4-4-4.2-14.7-10-22-4.6-8 5.7-26.6 34.5-28.7 39-4.2 9 3 22 3 22z" class="C"/><path d="M556.3 263.4a20.4 20.4 0 0 1 2.6-5.4 93 93 0 0 1 2.2-3.4 23 23 0 0 1 1-2.2 33.3 33.3 0 0 0 1.6-3.2c0-.1.2 0 .2.1a32 32 0 0 0-1.3 3.2l4.2-6.2c.1-.1.2 0 .1.1-1.6 2-7 11.3-8 13.6a15.6 15.6 0 0 0-1.8 7.5 33.7 33.7 0 0 0 1 8c.1.2-.2.3-.2.1a22.2 22.2 0 0 1-1.5-6 17.4 17.4 0 0 1 .2-6.2z" class="B"/><g class="E"><use xlink:href="#D" x="10.2" y="-4.2"/><path d="M579 229.5a.4.4 0 0 1-.4.4h-.2l.5-.7a.4.4 0 0 1 .1.2z"/><circle cx="585.4" cy="229.5" r=".4"/><circle cx="592.2" cy="229.5" r=".4"/><path d="M582.5 225.2a.4.4 0 0 1-.4.4z"/><use xlink:href="#K" x="37.3" y="-39"/><path d="M572.3 238.2a.4.4 0 0 1-.4.4l.4-.5a.2.2 0 0 1 0 .1z"/><use xlink:href="#F"/><use xlink:href="#I" x="10.3" y="-4.3"/><use xlink:href="#D" x="10.2" y="13"/><path d="M575.7 234a.4.4 0 0 1-.4.4h-.2l.5-.7a.5.5 0 0 1 .1.3z"/><use xlink:href="#D" y="8.8"/><use xlink:href="#Q"/><circle cx="571.9" cy="246.9" r=".4"/><use xlink:href="#H" x="13.5"/><circle cx="585.4" cy="246.9" r=".4"/><circle cx="592.2" cy="246.9" r=".4"/><use xlink:href="#I"/><use xlink:href="#D" y="17.3"/><use xlink:href="#M" x="27.3" y="-17.5"/><use xlink:href="#C" x="-13.5" y="26"/><use xlink:href="#E" y="17.3"/><use xlink:href="#C" y="26"/><use xlink:href="#C" x="7" y="26"/><use xlink:href="#O" x="23.7" y="-30.5"/><use xlink:href="#D" x="-13.5" y="26"/><use xlink:href="#J" x="13.7"/><use xlink:href="#D" y="26"/><use xlink:href="#K" x="37.3" y="-13"/><circle cx="558.3" cy="264.2" r=".4"/><use xlink:href="#L"/><circle cx="571.9" cy="264.2" r=".4"/><use xlink:href="#L" x="13.5"/><circle cx="585.4" cy="264.2" r=".4"/><circle cx="592.2" cy="264.2" r=".4"/><use xlink:href="#M"/><use xlink:href="#D" x="-13.5" y="34.8"/><use xlink:href="#M" x="13.7"/><use xlink:href="#D" y="34.8"/><use xlink:href="#M" x="27.3"/><circle cx="558.3" cy="272.9" r=".4"/><use xlink:href="#H" y="26"/><circle cx="571.9" cy="272.9" r=".4"/><use xlink:href="#H" x="13.5" y="26"/><circle cx="585.4" cy="272.9" r=".4"/><circle cx="592.2" cy="272.9" r=".4"/><use xlink:href="#I" x="-13.7" y="26"/><use xlink:href="#D" x="-13.5" y="43.3"/><use xlink:href="#I" y="26"/><use xlink:href="#D" y="43.3"/><use xlink:href="#M" x="27.3" y="8.5"/><path d="M599.4 221a.4.4 0 1 1-.5-.4l.3.1a.5.5 0 0 1 .2.3z"/><circle cx="599" cy="229.5" r=".4"/><circle cx="605.8" cy="229.5" r=".4"/><use xlink:href="#N" x="37.3" y="-65"/><use xlink:href="#L" x="37.3" y="-39"/><use xlink:href="#I" x="23.7" y="-4.3"/><use xlink:href="#D" x="23.7" y="13"/><use xlink:href="#M" x="51" y="-21.8"/><use xlink:href="#O" x="27" y="-52"/><use xlink:href="#H" x="37.3" y="-13"/><use xlink:href="#O" x="40.6" y="-52"/><circle cx="599" cy="246.9" r=".4"/><circle cx="605.8" cy="246.9" r=".4"/><use xlink:href="#Q" x="23.7" y="13"/><path d="M619.7 247h0a.4.4 0 0 1-.3.2.4.4 0 0 1-.5-.4.5.5 0 0 1 .5-.4.2.2 0 0 1 .1 0l.2.7z"/><use xlink:href="#E" x="23.7" y="4.3"/><use xlink:href="#F" x="23.8" y="4.3"/><use xlink:href="#E" x="37.3" y="4.3"/><use xlink:href="#D" x="33.9" y="17.3"/><use xlink:href="#C" x="20.4" y="26"/><use xlink:href="#O" x="37.2" y="-30.5"/><use xlink:href="#Q" x="23.7" y="21.5"/><use xlink:href="#E" x="47.5" y="17.3"/><use xlink:href="#N" x="37.3" y="-39"/><use xlink:href="#L" x="37.3" y="-13"/><use xlink:href="#N" x="50.9" y="-39"/><circle cx="616" cy="251.2" r=".4"/><circle cx="599" cy="264.2" r=".4"/><circle cx="605.8" cy="264.2" r=".4"/><use xlink:href="#K" x="61"/><use xlink:href="#N" x="61.1" y="-26"/><use xlink:href="#E" x="23.7" y="21.8"/><use xlink:href="#M" x="40.8"/><use xlink:href="#E" x="37.3" y="21.8"/><circle cx="616" cy="259.9" r=".4"/><circle cx="622.8" cy="259.9" r=".4"/><circle cx="599" cy="272.9" r=".4"/><circle cx="605.8" cy="272.9" r=".4"/><use xlink:href="#Q" x="23.7" y="39"/><use xlink:href="#O" x="50.8" y="-13"/><path d="M626 273.2a.4.4 0 0 1-.2-.4.3.3 0 0 1 .1-.3c0 .2.1.4.1.6z"/><use xlink:href="#E" x="23.7" y="30.3"/><use xlink:href="#F" x="23.8" y="30.3"/><use xlink:href="#E" x="37.3" y="30.3"/><use xlink:href="#D" x="33.9" y="43.3"/><use xlink:href="#I" x="47.5" y="26"/><use xlink:href="#F" x="-13.5" y="43.3"/><use xlink:href="#E" y="43.3"/><use xlink:href="#F" y="43.3"/><use xlink:href="#I" x="10.3" y="39"/><use xlink:href="#D" x="10.2" y="56.3"/><use xlink:href="#J" y="26"/><use xlink:href="#D" x="-13.5" y="52"/><use xlink:href="#J" x="13.7" y="26"/><use xlink:href="#D" y="52"/><use xlink:href="#K" x="37.3" y="13"/><use xlink:href="#L" y="26"/><use xlink:href="#N" x="13.6"/><use xlink:href="#L" x="13.5" y="26"/><use xlink:href="#J" x="24" y="39"/><use xlink:href="#D" x="10.2" y="65"/><use xlink:href="#C" x="-17" y="56.5"/><use xlink:href="#O"/><use xlink:href="#C" x="-3.3" y="56.5"/><use xlink:href="#O" x="13.5"/><use xlink:href="#Q" y="52"/><path d="M558.7 299a.4.4 0 0 1-.3.4l.1-.8a.4.4 0 0 1 .2.4z"/><use xlink:href="#M" x="3.5" y="39"/><circle cx="571.9" cy="298.9" r=".4"/><use xlink:href="#M" x="17" y="39"/><circle cx="585.4" cy="298.9" r=".4"/><circle cx="592.2" cy="298.9" r=".4"/><use xlink:href="#I" x="-13.7" y="52"/><use xlink:href="#D" x="-13.5" y="69.3"/><use xlink:href="#I" y="52"/><use xlink:href="#D" y="69.3"/><use xlink:href="#M" x="27.3" y="34.5"/><circle cx="558.3" cy="307.5" r=".4"/><use xlink:href="#F" x="-13.5" y="69.3"/><circle cx="571.9" cy="307.5" r=".4"/><use xlink:href="#F" y="69.3"/><circle cx="585.4" cy="307.5" r=".4"/><circle cx="592.2" cy="307.5" r=".4"/><use xlink:href="#G" x="-13.7" y="69.2"/><use xlink:href="#D" x="-13.5" y="78"/><use xlink:href="#G" y="69.2"/><use xlink:href="#D" y="78"/><use xlink:href="#Q" y="69.2"/><use xlink:href="#I" x="23.7" y="39"/><use xlink:href="#D" x="23.7" y="56.3"/><use xlink:href="#M" x="51" y="21.5"/><use xlink:href="#E" x="47.5" y="43.3"/><use xlink:href="#F" x="47.6" y="43.3"/><use xlink:href="#N" x="37.3" y="-13"/><use xlink:href="#L" x="37.3" y="13"/><use xlink:href="#N" x="50.9" y="-13"/><circle cx="616" cy="277.2" r=".4"/><circle cx="622.8" cy="277.2" r=".4"/><use xlink:href="#J" x="37.4" y="39"/><use xlink:href="#D" x="23.7" y="65"/><use xlink:href="#K" x="61" y="26"/><use xlink:href="#N" x="61.1"/><use xlink:href="#L" x="61.1" y="26"/><use xlink:href="#E" x="23.7" y="47.8"/><use xlink:href="#C" x="23.8" y="56.5"/><use xlink:href="#E" x="37.3" y="47.8"/><use xlink:href="#O" x="47.4"/><use xlink:href="#C" x="44.2" y="56.5"/><circle cx="599" cy="298.9" r=".4"/><circle cx="605.8" cy="298.9" r=".4"/><use xlink:href="#M" x="51" y="39"/><use xlink:href="#E" x="47.5" y="60.8"/><use xlink:href="#M" x="64.6" y="39"/><use xlink:href="#E" x="23.7" y="56.3"/><use xlink:href="#F" x="23.8" y="56.3"/><use xlink:href="#E" x="37.3" y="56.3"/><circle cx="616" cy="294.5" r=".4"/><circle cx="622.8" cy="294.5" r=".4"/><path d="M629.2 294.8a.4.4 0 0 1-.1-.3.7.7 0 0 1 0-.2c.1.2.1.3.1.5z"/><circle cx="599" cy="307.5" r=".4"/><circle cx="605.8" cy="307.5" r=".4"/><use xlink:href="#M" x="51" y="47.5"/><use xlink:href="#E" x="47.5" y="69.3"/><use xlink:href="#F" x="47.6" y="69.3"/><use xlink:href="#O" x="27" y="17.2"/><use xlink:href="#H" x="37.3" y="56.2"/><use xlink:href="#O" x="40.6" y="17.2"/><circle cx="616" cy="303.2" r=".4"/><circle cx="622.8" cy="303.2" r=".4"/><use xlink:href="#D" x="47.5" y="78"/></g><g class="B"><path d="M586.3 236.8c-.4 5.7-1 11.4-2 17l-3 17c-1 5.6-2 11.2-3 16.8q-.7 4.2-1.4 8.4l-1.2 8.5.8-8.5c.3-2.8.7-5.7 1-8.5l8.6-50.6z"/><use xlink:href="#R"/><use xlink:href="#R" x="-1.5" y="11.8"/><use xlink:href="#R" x="-3.2" y="23.5"/><use xlink:href="#R" x="-4.7" y="35.3"/><use xlink:href="#R" x="-6.3" y="47.1"/></g><path d="M632.6 273.4c1 2.8-6.3 9-6.2 10.3.1 3 4 17.2 7.6 26h12.7c9.4-10 23.3-28 21.3-37.8-2.6-13-53.5-45.8-61.6-48.8s-8.5 3.4-3.6 10.7 29 37 30 39.7z" fill="#eb9481"/><path d="M651 306l-23-25 4-7c0-1-21-25.2-29.3-38.6s-5-17.6 10.5-10 52.8 35.7 54.8 45c3 14.3-17 35.6-17 35.6z" class="C"/><g class="E"><circle cx="605.8" cy="229.5" r=".4"/><use xlink:href="#Q" x="23.7" y="-4.5"/><use xlink:href="#E" x="47.5" y="-8.7"/><use xlink:href="#L" x="37.3" y="-39"/><use xlink:href="#N" x="50.9" y="-65"/><use xlink:href="#D" x="23.7" y="13"/><use xlink:href="#M" x="51" y="-21.8"/><use xlink:href="#E" x="47.5"/><use xlink:href="#F" x="47.6"/><use xlink:href="#E" x="61.1"/><use xlink:href="#H" x="37.3" y="-13"/><use xlink:href="#O" x="40.6" y="-52"/><use xlink:href="#D" x="33.9" y="8.8"/><use xlink:href="#G" x="47.5"/><use xlink:href="#Q" x="23.7" y="13"/><use xlink:href="#O" x="50.8" y="-39"/><use xlink:href="#H" x="61.1"/><circle cx="632.9" cy="246.9" r=".4"/><use xlink:href="#D" x="57.7" y="21.8"/><use xlink:href="#E" x="37.3" y="4.3"/><use xlink:href="#D" x="33.9" y="17.3"/><use xlink:href="#I" x="47.5"/><use xlink:href="#D" x="47.5" y="17.3"/><use xlink:href="#M" x="74.8" y="-17.5"/><use xlink:href="#E" x="47.5" y="17.3"/><use xlink:href="#C" x="47.6" y="26"/><use xlink:href="#E" x="61.1" y="17.3"/><use xlink:href="#O" x="71.2" y="-30.5"/><use xlink:href="#C" x="68" y="26"/><use xlink:href="#O" x="84.7" y="-30.5"/><circle cx="616" cy="251.2" r=".4"/><circle cx="622.8" cy="251.2" r=".4"/><use xlink:href="#D" x="47.5" y="26"/><circle cx="636.3" cy="251.2" r=".4"/><circle cx="643.1" cy="251.2" r=".4"/><use xlink:href="#L" x="84.8" y="-13"/><use xlink:href="#L" x="61.1"/><circle cx="632.9" cy="264.2" r=".4"/><use xlink:href="#D" x="57.7" y="39"/><use xlink:href="#J" x="85" y="13"/><use xlink:href="#D" x="71.2" y="39"/><circle cx="660.1" cy="264.2" r=".4"/><circle cx="622.8" cy="259.9" r=".4"/><use xlink:href="#D" x="47.5" y="34.8"/><circle cx="636.3" cy="259.9" r=".4"/><circle cx="643.1" cy="259.9" r=".4"/><use xlink:href="#M" x="88.3"/><use xlink:href="#E" x="84.7" y="21.8"/><circle cx="632.9" cy="272.9" r=".4"/><use xlink:href="#D" x="57.7" y="47.8"/><use xlink:href="#G" x="71.3" y="39"/><use xlink:href="#D" x="71.2" y="47.8"/><circle cx="660.1" cy="272.9" r=".4"/><use xlink:href="#D" x="84.8" y="47.8"/><use xlink:href="#D" x="47.5" y="43.3"/><use xlink:href="#M" x="74.8" y="8.5"/><use xlink:href="#E" x="71.3" y="30.3"/><use xlink:href="#F" x="71.3" y="30.3"/><use xlink:href="#E" x="84.7" y="30.3"/><use xlink:href="#F" x="85" y="30.3"/><use xlink:href="#E" x="61.1" y="43.3"/><use xlink:href="#D" x="57.7" y="56.3"/><use xlink:href="#I" x="71.3" y="39"/><use xlink:href="#D" x="71.2" y="56.3"/><use xlink:href="#I" x="84.8" y="39"/><path d="M667 281.2a7.5 7.5 0 0 1-.3.8.4.4 0 0 1-.4-.4.5.5 0 0 1 .4-.4.4.4 0 0 1 .2.1z"/><circle cx="636.3" cy="277.2" r=".4"/><circle cx="643.1" cy="277.2" r=".4"/><use xlink:href="#L" x="84.8" y="13"/><use xlink:href="#N" x="98.3" y="-13"/><use xlink:href="#L" x="98.5" y="13"/><use xlink:href="#D" x="57.7" y="65"/><use xlink:href="#J" x="85" y="39"/><use xlink:href="#D" x="71.2" y="65"/><use xlink:href="#J" x="98.5" y="39"/><use xlink:href="#Q" x="47.5" y="52"/><use xlink:href="#E" x="71.3" y="47.8"/><use xlink:href="#C" x="71.3" y="56.5"/><use xlink:href="#E" x="84.7" y="47.8"/><use xlink:href="#C" x="85" y="56.5"/><use xlink:href="#M" x="85" y="39"/><use xlink:href="#D" x="71.2" y="73.8"/><circle cx="643.1" cy="294.5" r=".4"/><use xlink:href="#F" x="71.3" y="56.3"/><use xlink:href="#E" x="84.7" y="56.3"/><use xlink:href="#H" x="84.8" y="56.2"/></g><path d="M650.6 309.6l4-4.2-25.4-26.7-2.4 3.4 23.8 27.4z" class="C"/><path d="M630.5 279.6a75.4 75.4 0 0 1 5.7 5.7l16.3 18c.1.1 0 .2-.1.1a251 251 0 0 1-11.4-11.7l-5.5-6a73.5 73.5 0 0 1-5.2-6.1c0-.1.1-.1.1-.1zm-18-28.8l3 2.6-4.7-6.4c0-.1 0-.1.1-.1a188.5 188.5 0 0 1 13.3 16.8c0 .1-.1.2-.1.1l-11.7-13c-.1-.1 0-.2.1-.1z" class="B"/><path d="M612.6 302.2c-.5.1-7.4 1-5.8 5.8a4.5 4.5 0 0 0 1 1.7H646a3.7 3.7 0 0 0-.1-1.1c-1-3.2-4.6-3.6-4.6-3.6s2.3-2.7 1.7-4.5c-1.3-3.6-6-4-6-4a4.7 4.7 0 0 0 .5-5.6c-1-2-4.2-3-7.6-4.8-2.7-1.3-4-4.8-4-4.8a333 333 0 0 1 .2 8.6c-4.2 3-20.7.8-20 7.2.4 3.7 6 5 6.5 5z" class="I"/><g class="B"><path d="M633.2 309.6a38.5 38.5 0 0 0 8.3-4.6c.1-.1 0-.2-.1-.1a68.9 68.9 0 0 1-12.4 4.7zM612 302c8.8.6 17-1.7 24.8-5.2.1-.1.2.1.1.2a34 34 0 0 1-13 5.5 23.1 23.1 0 0 1-11.9-.2c-.2 0-.2-.3 0-.3z"/><path d="M627.5 284.2a8.5 8.5 0 0 0 1.7 1.6 37.7 37.7 0 0 0 5 2.5 7.5 7.5 0 0 1 3.5 3.4 4.5 4.5 0 0 1-.7 4.7.1.1 0 0 0 .1.2 13.3 13.3 0 0 1 3.1.9 4.5 4.5 0 0 1 1.9 1.8 5.7 5.7 0 0 1-.8 5.7 9.7 9.7 0 0 1 3.1 1.5 4.1 4.1 0 0 1 1.2 2 4.5 4.5 0 0 1 .2 1.3h1a4.1 4.1 0 0 0-1.7-4 7.3 7.3 0 0 0-3.3-.9c1.5-1.7 2.3-4 1.2-6a4.2 4.2 0 0 0-2.3-1.9 14 14 0 0 0-3.5-.5 4.9 4.9 0 0 0 1.8-4 5.2 5.2 0 0 0-2.5-4 24.6 24.6 0 0 0-5.3-2.3 12.1 12.1 0 0 1-2.7-1.3 5.6 5.6 0 0 1-2-2.5c-.1-.2-.1 0 0 .1a6.9 6.9 0 0 0 1.1 2z"/></g><path d="M600.5 223.4c-.4 1.4-7.7 10.2-14 9.6-2-.2-1.4-11.7-1.4-11.7l-2-13 16.6-9.3.7 7.5c0 .2 0 .4 0 .6s.1.4.1.7l.2 2c0 .5.1 1 .1 1.4l.1 1.5a80.4 80.4 0 0 1-.1 10.8z" class="I"/><path d="M600 206.4a24.6 24.6 0 0 1-15.3 13.9l-2-12 16.6-9.3.7 7.5z" class="B"/><path d="M564.8 190.8c-1 21.5 11.6 24.6 16.3 24.8 4.2.2 18.5.4 21.8-21s-6.3-28.5-16-29.5-21 4-22.2 25.6z" class="I"/><g class="B"><path d="M571.8 186.2a12.1 12.1 0 0 0 1.5-.3 2.4 2.4 0 0 0 1.4-.6.8.8 0 0 0 0-.9 1.9 1.9 0 0 0-1.9-.4 2.8 2.8 0 0 0-1.7 1 .8.8 0 0 0 .8 1.3zm14.5.3a14.5 14.5 0 0 1-1.5-.3 2.3 2.3 0 0 1-1.4-.6.8.8 0 0 1 0-.9 1.9 1.9 0 0 1 1.9-.5 2.8 2.8 0 0 1 1.8.9.8.8 0 0 1-.7 1.3zm-2.8 5.5c0-.1.1.1.1.1 0 1.5.1 3.2 1.5 3.6v.1c-1.6-.2-2-2.5-1.6-3.8z"/><path d="M584.8 190.5c2.4-.2 2.5 4.6.3 4.7s-2.3-4.6-.3-4.7z"/><path d="M585.7 190.7c.4.3.8.7 1.3.8s1-.5 1.4-1c0 0 .1 0 .1.1 0 1-.3 1.8-1.2 2s-1.5-.6-1.8-1.5c-.1-.1.1-.4.3-.3zm-11 1c0-.1-.1.1-.1.1.1 1.5-.1 3.2-1.4 3.7v.1c1.6-.3 1.8-2.5 1.5-4z"/><path d="M573.3 190c-2.4-.1-2.4 4.6-.2 4.7s2.2-4.6.2-4.7z"/><path d="M572.3 190.4c-.4.3-.7.7-1.2.7s-1-.5-1.2-1c0-.1-.1 0-.1 0 0 1 .3 1.8 1 2s1.4-.6 1.6-1.5c0-.1-.1-.3-.2-.2zm10.3 13c-.3.4-.6 1-1.2 1a3.8 3.8 0 0 1-1.6-.2s-.1 0 0 .1a2 2 0 0 0 1.9.6 1.5 1.5 0 0 0 1-1.4c0-.1-.1-.1-.1 0zm-6.2-5.2s-.2 2.2-.2 3.2c0 .1.3.1.6.2h0a4.9 4.9 0 0 0 4.7-1.9.1.1 0 0 0-.1-.1 7.5 7.5 0 0 1-4.5 1.4c-.1-.3.6-3.7.4-3.7a8.9 8.9 0 0 0-2.3.6c.4-4.6 1.5-9 1.8-13.6a.2.2 0 0 0-.3-.1c-1.5 4.6-2 10-2.6 14.6 0 .6 2-.2 2.5-.4z"/><path d="M577 201.2a5.7 5.7 0 0 0 2.3 1.8 2.6 2.6 0 0 0 1.6.1c1.2-.3 1.2-1.3 1-2.2a6.5 6.5 0 0 0-.5-1.4 7.5 7.5 0 0 1-4.4 1.6z"/></g><path d="M579.4 203a2.6 2.6 0 0 0 1.6.1c1.2-.3 1.2-1.3 1-2.2a2.7 2.7 0 0 0-2.6 2.1z" fill="#ff9cbd"/><path d="M601.7 194.7c-2.3-.3-8-7-7.5-18.4l1 11.7c.7 1.5-3.2-3.8-3-13 0 0-5.3 3.3-9.6 4.3s-7 .7-7.3.4 6.2-2 8-3.8c0 0-11.8 4.6-17 4.7a19 19 0 0 1 7.9-17.4c8.5-4.8 21 1.8 24.3 5.3 0 0 4 .8 8 7s-2.4 19.4-5 19z" class="B"/><path d="M598.7 195.8s4.4-7 7.5-5.3-.1 11.4-3.6 13a3.6 3.6 0 0 1-4.9-1.8z" class="I"/><path d="M605.3 193.3s.1.1 0 .1c-2.5 1-3.7 3.5-4.5 6a2 2 0 0 1 3-.7c.1 0 0 .2-.1.1a2.2 2.2 0 0 0-2.4.9 10.9 10.9 0 0 0-1.1 2c-.1.2-.5.1-.4-.1a.1.1 0 0 1 0-.1c-.2-3.2 2.2-7.7 5.6-8.2z" class="B"/><path d="M584.8 221.2l3 9.8 12.7-11 3 4-13 17.3-3.3-8.5-6 5.3 1.6-14.3z" class="C"/><path d="M581.6 231l1-7c0-.1.1-.1.2 0 .3 2.3-1 11.3-1.2 13.4h0l5.7-4.5c.8 1.4 3.2 7.5 3.3 8 2-3 10-13.4 12.3-16a.1.1 0 0 1 .1.1 334 334 0 0 1-12.4 17.2 92.9 92.9 0 0 1-3.4-9 55 55 0 0 1-6.4 5.6 77.6 77.6 0 0 1 .8-7.8z" class="B"/><g class="I"><path d="M578.2 276.5c2.6 2.4 1 5.7 1 5.7a7.6 7.6 0 0 1 4.4 2.6c2 2.5-1.2 6.5-1.2 6.5a9.4 9.4 0 0 1 4.2 3.5c1.5 2.6-1 7-1 7a8.2 8.2 0 0 1 1.8 5.4c-.4 5.2-7.6 9-12 11.3s-19.5 5-22.4 5.7l-15.5-28.8s17.2-16.4 23-18.5c4.8-1.7 15-3.2 18-.5z"/><path d="M539.4 293.6c-5 4-20.5 19.6-16.8 27.4s16.3 6.8 33.6 2.6z"/></g><g class="C"><path d="M539.4 293.6c-5 4-21.4 19.3-17 29.3 3.4 8 18 8.7 35.5 4.5z"/><path d="M558 327.3c-3.2.8-6.3 1.4-9.3 1.8l-1 .1a55.9 55.9 0 0 1-13 .4c-.1 0-.3 0-.4-.1-6-.7-10.3-3-12-6.7-4.3-10 12-25.2 17-29.2l12.5 22.8z"/></g><g class="E"><use xlink:href="#M" x="-23.6" y="39"/><circle cx="531.1" cy="307.5" r=".4"/><use xlink:href="#I" x="-37.3" y="65"/><use xlink:href="#D" x="-37.3" y="82.3"/><circle cx="534.5" cy="303.2" r=".4"/><circle cx="541.3" cy="303.2" r=".4"/><use xlink:href="#N" x="-33.9" y="26"/><circle cx="531.1" cy="316.2" r=".4"/><use xlink:href="#J" x="-23.6" y="65"/><use xlink:href="#D" x="-37.3" y="91"/><path d="M552 316.4a.4.4 0 0 1-.4.2.4.4 0 0 1-.5-.4.5.5 0 0 1 .5-.4h0z"/><use xlink:href="#P" y="8.8"/><use xlink:href="#E" x="-37.3" y="73.8"/><use xlink:href="#C" x="-37.2" y="82.5"/><use xlink:href="#E" x="-23.7" y="73.8"/><use xlink:href="#E" x="-47.5" y="86.8"/><use xlink:href="#O" x="-37.4" y="39"/><use xlink:href="#C" x="-40.6" y="95.5"/><use xlink:href="#O" x="-23.8" y="39"/><use xlink:href="#P" x="23.8" y="21.8"/><use xlink:href="#K" x="-23.8" y="56.3"/><circle cx="534.5" cy="320.5" r=".4"/><circle cx="541.3" cy="320.5" r=".4"/><circle cx="548.1" cy="320.5" r=".4"/><path d="M535 329.2a.5.5 0 0 1-.3.4c-.1 0-.3 0-.4-.1a.4.4 0 0 1 .3-.8.5.5 0 0 1 .5.4z"/><use xlink:href="#H" x="-23.7" y="82.2"/><path d="M548.5 329l-1 .1a.2.2 0 0 1 0-.1.4.4 0 0 1 .4-.4.4.4 0 0 1 .4.4z"/></g><g class="B"><path d="M549 327.7c-5.6-13-13.4-25.5-14.6-27.8 0-.1-.2 0-.2.1 1.3 2.2 8.7 17.6 14.6 27.8.1.2.3 0 .2-.1zm29.8-46c-5.5.6-10.6 2.8-15.8 4.7-.1 0 0 .2.1.2 5-2 10.6-3 15.8-4.7a.2.2 0 0 0-.1-.3zm3.2 9.2a14.4 14.4 0 0 0-3.6 1.3l-11 5.3c-.1.1 0 .2.1.2l11-4.8a16.9 16.9 0 0 0 3.5-1.6.2.2 0 0 0-.1-.3zm3.5 11a10.2 10.2 0 0 0-3.2 1.3l-10 4.7c-.1.1 0 .2.1.2l10.3-4.5a9.7 9.7 0 0 0 2.9-1.6.1.1 0 0 0 0 0z"/><path d="M538.8 294a48.7 48.7 0 0 0-5.1 4.5l-1.2 1.3-.5.4a25.6 25.6 0 0 0-2.1 1.6 38.8 38.8 0 0 0-3.7 3.5c-.1.1 0 .2.1.1a34.1 34.1 0 0 1 4-3.3l.6-.4-2 2.3a66.3 66.3 0 0 0-4.5 6.7c-.1.1.1.2.2.1 2.5-4 13.4-15 14.6-16.4s.5-1-.4-.3z"/></g><path d="M556.2 323.6l-.4.1z" class="I"/><g class="C"><path d="M522 317c0 .3-.1.5-.1.8v-.1c.1-.2.1-.4.1-.6z"/><path d="M522 317c0 .3-.1.5-.1.8v-.1c.1-.2.1-.4.1-.6zm36 10.3h0l-1 .3z"/></g><path d="M522 317c0 .3-.1.5-.1.8v-.1c.1-.2.1-.4.1-.6zm125.4-7.2h-1l.3-.4c.1-.1 0-.2 0-.3v.2z" class="K"/><path d="M293 143.2H457v224.3H293z" class="E"/><path d="M457.6 368H292.4V142.7h165.2zm-164.2-1h163.2V143.7H293.4z" class="D"/><path d="M293 143.2H457V159H293z" class="C"/><path d="M457.6 159.4H292.4v-16.7h165.2zm-164.2-1h163.2v-14.7H293.4z" class="D"/><path d="M307.6 151.2a4 4 0 1 1-3.9-3.9 4 4 0 0 1 3.9 3.9z" class="B"/><path d="M323.8 151.2a4 4 0 1 1-3.9-3.9 4 4 0 0 1 3.9 3.9z" class="D"/><path d="M340 151.2a4 4 0 1 1-3.9-3.9 4 4 0 0 1 3.9 3.9z" class="F"/><path d="M293 158.4l164.3 1H293z" class="D"/><path d="M304.3 319.7H385v7.5h-80.6z" class="H"/><path d="M304.3 334.4l141.4 4.5H304.3zm0 8.6l141.4 4.5H304.3zm0 8.6l141.4 4.5H304.3z" class="D"/><path d="M304.3 168.4h141.4v141.4H304.3z" class="K"/><g class="G"><path d="M359.3 233c7.5 7.8 46 44.4 62.6 40.8 20.2-4.3 43.5-16.8 52.6-25.6 5-5-20-29.5-25-25.6a237 237 0 0 1-31.1 17.7c-3.4 1.4-32.7-13.4-49.8-19.2-15.4-5-14.6 6.5-9.4 12z"/><path d="M488.5 237c-4.4 6-18.3 14.8-22.5 15.6s-19.8-22.3-18.4-26.4 18-23.2 25.2-25.2 20.3 29.8 15.7 36z"/><path d="M449.8 222.5s2.6-9.4 2-18c-.5-7.2-2-17.8 1.8-18.2 8-1 11.8 25.6 11.8 25.6s-.1 12-8 13.5a7.9 7.9 0 0 1-7.7-3z"/><path d="M462 206.3c-.4 4 4.5 2 4.5 2s-6.4 4.3-5.2 8.5 7 1.7 7.4 1.5c-.3.2-6 4.3-4.4 8.4 1.7 4.3 7 .8 7.4.6-.2.3-3.4 4.6-1.5 7.4 3.4 5 11.8-5.8 16.6-6l1.6 8.3s8.3-10 7.4-16.4a4.1 4.1 0 0 0-3.7-3.7s3-3 1.8-6.2c-.6-1.7-4-2.2-4-2.2s2.3-2.4 1-5.3c-1-2.3-4-2.4-4-2.4s1-3.4-.6-5.4c-3.5-4-23.8 2.3-24.6 10.8z"/></g><g class="B"><path d="M486.7 201a.1.1 0 1 0 0-.1 36.8 36.8 0 0 0-20.5 7.8c-.2.2 0 .5.2.4a75.3 75.3 0 0 1 20.3-8.1zm3.6 7.6c.1 0 .1-.2 0-.2a34 34 0 0 0-21.8 10c-.2.2-.2.6.1.4 4-3.7 15-8.6 21.7-10zM471.5 228a47 47 0 0 1 20.4-11c.1 0 .1-.2 0-.2-4 .1-8.8 2-12.3 3.8a21.1 21.1 0 0 0-8.3 7.2c-.1.1 0 .3.1.2z"/><path d="M466.4 208.4c-.2.2.3.3.1.5-1 .8-6 6-4.6 8.3 1 1.8 4 1.7 5.3 1.2l3-1.3-2.4 2.3a13.1 13.1 0 0 0-2.6 3.4 4.8 4.8 0 0 0-.5 3.9 2.7 2.7 0 0 0 2.9 1.9 8.2 8.2 0 0 0 3.8-1.5l3.2-2-2.3 3a12.2 12.2 0 0 0-1.6 2.8 5.1 5.1 0 0 0-.4 2.9 2.4 2.4 0 0 0 1.7 1.9 5.3 5.3 0 0 0 3-.5 41.9 41.9 0 0 0 5.8-3.3c1-.6 2-1.2 3-1.7a8.1 8.1 0 0 1 3.2-1.2 8.6 8.6 0 0 0-3 1.4 39 39 0 0 0-2.7 2 37 37 0 0 1-5.8 3.7 6.3 6.3 0 0 1-3.6.7 3.5 3.5 0 0 1-2.7-2.7 6.3 6.3 0 0 1 .4-3.7 13.8 13.8 0 0 1 1.7-3.1l1 1a9.4 9.4 0 0 1-4.5 1.8 4 4 0 0 1-2.6-.7 4.5 4.5 0 0 1-1.6-2.1 6 6 0 0 1 .6-4.9 14.3 14.3 0 0 1 2.9-3.7l.6 1c-1.5.6-5 1-7-1.5-2-3.8 4.4-8.8 5.6-9.6z"/><path d="M466.5 208.5a8 8 0 0 1-2.4 0 1.8 1.8 0 0 1-1.5-1.1 3.7 3.7 0 0 1 .1-2.1l.8-2.4a6.4 6.4 0 0 0-1.6 2.1 3.7 3.7 0 0 0-.3 2.8 2.6 2.6 0 0 0 1 1.2 2.7 2.7 0 0 0 1.4.4 4.2 4.2 0 0 0 2.5-.9z"/></g><path d="M447 223l20.2 35s-36.6 22-53.4 16.2-45.5-31-51.6-37c-13.3-12.7-6.2-22 7-16.5l48.2 18.6c2 .2 29.5-16.5 29.5-16.5z" class="F"/><path d="M441.3 233.3a1.8 1.8 0 1 0-.4-2.5 1.8 1.8 0 0 0 .4 2.5zm-8 4.7a1.8 1.8 0 1 0-.4-2.5 1.8 1.8 0 0 0 .4 2.5zm-37.6 26.4a308.1 308.1 0 0 1-33.5-26.9c-11.6-11-7.7-19.5 2.2-18z" class="B"/><path d="M393.6 309.8l-24.3-90c-2-2.5-8.3-3.2-13.7-2.6a23.4 23.4 0 0 0-4.2.9h-.1a9.8 9.8 0 0 0-3.1 1.5c-11 8.7-29 61.3-38 90.3z" class="F"/><g class="B"><path d="M361 241.2l4-7.7 5 5.5-1.2 5.5-5 .6-2.7-4z"/><path d="M374.4 309.8l2.8-10.7-8.6-54.6-5 .6-2.4 56.3 4.7 8.3h8.5z"/></g><path d="M366.4 232.8c-4.8 1.7-14-4.8-18-10.5-.3-.4-.1-4.8-.2-10.3l-.6-10.3c-.1-.7 2.4.3 2.4.3l19 2.4a53.2 53.2 0 0 0-.6 13 7 7 0 0 0 .3 1.3c0 .1 0 .1.1.2.8 2.6 2.2 12-2.4 13.8z" class="G"/><path d="M368.8 218.8c0 .1 0 .1.1.2a12.8 12.8 0 0 1-2.1.4c-14 1.3-18-16.4-18-16.4l5.6-.4 14.6 2a53.2 53.2 0 0 0-.6 13 7 7 0 0 0 .3 1.4z" class="B"/><path d="M342.8 176c-2 7.5 3 29 8.4 33.4 8 6.6 20.6 6.8 26-2.7a50 50 0 0 0-7.6-41c-9-6-24-.8-27 10.3z" class="G"/><path d="M350.6 209.4h0" fill="none" stroke="#f3a59c" stroke-linecap="round" stroke-linejoin="round" stroke-width="0"/><g class="B"><path d="M361 189s-.1.1-.1.2c.4 1.4.5 3-.7 4h0c1.6-.6 1.3-2.8.7-4z"/><path d="M359.5 187.6c-2.4.3-1.5 5 .7 4.7s1.3-5-.7-4.7zm10.3-.6c0-.1.1.1.1.1.2 1.5.7 3 2 3.3.1 0 .1.1 0 .1-1.6.1-2.3-2-2.2-3.5z"/><path d="M371 185.3c2.3-.6 3.3 4 1.2 4.6s-3-4-1.2-4.6zm-13.8.5a17.6 17.6 0 0 0 1.7-1c.6-.4 1.2-.6 1.6-1.3a1 1 0 0 0-.4-1.2 2.5 2.5 0 0 0-2.5.2 3.7 3.7 0 0 0-1.8 1.9 1.1 1.1 0 0 0 1.4 1.3z"/><path d="M372.2 182.6a18.1 18.1 0 0 1-2-.1 3.2 3.2 0 0 1-1.9-.5 1 1 0 0 1-.2-1.2 2.5 2.5 0 0 1 2.4-.9 3.6 3.6 0 0 1 2.4 1 1.1 1.1 0 0 1-.7 1.8zm-9.6 19.7c.4.3.8.7 1.4.6a3.8 3.8 0 0 0 1.5-.6 0 0 0 0 1 .1.1 2 2 0 0 1-1.7 1.1 1.6 1.6 0 0 1-1.4-1.1c0-.1.1-.1.1-.1zm.7-4.6a5 5 0 0 0 3.7 1.6 6.4 6.4 0 0 0 1.8-.2l.6-.2a.4.4 0 0 0 .2-.4h0a.7.7 0 0 0 0-.1h0v-.1l-.6-2.8c.4.1 2.7.7 2.6.1-1.2-4.8-2.5-10-4.6-14.6a.2.2 0 0 0-.3.1c1 4.6 2.7 9 3.7 13.7a8.8 8.8 0 0 0-2.5-.3c-.1.1 1 3.2 1 3.7h0c-1.8.6-3.4.3-5.4-.7-.2 0-.3.1-.2.2z"/><path d="M368 198.8a6 6 0 0 1-2.1 2.2 2.6 2.6 0 0 1-1.6.3c-1.2-.2-1.4-1.2-1.3-2.2a6.5 6.5 0 0 1 .3-1.5 7.7 7.7 0 0 0 4.7 1.2z"/></g><path d="M366 201a2.6 2.6 0 0 1-1.6.3c-1.2-.2-1.4-1.2-1.3-2.2a2.8 2.8 0 0 1 2.9 1.8z" class="L"/><g class="B"><path d="M344.7 192.3c5-1 4.2-10 4.2-10s8.2-3 8.2-9.6c0 0 9 3.6 15 .1s3.5-11.2 2.5-12.6c-2.3-3.2-6.7 2.3-6.7 2.3s-9-3.3-17.7-.7c-7.2 2-9.6 9.8-9.6 9.8s-3.8 1.6-4.5 4.6 5.6 17 8.8 16.2z"/><path d="M347 182.7c6.7-.4 10.2-5.6 10-12a.1.1 0 1 1 .1 0c1 6-3.3 13.4-10 12.3a.2.2 0 0 1 0-.3zm-6.4-11.3a.1.1 0 0 1 .1.1c-1.7 1.2-3.6 2.2-4.6 4.2-1.2 2.3-.3 5 .7 7 1.6 3.4 4.3 7.7 8 9 .2.1.1.4-.1.3-4.2-1.5-7.6-7-9-11.2-1.5-4.6 1-7.8 5-9.6zm24 1.6a9.2 9.2 0 0 0 10-2.2c3-3.3 1.4-7.5-.7-10.8-.1-.2.1-.4.2-.2 2.6 2.8 3.7 7.6 1.4 10.8s-7.5 4.3-11 3c-.4-.2-.2-.7.1-.5z"/></g><path d="M348 193.4s-5.3-6.6-8.3-4.7 1.2 11.8 5 13a3.8 3.8 0 0 0 4.9-2.3z" class="G"/><path d="M341 191.5c-.1 0-.1.1 0 .1 2.7 1 4.2 3.2 5.3 5.6a2.1 2.1 0 0 0-3.1-.4c-.1 0 0 .2.1.1a2.3 2.3 0 0 1 2.6.7 10.9 10.9 0 0 1 1.4 2c.1.2.6.1.4-.2a.1.1 0 0 0 0-.1c-.2-3.3-3-7.8-6.6-8z" class="B"/><path d="M368.8 218.6l-4.6 12.6-16-15-4.2 5.2 16 23.2 4.7-11 7.6 7-1.3-18.6z" class="F"/><path d="M372.3 231.6l-1-9.2a.1.1 0 0 0-.2 0c-.5 3 .8 14.7 1 17.5h0l-7-6.2a147 147 0 0 0-4.7 10.4l-15-21.5a.1.1 0 0 0-.2.1 426 426 0 0 0 15.2 22.9 121.4 121.4 0 0 0 4.9-11.5l8 7.6a94.5 94.5 0 0 0-.6-10.2z" class="B"/><path d="M348 245c5.8-21 3-28.2-7.7-18.4-15.5 14-28.3 34-36 50.3v32.8H350c-7.3-4.5-17.4-13.6-18-14-1.6-1.3 10.7-32 16-50.5z" class="G"/><path d="M332.5 295c-.1-1.4 13.5-38.4 17.6-56.7s2-27-16-6.6a267.3 267.3 0 0 0-29.8 41.4v36.5h47.2l-19-14.6z" class="F"/><path d="M333.5 296.5l7 5.3 11.4 8-17-13.2c-.6-.4-1.8-1.5-1.7-1.7a189 189 0 0 1 2.6-8.8c1-3 2-6 3-9q2.3-7 4.6-14.2a15.7 15.7 0 0 0 1.6-2.8c.7-1.4 1.3-2.8 2-4.2 0 0 0-.1-.1 0l-2.4 3.7 3-10c0-.1-.1-.1-.1-.1a244 244 0 0 0-6.3 17.4l-5.6 17.8c-1 3.3-3 10.2-3 10.6a5.3 5.3 0 0 0 1.1 1.2z" class="B"/><path d="M73 143.2h164.3v224.3H73z" class="E"/><path d="M237.7 368H72.5V142.7h165.3zm-164.2-1h163.3V143.7H73.5z" class="D"/><path d="M73 143.2h164.3V159H73z" class="C"/><path d="M237.7 159.4H72.5v-16.7h165.3zm-164.2-1h163.3v-14.7H73.5z" class="D"/><use xlink:href="#B" x="-439.8" class="B"/><use xlink:href="#B" x="-423.7" class="D"/><use xlink:href="#B" x="-407.5" class="F"/><path d="M73 158.4l164.3 1H73z" class="D"/><path d="M84.4 319.7H165v7.5H84.4z" class="H"/><path d="M84.4 334.4l141.4 4.5H84.4zm0 8.6l141.4 4.5H84.4zm0 8.6l141.4 4.5H84.4z" class="D"/><path d="M84.4 168.4h141.4v141.4H84.4z" class="K"/><g class="B"><ellipse cx="145.8" cy="185" rx="31" ry="32.2"/><use xlink:href="#S"/><use xlink:href="#S" x="45.2" y="-6.3"/><use xlink:href="#S" x="49.5" y="-26.2"/><use xlink:href="#S" x="-9.8" y="-30"/><use xlink:href="#S" x="-4.3" y="-41.5"/><use xlink:href="#S" x="1" y="-46.4"/><use xlink:href="#S" x="6" y="-51.7"/><use xlink:href="#S" x="12.8" y="-52.4"/><use xlink:href="#S" x="32.5" y="-52.4"/><use xlink:href="#S" x="42" y="-44"/><circle cx="119.1" cy="196.7" r="4.3"/><use xlink:href="#S" x="11.2" y="5.8"/><use xlink:href="#S" x="17.2" y="6"/><use xlink:href="#S" x="-9.8" y="-17.6"/><circle cx="122" cy="202.9" r="3.9"/><use xlink:href="#T"/><use xlink:href="#T" x="-29.2" y="30.7"/><circle cx="119.1" cy="172.1" r="3.9"/><circle cx="152.4" cy="153.9" r="3.9"/><use xlink:href="#T" x="-13.8" y="58"/><use xlink:href="#T" x="4" y="61.8"/><circle cx="157" cy="213.9" r="3.9"/><circle cx="162.4" cy="210" r="3.9"/><use xlink:href="#T" x="22.6" y="53.8"/><use xlink:href="#T" x="29.5" y="42.8"/><use xlink:href="#T" x="29.5" y="35.5"/><use xlink:href="#T" x="18.7" y="4.8"/><circle cx="173.8" cy="168.9" r="3.9"/><circle cx="174.7" cy="175" r="3.9"/></g><g class="J"><path d="M144 232.6c6.2 8.2 40 34.4 69 35 10 .2 39-41.2 44.5-57 4-11.4-20.3-18-27.3-16.6-8.7 1.8-24 37.2-30 37.6-10 .6-28.7-5.7-49.3-9.3-10.7-1.8-11.6 4.3-6.8 10.5z"/><path d="M256.7 212.2a165 165 0 0 0 8.9-24.7c.8-5 2-19.4-1.8-20.3s-4.4 3.2-4.4 3.2-.5-6.2-4.3-6.8-4.7 6-4.7 6-1-6.3-4.8-6.7-3.6 6.4-3.6 6.4-.6-5.8-4-4.7c-4 1.3-1.7 11.8-3 17.2-.3 1.2-7.6 24.4-7.6 24.4z"/></g><path d="M242 168.6c1.7 7.8 1 11.5-1.7 18.8-.1.1.2.3.2.1 3.3-7 4.7-11.5 1.8-19-.1-.4-.5-.3-.4.1zm8.3.4a42 42 0 0 1-1.9 20.1.1.1 0 0 0 .2.1c3-7.6 4.2-12 2-20.2-.1-.4-.5-.4-.4 0zm9 1.8c.4 8-.1 12.4-3.3 19.8a.2.2 0 0 0 .3.1 27 27 0 0 0 3.3-20c-.1-.5-.3-.5-.2 0z" class="B"/><path d="M222 209.6v-14.4c.6-4.4 9-20 12.5-18.5 4.5 2 1.4 12-.7 16.8 0 0 10.4 4.8 9.8 12.5s-21.4 3.6-21.4 3.6z" class="J"/><path d="M235.6 177.7c2.7 5-.5 11-2.2 15.6a.5.5 0 0 0 .4.6c4.2 2.3 9.5 6.8 10 12a.1.1 0 1 0 .2 0c.2-5.5-4.7-10.4-9.5-12.6 2-4.8 4.8-11 1-15.5 0 0 0 0 0 0z" class="B"/><path d="M210.3 215.6l34.5 22.7s-18.6 28-29.6 30.3-46.7-11.5-65-28-11.2-22.3 8.3-17.8l41.4 7c3-1.4 10.3-14.2 10.3-14.2z" class="C"/><g class="E"><path d="M150.2 240.6a5.5 5.5 0 0 1 0-3.8 5.6 5.6 0 0 1 0 3.8zm27.8 12.7a5.7 5.7 0 0 1 0-3.8 5.5 5.5 0 0 1 0 3.8zm17.5-15a5.6 5.6 0 0 1 0-3.8 5.5 5.5 0 0 1 0 3.8zM218 225a5.7 5.7 0 0 1 0-3.8 5.1 5.1 0 0 1 .3 1.9 5.4 5.4 0 0 1-.3 1.9zm-2.4 30.2a5.3 5.3 0 0 1-.3-1.9 5.1 5.1 0 0 1 .3-1.9 5.6 5.6 0 0 1 0 3.8zm21.6-8.2a5.7 5.7 0 0 1 0-3.8 5.7 5.7 0 0 1 0 3.8z"/><use xlink:href="#U"/><path d="M167 241.6a5.7 5.7 0 0 1 3.8 0 5.7 5.7 0 0 1-3.8 0z"/><use xlink:href="#U" x="61.3" y="40.6"/><use xlink:href="#U" x="40" y="26.6"/><path d="M224 246a5.5 5.5 0 0 1 3.8 0 5.7 5.7 0 0 1-3.8 0zm-17.3-15.4a5.5 5.5 0 0 1 3.8 0 5.6 5.6 0 0 1-3.8 0zm-1 28.4a5.2 5.2 0 0 1-1.6-1.1 5.3 5.3 0 0 1-1.1-1.6 5.6 5.6 0 0 1 2.7 2.7zm13.6-21a5 5 0 0 1-1.6-1.1 4.9 4.9 0 0 1-1.1-1.6 5.1 5.1 0 0 1 1.6 1.1 5.3 5.3 0 0 1 1.1 1.6zm-28 23.6a5.1 5.1 0 0 1-1.6-1.1 4.9 4.9 0 0 1-1.1-1.6 5.3 5.3 0 0 1 1.6 1.1 5.1 5.1 0 0 1 1.1 1.6zm-16-29.3a5.3 5.3 0 0 1-1.6-1.1 5.1 5.1 0 0 1-1.1-1.6 5.1 5.1 0 0 1 1.6 1.1 5 5 0 0 1 1.1 1.6z"/><use xlink:href="#V"/><path d="M184 238.8a5.1 5.1 0 0 1-1.1 1.6 5 5 0 0 1-1.6 1.1 5.6 5.6 0 0 1 2.7-2.7zm44.5 16a5.3 5.3 0 0 1-1.1 1.6 5.1 5.1 0 0 1-1.6 1.1 5.6 5.6 0 0 1 2.7-2.7z"/><use xlink:href="#W"/><path d="M208 243.7a5.6 5.6 0 0 1-2.7 2.7 5.6 5.6 0 0 1 2.7-2.7z"/><use xlink:href="#X"/><path d="M202.4 266.2a3.6 3.6 0 0 1-.7 1.1l-.7-.2a5 5 0 0 1 1.3-.9z"/></g><path d="M199.5 266.6c-15.4-4.4-36.5-14.6-49.2-26-17.5-16-11.7-22 6-18.3z" opacity=".1"/><path d="M238.7 243.5l-11.6-8c-4-2.6-7.8-5-11.8-7.6l-7-4.2c-.1-.1-.2.1-.1.1l30.3 20c.1 0 .2-.1.1-.2z" class="B"/><path d="M143 224c.4 1.4 7.7 10.3 14 9.6 2-.2 1.4-11.8 1.4-11.8l2.2-13-16.6-9.3-.7 8c0 .2-.1.5-.1.7l-.2 2c0 .5-.1 1-.1 1.5v1.5a80.3 80.3 0 0 0 .1 10.8z" class="J"/><path d="M143.5 207a24.6 24.6 0 0 0 15.3 13.9l2-12-16.6-9.3-.7 7.5z" class="B"/><path d="M176 187c5 21-7 26.3-11.4 27.4-4 1-18.2 3.8-25.3-16.4s1-29.2 10.2-32 21.5.1 26.6 21z" class="J"/><g class="B"><path d="M169 184a12.1 12.1 0 0 1-1.5-.1 2.4 2.4 0 0 1-1.5-.3.8.8 0 0 1-.2-.9 1.9 1.9 0 0 1 1.8-.7 2.8 2.8 0 0 1 1.9.7.8.8 0 0 1-.5 1.4zm-14 3a13.6 13.6 0 0 0 1.4-.5 2.4 2.4 0 0 0 1.3-.8.8.8 0 0 0-.2-.9 1.9 1.9 0 0 0-1.9-.1 2.8 2.8 0 0 0-1.6 1.3.8.8 0 0 0 .9 1.1zm3.8 4.6s-.1.1-.1.2c.3 1.4.4 3-.7 3.8v.1c1.6-.5 1.4-2.8.8-4z"/><path d="M157.2 190.3c-2.3.3-1.6 5 .6 4.7s1.4-5-.6-4.7z"/><path d="M156.3 190.7c-.4.3-.7.8-1.2 1s-1-.3-1.5-.7c0 0-.1 0-.1.1.1 1 .6 1.8 1.6 1.8s1.4-1 1.5-1.8c0-.2-.2-.4-.3-.3zm11-1c0-.1.1.1.1.1.2 1.5.6 3 2 3.4.1 0 .1.1 0 .1-1.7 0-2.2-2.2-2-3.6z"/><path d="M168.2 188c2.3-.5 3.2 4 1 4.6s-3-4.2-1-4.6z"/><path d="M169.3 188c.4.2 1 .6 1.3.5s.8-.6 1-1.2h.1c.2 1 .1 2-.8 2.2s-1.5-.3-1.8-1.2c0-.1 0-.4.2-.3zm-8.7 15c.4.3.8.7 1.3.7a3.8 3.8 0 0 0 1.5-.5c.1 0 .1 0 .1.1a2 2 0 0 1-1.8 1 1.6 1.6 0 0 1-1.3-1.1c0-.1.1-.2.1-.1zm5.2-6.3l.8 3c0 .1-.2.2-.6.3h0a4.9 4.9 0 0 1-5-1c-.1-.1 0-.2.1-.2a7.4 7.4 0 0 0 4.6.5c0-.3-1.2-3.6-1-3.6a8.8 8.8 0 0 1 2.4.2c-1.2-4.4-3.2-8.6-4.3-13 0-.2.2-.2.3-.1 2.3 4.3 4 9.3 5.3 14 .1.5-2 .1-2.5 0z"/><path d="M166 199.7a6.1 6.1 0 0 1-2 2.3 2.7 2.7 0 0 1-1.6.4c-1.2-.1-1.5-1-1.4-2a6.4 6.4 0 0 1 .2-1.5 7.7 7.7 0 0 0 4.8.9z"/></g><path d="M164 202a2.7 2.7 0 0 1-1.6.4c-1.2-.1-1.5-1-1.4-2a2.8 2.8 0 0 1 3 1.7z" class="L"/><path d="M140.2 197.8c3.8 1.4 1.8-5 1.8-5s3.2-2 1.2-6.6c0 0 4.6 1 4.7-5.3 0 0 3.8-.5 3.3-5 0 0 5.4 2.7 7.3-2.4 0 0 4 4 7-.3 0 0 1.7 2.8 4.7 1.7 0 0 .7 3 3 4 0 0-7.6-21.8-27.2-13-18 8.2-10.3 30.3-6 31.8z" class="B"/><g class="C"><path d="M157.2 199.6a6.6 6.6 0 1 1 5.5-8.9h0a6.6 6.6 0 0 1-3.9 8.5 6.9 6.9 0 0 1-1.6.4zm-1.3-12.3a5.7 5.7 0 0 0-1.4.3 5.7 5.7 0 1 0 1.4-.3zm16 9c-2.5.3-5-2-5.8-5.4a8 8 0 0 1 .3-4.8 4.1 4.1 0 0 1 6.9-1.6 7.9 7.9 0 0 1 2.4 4.2c.8 3.6-.7 7-3.3 7.6zm-2-12.2h-.3a3.6 3.6 0 0 0-2.4 2.2 7 7 0 0 0-.3 4.3c.7 3 3 5.2 5.2 4.7s3.4-3.4 2.7-6.5a7.1 7.1 0 0 0-2.1-3.7 3.6 3.6 0 0 0-2.7-1z"/><path d="M162.7 191.5l-.7-.5c.8-1 2.8-2.7 4.8-1.3l-.5.7c-1.8-1.2-3.5 1-3.6 1zm-27 8l-1-.2c.1-.4 1-4 3-4.7s12.2-2.2 12.7-2.2l.1 1-12.5 2.2c-1.3.6-2.2 3-2.4 4z"/></g><path d="M142 197.5s-5.7-6-8.4-3.8 2.2 11.2 6 12a3.6 3.6 0 0 0 4.5-2.7z" class="J"/><path d="M135 196.3c-.1 0-.1.1 0 .1 2.6.6 4.3 2.7 5.6 5a2 2 0 0 0-3.1-.1c-.1 0 0 .2.1.1a2.2 2.2 0 0 1 2.6.4 10.5 10.5 0 0 1 1.5 1.8c.2.2.5 0 .4-.2v-.1c-.5-3.2-3.6-7.2-7-7z" class="B"/><path d="M184.6 309.8l-4.4-30.2s5.6-9.5 3.8-18.2-17-29.5-21.8-35.6c0 0-1-6.7-1.3-7.2a154 154 0 0 0-21.7-2.7c-.5.5-.3 7.5-1.4 8.4a27 27 0 0 0-2 2c-13.5 14.6-24.4 63-28.5 83.4z" class="C"/><g class="E"><path d="M157.2 265.4a5.7 5.7 0 0 1 0-3.8 5.7 5.7 0 0 1 0 3.8zm11 21.6a5.7 5.7 0 0 1 0-3.8 5.5 5.5 0 0 1 0 3.8zm-28 .8a5.7 5.7 0 0 1 0-3.8 4.9 4.9 0 0 1 .3 1.9 5.4 5.4 0 0 1-.3 1.9zm14.7 22a5.5 5.5 0 0 0 .3-1.8 5.4 5.4 0 0 0-.3-1.9 5.1 5.1 0 0 0-.3 1.9 5.2 5.2 0 0 0 .3 1.8zm-4.8-69.2a5.5 5.5 0 0 1 0-3.8 5.6 5.6 0 0 1 0 3.8zM132.7 262a5.6 5.6 0 0 1 0-3.8 5.5 5.5 0 0 1 0 3.8zm-18 34.8a5.6 5.6 0 0 1 0-3.8 4.9 4.9 0 0 1 .3 1.9 5.3 5.3 0 0 1-.3 1.9zm63.4-43.5a5.7 5.7 0 0 1 0-3.8 5.5 5.5 0 0 1 0 3.8zm-34.6 3.7a5.6 5.6 0 0 1 3.8 0 5.5 5.5 0 0 1-3.8 0z"/><use xlink:href="#U" x="-10.5" y="75.6"/><use xlink:href="#U" x="23.4" y="40.6"/><path d="M128.6 241.2a5.6 5.6 0 0 1 3.8 0 5.5 5.5 0 0 1-3.8 0z"/><use xlink:href="#U" x="-23.6" y="50.3"/><path d="M115 307.6a5.6 5.6 0 0 1 3.8 0 4.9 4.9 0 0 1-1.9.3 5.3 5.3 0 0 1-1.9-.3zm52-66a5.7 5.7 0 0 1 3.8 0 5.7 5.7 0 0 1-3.8 0zM154.6 277a5.3 5.3 0 0 1 1.9-.3 4.9 4.9 0 0 1 1.9.3 5.6 5.6 0 0 1-3.8 0zm11.4 22.7a5.5 5.5 0 0 1 3.8 0 5.7 5.7 0 0 1-3.8 0z"/><use xlink:href="#Y"/><path d="M146 272a5.6 5.6 0 0 1-2.7-2.7 5.1 5.1 0 0 1 1.6 1.1 5.3 5.3 0 0 1 1.1 1.6zm-15 29a5.6 5.6 0 0 1-2.7-2.7 4.9 4.9 0 0 1 1.6 1.1 5.1 5.1 0 0 1 1.1 1.6z"/><use xlink:href="#V" x="-17.9" y="20"/><path d="M158.5 250.5a5 5 0 0 1-1.6-1.1 5.2 5.2 0 0 1-1.1-1.6 5 5 0 0 1 1.6 1.1 5.3 5.3 0 0 1 1.1 1.6zm21 44a5.3 5.3 0 0 1-1.6-1.1 5.2 5.2 0 0 1-1.1-1.6 5.5 5.5 0 0 1 2.7 2.7z"/><use xlink:href="#V"/><path d="M169.8 272.7a5 5 0 0 1-1.6-1.1 4.9 4.9 0 0 1-1.1-1.6 5.1 5.1 0 0 1 1.6 1.1 5.3 5.3 0 0 1 1.1 1.6zm0-18a5.3 5.3 0 0 1-1.1 1.6 5.1 5.1 0 0 1-1.6 1.1 5.1 5.1 0 0 1 1.1-1.6 5 5 0 0 1 1.6-1.1zm-41.6 31.7a5.3 5.3 0 0 1-1.1 1.6 5.1 5.1 0 0 1-1.6 1.1 5.1 5.1 0 0 1 1.1-1.6 5 5 0 0 1 1.6-1.1zm52.4-7.5a5 5 0 0 1-1.1 1.6 4.9 4.9 0 0 1-1.6 1.1 5.3 5.3 0 0 1 1.1-1.6 5.2 5.2 0 0 1 1.6-1.1z"/><use xlink:href="#X" x="-89.5" y="14.7"/><path d="M156 291.7a5.6 5.6 0 0 1-2.7 2.7 5.2 5.2 0 0 1 1.1-1.6 5.3 5.3 0 0 1 1.6-1.1zm24 14.3a5.2 5.2 0 0 1-1.1 1.6 5.3 5.3 0 0 1-1.6 1.1 5 5 0 0 1 1.1-1.6 5.2 5.2 0 0 1 1.6-1.1zm-58-40.5a5.3 5.3 0 0 1-1.1 1.6 5 5 0 0 1-1.6 1.1 5.6 5.6 0 0 1 2.7-2.7z"/><use xlink:href="#W"/></g><g opacity=".1"><use xlink:href="#Z"/><path d="M144.8 223.7a16.5 16.5 0 0 1 .1-5.7 14.3 14.3 0 0 1 .2 2.8 15 15 0 0 1-.3 2.8zm3.8.5a14.3 14.3 0 0 1-.2-2.8 15 15 0 0 1 .3-2.8 14.2 14.2 0 0 1 .2 2.8 15 15 0 0 1-.3 2.8zm3.7.4a15 15 0 0 1-.2-2.8 14.2 14.2 0 0 1 .3-2.8 16.1 16.1 0 0 1-.1 5.7zm3.7.4a15 15 0 0 1-.2-2.8 14.3 14.3 0 0 1 .3-2.8 15.1 15.1 0 0 1 .2 2.8 14.3 14.3 0 0 1-.3 2.8z"/><use xlink:href="#Z" x="18.8" y="2.1"/></g><path d="M131.7 229c-15.4 15.3-44.8 48-46 64a48.5 48.5 0 0 0 2.3 16.7h38.4l-7-12C119 294 135 261.4 143 245c10.3-20.8 1.7-28.8-11.4-15.8z" class="J"/><path d="M129.3 230c-15 14.2-38.8 45.2-43.5 59-1.6 4.7-.4 12.8 1.6 20.6H130c-2.7-3.8-8.4-12.3-8-14.2s15.4-35.4 23.4-51.8c8.2-17 3.4-32-16-13.7z" class="C"/><g class="E"><path d="M133.5 231a5.3 5.3 0 0 1-.3-1.9 5.1 5.1 0 0 1 .3-1.9 5.6 5.6 0 0 1 0 3.8zm-.8 31a5.6 5.6 0 0 1 0-3.8 5.5 5.5 0 0 1 0 3.8zm-22.5 13a5.4 5.4 0 0 1-.3-1.9 4.9 4.9 0 0 1 .3-1.9 5.7 5.7 0 0 1 0 3.8zm4.4 21.8a5.6 5.6 0 0 1 0-3.8 4.9 4.9 0 0 1 .3 1.9 5.3 5.3 0 0 1-.3 1.9zm-23-8.4a5.3 5.3 0 0 1-.3-1.9 4.9 4.9 0 0 1 .3-1.9 5.6 5.6 0 0 1 0 3.8zm37-47.2a5.6 5.6 0 0 1 3.8 0 5.5 5.5 0 0 1-3.8 0z"/><use xlink:href="#U" x="-23.6" y="50.3"/><path d="M105 287a5.5 5.5 0 0 1 3.8 0 5.7 5.7 0 0 1-3.8 0z"/><use xlink:href="#U" x="-65" y="77.3"/><path d="M112.7 258.3a5.5 5.5 0 0 1 3.8 0 5.7 5.7 0 0 1-3.8 0zm2.3 49.3a5.6 5.6 0 0 1 3.8 0 4.9 4.9 0 0 1-1.9.3 5.3 5.3 0 0 1-1.9-.3z"/><use xlink:href="#Y"/><path d="M100.2 295.7a5.1 5.1 0 0 1-1.6-1.1 5 5 0 0 1-1.1-1.6 5.6 5.6 0 0 1 2.7 2.7zm4.8-31a5 5 0 0 1-1.6-1.1 5.2 5.2 0 0 1-1.1-1.6 5 5 0 0 1 1.6 1.1 5.3 5.3 0 0 1 1.1 1.6z"/><use xlink:href="#V" x="-17.9" y="20"/><use xlink:href="#V"/><path d="M102.4 277.6a5.3 5.3 0 0 1-1.1 1.6 5 5 0 0 1-1.6 1.1 5 5 0 0 1 1.1-1.6 5.1 5.1 0 0 1 1.6-1.1zm4.6 24a5 5 0 0 1-1.1 1.6 5.1 5.1 0 0 1-1.6 1.1 5.1 5.1 0 0 1 1.1-1.6 5.2 5.2 0 0 1 1.6-1.1z"/><use xlink:href="#X" x="-89.5" y="14.7"/><path d="M122 265.5a5.3 5.3 0 0 1-1.1 1.6 5 5 0 0 1-1.6 1.1 5.6 5.6 0 0 1 2.7-2.7zm-2.3-24a5.1 5.1 0 0 1-1.1 1.6 4.9 4.9 0 0 1-1.6 1.1 5.3 5.3 0 0 1 1.1-1.6 5.1 5.1 0 0 1 1.6-1.1z"/></g><path d="M130.3 309.8l-8-13.7a26 26 0 0 1 2.2-5.6q5.3-11.4 10.5-22.8l1-2 2-3a32.8 32.8 0 0 0 2.3-4c0-.1-.1-.1-.1-.1l-3.4 5q2-4.6 4-9.2a.1.1 0 0 0-.2-.1l-19 41.2a68 68 0 0 0 8.3 14zm-8.7 0l4.3-2.3c.1-.1 0-.2-.1-.2a98 98 0 0 0-5.7 2.5z" class="B"/><path d="M407.4 286.8a77.3 77.3 0 0 0-11.9-131h-68.8a77.1 77.1 0 0 0-40.6 50.8v37a77.3 77.3 0 0 0 121.3 43.4z" class="K"/><path d="M438 231.4c-8 4.7-16.2 9.2-17.3 9a1314 1314 0 0 1-57.4-22.1C347.5 212 339 223 355 238c7 6.7 39 34.7 59.2 43a77.1 77.1 0 0 0 23.9-49.7z" class="F"/><path d="M394.8 270a368 368 0 0 1-39.8-32c-13.8-13.2-9.2-23.2 2.6-21.3z" class="B"/><path d="M347 213.8a28.9 28.9 0 0 0-5 1 .9.9 0 0 1-.2 0 11.8 11.8 0 0 0-3.7 1.8c-8.4 6.7-20.4 35.3-30.8 64a77.4 77.4 0 0 0 79.4 17.3c-7.4-33.5-17.3-73-23.4-81-2.2-3-9.8-3.8-16.3-3z" class="F"/><g class="B"><path d="M353.4 242.4l4.7-9 6 6.6-1.5 6.5-6 .8-3.3-4.8z"/><path d="M356.6 247.2l-2.3 54.7a77.3 77.3 0 0 0 17-.4l-8.7-55z"/></g><path d="M360 232.5c-5.7 2-16.7-5.7-21.4-12.5-.3-.5-.2-5.8-.3-12.2l-.7-12.2c-.1-.8 3 .4 3 .4l22.7 2.8s-1.5 8.6-.7 15.5a8.5 8.5 0 0 0 .4 1.6c0 .1.1.2.1.3.8 3 2.6 14.4-3 16.4z" class="G"/><path d="M362.8 216c0 .1.1.2.1.3a16.2 16.2 0 0 1-2.5.4C343.5 218 339 197 339 197l6.6-.5 17.4 2.2s-1.5 8.6-.7 15.5a8.5 8.5 0 0 0 .4 1.6z" class="B"/><path d="M331.8 165c-2.3 9 3.4 34.4 10 39.8 9.5 8 24.5 8 31-3.2 6.4-11-1.7-44-9-48.8-10.7-7.2-28.6-1-32 12.2z" class="G"/><g class="B"><path d="M353.6 180.2c0-.1-.1.1-.1.2.4 1.7.6 3.7-.8 4.6-.1 0 0 .1 0 .1 2-.7 1.6-3.4 1-5z"/><path d="M351.7 178.7c-2.8.4-1.8 6 .8 5.6s1.5-6-.8-5.6zm12.3-.7c0-.1.1.1.2.1.3 1.7 1 3.7 2.5 4 0 0 .1.1 0 .1-2 0-2.7-2.6-2.7-4.2z"/><path d="M365.3 176c2.7-.7 4 4.8 1.4 5.5s-3.7-5-1.4-5.5zm-16.3.6a21.1 21.1 0 0 0 2-1.2 3.8 3.8 0 0 0 1.8-1.6 1.2 1.2 0 0 0-.4-1.4 3 3 0 0 0-3 .2 4.3 4.3 0 0 0-2.1 2.3 1.3 1.3 0 0 0 1.7 1.6zm18-4a22.4 22.4 0 0 1-2.3-.2 3.7 3.7 0 0 1-2.3-.6 1.2 1.2 0 0 1-.2-1.4 3 3 0 0 1 2.8-1.1 4.4 4.4 0 0 1 2.9 1.2 1.3 1.3 0 0 1-.9 2.2zm-11.6 23.5c.5.3 1 .8 1.6.8a4.7 4.7 0 0 0 1.8-.8.1.1 0 0 1 .1.1 2.4 2.4 0 0 1-2 1.3 1.9 1.9 0 0 1-1.6-1.3c-.1-.1.1-.2.1-.1zm1-5.5a6 6 0 0 0 4.4 1.9 7.3 7.3 0 0 0 2.1-.3 2.3 2.3 0 0 0 .4-.1l.4-.1a.4.4 0 0 0 .3-.4h0a.6.6 0 0 0 0-.2h0v-.2c-.2-1.3-.7-3.3-.7-3.3.5.2 3.2.8 3 .1-1.4-5.7-3-12-5.5-17.4a.2.2 0 0 0-.3.1c1 5.5 3.2 10.8 4.4 16.3a10.7 10.7 0 0 0-2.9-.3c-.2.1 1 3.8 1 4.5a.1.1 0 0 1 0 .1c-2.2.7-4 .3-6.4-.8-.2-.1-.3 0-.2.2z"/><path d="M362 192a7.1 7.1 0 0 1-2.5 2.6 3.3 3.3 0 0 1-1.9.4c-1.4-.2-1.6-1.4-1.5-2.6a7.5 7.5 0 0 1 .4-1.7 9.2 9.2 0 0 0 5.6 1.4z"/></g><path d="M359.4 194.5a3.3 3.3 0 0 1-1.9.4c-1.4-.2-1.6-1.4-1.5-2.6 1.5 0 3 .8 3.4 2.2z" class="L"/><g class="B"><path d="M334.2 184.3c6-1 5-12 5-12s9.8-3.6 9.8-11.4c0 0 10.7 4.3 17.8.1s4.2-13.3 3-15c-2.7-3.8-8 2.8-8 2.8s-10.6-4-21-.8c-8.6 2.5-11.4 11.6-11.4 11.6s-4.5 2-5.4 5.5 6.7 20 10.4 19.3z"/><path d="M336.8 172.8c8-.5 12.2-6.6 12-14.3a.1.1 0 1 1 .1 0c1 7-4 16-12 14.7-.2-.1-.2-.4 0-.4zm-7.5-13.4a.1.1 0 0 1 .1.1c-2 1.4-4.3 2.7-5.5 5-1.4 2.8-.4 5.8.8 8.4 2 4 5 9 9.4 11 .3.1.1.5-.2.4-5-1.8-9-8.4-10.6-13.3-1.8-5.5 1-9.3 6-11.5zm28.7 1.8a10.9 10.9 0 0 0 11.9-2.6c3.5-4 1.7-9-1-13-.1-.2.1-.5.3-.3 3 3.3 4.4 9 1.6 13s-9 5-13 3.4c-.3-.2-.1-.7.2-.6z"/></g><path d="M338.2 185.6s-6.3-8-10-5.6 1.5 14 6 15.4a4.5 4.5 0 0 0 5.9-2.8z" class="G"/><path d="M329.8 183.3c-.1 0-.1.1 0 .1 3.2 1 5 3.8 6.3 6.7-1-1-2.3-1.6-3.7-.4-.1.1 0 .2.1.2a2.8 2.8 0 0 1 3.1.8 13.1 13.1 0 0 1 1.6 2.4c.2.3.6.1.5-.2v-.1c-.2-4-3.6-9.3-8-9.4z" class="B"/><path d="M362.8 215.6l-5.4 15-19-18-5 6.2 19 27.6 5.6-13 9 8.5-1.6-22z" class="F"/><path d="M367 231l-1.2-11c0-.1-.2-.2-.2 0-.6 3.6 1 17.5 1 20.8h0l-8.5-7.3a159 159 0 0 0-5.6 12.3c-3-4.6-14.5-21.3-18-25.6a.1.1 0 0 0-.2.1c2.7 5 18 27.3 18 27.3a141.7 141.7 0 0 0 5.8-13.7c1.4 1.6 9.5 9.6 9.5 9a115.4 115.4 0 0 0-.7-12.1z" class="B"/><path d="M321.6 231.3a329.7 329.7 0 0 0-26.2 34.3l4 5.7a76.9 76.9 0 0 0 24.7 21.5c5-15.2 13.3-39.3 16.5-53.6 5-21.7 2.5-32-19-8z" class="F"/><path d="M332.3 268.4a18.3 18.3 0 0 0 2-3.4l2.2-5c0-.1 0-.1-.1 0l-2.8 4.4 3.5-12c0-.1-.1-.2-.2-.1a300 300 0 0 0-7.5 20.8l-6 19.3 1 .5c1-2.6 1.7-5 2.5-7.7q2.7-8.5 5.4-17z" class="B"/><path d="M402.4 296l15.3-11.5L460 341l-15.3 11.5z" fill="#37474f"/><rect x="450.7" y="324.9" width="29" height="78" rx="6.3" transform="matrix(.8 -.6 .6 .8 -125.3 351.63)" class="B"/><g opacity=".2"><path d="M423 178.7a77.3 77.3 0 1 1-108.1-15.5 77.2 77.2 0 0 1 108.1 15.5z" class="E"/><path d="M433.4 197.8a77.3 77.3 0 0 1-44.5 99.3zm-60.4-49l-61 136a77.4 77.4 0 0 1-22.9-31.6l45-100.4a77.3 77.3 0 0 1 38.9-4zm45 24l-58 129.5a78 78 0 0 1-15.1-1.7l62-138a74.7 74.7 0 0 1 11.3 10.1zM383.2 151l-65 138.2 65-138.2zm-71.5 14.6l-27.7 55 22.6-50.5c1.6-1.6 3.3-3 5-4.6z" class="D"/></g><path d="M361 312.2a87.2 87.2 0 1 1 87.2-87.2 87.3 87.3 0 0 1-87.2 87.2zm0-164.5a77.2 77.2 0 1 0 77.2 77.2 77.3 77.3 0 0 0-77.2-77.2z" class="B"/><defs ><path id="B" d="M527.5 151.2a4 4 0 1 1-4-3.9 4 4 0 0 1 4 3.9z"/><path id="C" d="M579 229.5a.4.4 0 1 1-.9 0 .4.4 0 0 1 .4-.4.4.4 0 0 1 .4.4z"/><path id="D" d="M582.5 225.2a.5.5 0 1 1-.5-.4.5.5 0 0 1 .5.4z"/><path id="E" d="M572.3 238.2a.5.5 0 1 1-.4-.4.4.4 0 0 1 .4.4z"/><path id="F" d="M579 238.2a.4.4 0 0 1-.4.4.5.5 0 1 1 .4-.4z"/><path id="G" d="M575.7 234a.4.4 0 0 1-.4.4.4.4 0 0 1-.4-.4.4.4 0 1 1 .9 0z"/><path id="H" d="M565.5 247a.4.4 0 0 1-.4.4.4.4 0 0 1 0-.9.4.4 0 0 1 .4.4z"/><path id="I" d="M575.7 242.5a.4.4 0 0 1-.4.4.5.5 0 0 1 0-.9.5.5 0 0 1 .4.4z"/><path id="J" d="M562 251.2a.5.5 0 0 1-.4.4.5.5 0 1 1 .4-.4z"/><path id="K" d="M552 264.2a.4.4 0 1 1-.4-.4.5.5 0 0 1 .4.4z"/><path id="L" d="M565.5 264.2a.4.4 0 0 1-.4.4.5.5 0 0 1 0-.9.4.4 0 0 1 .4.4z"/><path id="M" d="M562 260a.4.4 0 1 1-.4-.4.4.4 0 0 1 .4.4z"/><path id="N" d="M558.7 290.2a.5.5 0 1 1-.4-.4.5.5 0 0 1 .4.4z"/><path id="O" d="M569 286a.5.5 0 0 1-.9 0 .5.5 0 0 1 .9 0z"/><path id="P" d="M528.2 303.2a.4.4 0 1 1-.9 0 .4.4 0 0 1 .9 0z"/><path id="Q" d="M589.3 234a.4.4 0 1 1-.9 0 .4.4 0 1 1 .9 0z"/><path id="R" d="M578.5 257.2a1.2 1.2 0 1 0 1.3-.9 1.2 1.2 0 0 0-1.3.9z"/><path id="S" d="M131 208a4.3 4.3 0 1 1-4.3-4.3 4.3 4.3 0 0 1 4.3 4.3z"/><path id="T" d="M150 153.5a3.9 3.9 0 1 1-3.9-3.9 3.9 3.9 0 0 1 3.9 3.9z"/><path id="U" d="M152 223.7a5.7 5.7 0 0 1 3.8 0 5.5 5.5 0 0 1-3.8 0z"/><path id="V" d="M144.7 232.8a5.1 5.1 0 0 1-1.6-1.1 5 5 0 0 1-1.1-1.6 4.9 4.9 0 0 1 1.6 1.1 5.1 5.1 0 0 1 1.1 1.6z"/><path id="W" d="M162.2 232.8a4.9 4.9 0 0 1-1.1 1.6 5 5 0 0 1-1.6 1.1 5.1 5.1 0 0 1 1.1-1.6 5.3 5.3 0 0 1 1.6-1.1z"/><path id="X" d="M231.2 232.3a5.6 5.6 0 0 1-2.7 2.7 5 5 0 0 1 1.1-1.6 5.1 5.1 0 0 1 1.6-1.1z"/><path id="Y" d="M118.4 283a4.9 4.9 0 0 1-1.6-1.1 5.1 5.1 0 0 1-1.1-1.6 5.1 5.1 0 0 1 1.6 1.1 5.3 5.3 0 0 1 1.1 1.6z"/><path id="Z" d="M141 223.3a15.1 15.1 0 0 1-.2-2.8 14.3 14.3 0 0 1 .3-2.8 15 15 0 0 1 .2 2.8 14.3 14.3 0 0 1-.3 2.8z"/></defs></svg>