<svg xmlns="http://www.w3.org/2000/svg" xmlns:xlink="http://www.w3.org/1999/xlink" viewBox="0 0 500 500" xmlns:v="https://vecta.io/nano"><style><![CDATA[.B{fill:#263238}.C{fill:#ffc727}.D{fill:#eb9481}.E{opacity:.1}.F{fill:#ebebeb}.G{fill:#455a64}.H{fill:#dbdbdb}.I{fill:#c7c7c7}]]></style><circle cx="388.8" cy="96.5" r="46" transform="matrix(.12 -.99 .99 .12 246.11 470.79)" class="F"/><circle cx="391" cy="97.5" r="43.9" class="H"/><circle cx="391" cy="97.5" r="41.1" fill="#fff"/><path d="M431 88.8L364.4 129a41.1 41.1 0 0 1-11.2-15.1L410 61a41.1 41.1 0 0 1 21 27.7zm1 10.2a40.6 40.6 0 0 1-2.7 13.4l-51.3 24a40 40 0 0 1-6.5-2.8L432 99z" opacity=".5" class="F"/><g class="I"><path d="M390.5 59.3h.8v6.2h-.8zm-19 5.3l.7-.4 3 5.4-.7.4zm-13.8 14l.4-.7 5.4 3-.4.7zm-5 18.3h6.2v.8h-6.2zm5 19.2l5.4-3 .4.7-5.4 3zm14 14l3-5.4.7.4-3 5.4zm19-1h.8v6.2h-.8zm16-4l.7-.4 3 5.4-.7.4z"/><path d="M418.4 113.8l.4-.7 5.4 3-.4.7zM423 97h6.2v.8H423zm-3-15.4l5.4-3 .4.7-5.4 3zm-13.4-12l3-5.4.7.4-3 5.4zm-15-7.5l1.3 38h-4l2.6-38z"/></g><path d="M415.3 84.2l-25.6 16.4-2-3.4 27-14 .5 1z" fill="#a6a6a6"/><circle cx="391" cy="97.5" r="1.3" class="I"/><g class="F"><path d="M280.6 311H53.2V42.6h227.4zm-222-5.5H275V48H58.7z"/><path d="M162 49.5h5.5L162 308.2z"/><path d="M48.3 53.6l237.3 7.6H48.3zm0 8.6l237.3 7.6H48.3zm0 8.6l237.3 7.6H48.3zm0 8.5L285.5 87H48.3zm0 8.7l237.3 7.6H48.3zm0 8.4l237.3 7.6H48.3zm0 8.6l237.3 7.6H48.3zm0 8.6l237.3 7.6H48.3zm0 8.6l237.3 7.6H48.3z"/></g><g class="B"><path d="M268 52h1.4L268 200.2z"/><path d="M271 206.6h-4.8l1.2-7h2.4l1.2 7zM272.8 52h1.4l-1.4 226.5z"/><path d="M276 283.7h-5l1.2-7h2.4l1.2 7z"/></g><path d="M39.8 41.5H294v16H39.8z" class="H"/><path d="M364.4 309.2h64.3V371h-64.2z" class="F"/><g class="I"><path d="M428.6 309.2H453V371h-24.4zM364.4 340h0z"/><path d="M428.6 363.5h-64.2 64.3zM364.4 323h0zm64.2 31.4H388h40.7zM379.8 316h0zm-9.2 30.7h0z"/></g><path d="M399 328.7h29.8l5.3 2-35-2zm-42.8 0H386l5.3 2-35-2zm38.2 27.8l-35 2 35-2z" class="F"/><path d="M428.6 349.4h24l5.3 2-29.2-2zm8.4-9.4h18.5l-2.5-1.7-16 1.7z" class="I"/><path d="M30.7 370.7h0z" class="B"/><ellipse cx="250" cy="413.5" rx="196.6" ry="34.5" class="F"/><path d="M310 199.8c-1.8-3.8-13-33.7-26.3-46.3-7-6.7-28.4-22.8-33-19-4.2 3.4.6 9.3.6 9.3s-9.6-7-15.4-2.2 2.8 14.3 2.8 14.3-10.4-6.5-15.8-1.3 4.8 13.3 4.8 13.3-9.3-6.4-12-.2c-3.2 7.5 15.2 17.3 21.6 26a5174 5174 0 0 1 26.4 41.8z" class="D"/><path d="M227.5 168.3a54 54 0 0 1 25.6 26c.2.3.6.1.4-.2-6-13.6-11-21.4-25.7-26.5-.7-.2-1 .4-.3.7zm11-12a81 81 0 0 1 27.3 28c.1.2.4 0 .3-.2-7.5-13.7-12.5-21.4-27-28.4-.7-.3-1.2.2-.6.6zm13-12c12.3 9.5 18.2 15.8 25 29.7a.3.3 0 0 0 .5-.2A52 52 0 0 0 252 144c-1-.4-1.2-.2-.4.4z" class="B"/><path d="M262 247.8s-15.6-11.3-21.3-17.8-18.3-38.5-11.5-41.6c8.7-4 19.6 13 23.8 22 0 0 20.2-9.3 30.6 1.3s-21.7 36-21.7 36z" class="D"/><path d="M232 188c10.6 2 15.4 14.3 20 22.8a.9.9 0 0 0 1.4.2c8.7-3.3 22-5.5 30 .1a.2.2 0 0 0 .3-.3c-8-7.2-21-6-30.5-2-4.7-8.8-10-20.8-21.5-21a.1.1 0 0 0 0 .1z" class="B"/><path d="M204.7 246c14.4 31 76 129.3 113 123.3 42.3-7-.7-163.5-10.3-174.5-5.2-6-57.4 34.4-52 47 2.2 5.2 12.2 21.8 10.8 22.3-1.2.4-17-18.2-43.6-37.7-25.6-18.7-24 5.7-17.6 19.6z" class="D"/><path d="M204 247.7c17 38.3 77.2 116 99.8 120.8s27.3-2 33.3-24.7-15-117.2-15-117.2l-67 19.2 2 7.2-33.5-27.3c-15.7-12.7-33.8-10-19.7 22z" class="C"/><path d="M203.5 219.5l-1.2 24-.8-2.2.3-20.5a7.1 7.1 0 0 1 1.7-1.2zm6-.8l.6 40.8v-40.7c-.2 0-.4-.1-.6-.1zm7.7 2.5l-1.3-.6.2 49.3 1.2 2q.3.5.6 1v-51.3c-.2-.1-.5-.3-.7-.4zm6.7 4.4l-.1-.1.6 57.4v-57zm6.3 5l.4 61.4c.1.2.3.4.4.6l1.2 1.7v-62zm8 6.4l.6 66.2v-65.8c-.2-.2-.4-.3-.6-.5zm7.7 6.2l-1.2-1 1.3 70.5.7.8V244zm7.2 6l-.5-.4.5 73v-72.6zm6-4.5l.3 84.4 1.8 2v-87zm8-2.3l.6 96v-96.2zm6.4-1.8l2 106.2V240zm8-2.3l.6 114.8v-115zm6.4-1.8l2 123.5V236zm8 127.8l.6.4-.6-130.4zm6.4-132v135.3a16.5 16.5 0 0 0 2 .6V232zm8-2.3l.6 139.3V230zM316 370c.7 0 1.4 0 2-.1l-2-141.4zm8.2-134.4c0-.2-.1-.4-.1-.6l-.2-1 .6 134V236.6zm8 42.3q-.5-3-1-6l-1-5.3v95.7a30.1 30.1 0 0 0 2-3.7V278zm6 51.3v-2c-.1-.7-.1-1-.1-1.7v12.2c0-.7.1-1.3.1-2v-.6q.1-2.8 0-6zM201.8 220.7l-.3.3a3.5 3.5 0 0 0-.3.3l14.7-.6zm-2.7 6.4a16 16 0 0 0-.1 2h29l-2.5-2zm123.3 0h-2l-7 2h9.5l-.4-2zm-87 8l-35.5.6h36zm88.7 0l-33 .6h33.2c-.1-.2-.1-.4-.2-.6zm-80.8 6.4l-41 2 42-1zm82 0h0zm-72.5 8l-47.8.6 47.8-.5zm74 0l-70.5.6H327c0-.2 0-.4-.1-.6zm1.3 6.4h0zm1.5 8l-117 .6h117.2c0-.2-.1-.4-.1-.6zM216 270l1.2 2 113.5-2zm116.2 8.2v-.3l-111 .6h111a2 2 0 0 0-.1-.2zm1 6l-106.7 2 106.7-2zm1.2 8l-103.5.6 103.5-.5zm1 6.4l-97.4 2h97.6zm1 8l-95 .6 95-.5zm.7 6.4l-89.8 2 89.8-2zm.7 8l-85.5.6H338zm.4 6.4l-79.4 2 79.4-2zm-74 8c.2.2.3.4.5.6l73.7-.6zm5.8 6.4l2 2h65.5a19.9 19.9 0 0 0 .4-2zm7.6 8l.6.6h57.4c.1-.2.1-.4.2-.6zm6.8 6.4l2.3 2 47-2zm10 8l.8.6 34.3-.6z" class="E"/><path d="M322.7 243.8l-13 4.5c-7.7 2.4-15.6 4.7-23.4 6.8l-23.8 5.8c-.1 0-.1-.1 0-.1l60.2-17.4a.2.2 0 0 1 .1.3zM294.3 350a375 375 0 0 1-9.3-18.2l-8.2-18.5a352.4 352.4 0 0 1-13.4-38.2l-5.7-22.2c-.1-.5-.4-.5-.3 0l4 20.2 6 19.5 7.2 19c2.6 6.3 5.4 12.5 8.6 18.5l11.3 20c.1.1.2 0 .2-.1z" class="B"/><path d="M309.2 369.5l-5.3-1c-22.6-4.8-83-82.4-99.8-120.8-7.7-17.6-5.7-26.3.3-28.5l105 150.3z" class="E"/><path d="M248.2 370l-146.2.4s16.6-108.3 70.3-160c6.6-6.4 22.2-5.6 32.6-1 3.7 1.7 17.4 19.3 21.8 36.3a2733 2733 0 0 1 21.5 124.2z" class="C"/><path d="M103.4 362.3v8.2H102l1-6.2c0-.2.1-.4.1-.6q.2-.7.3-1.4zm6-27.2l.5 35.4-.2-35.4zm6.4-22.2v57.5h2L116 313zm8-22l.5 79.4v-81zm8-19l-1.4 3.3v95h2l-.6-98.4zm7-14.3c-.2.3-.3.7-.5 1l.6 111.7V257.7zm6-10.7l2 123.3-2-123.3zm8 123.3h.6l-.6-135.7zm6.4-144.6l2 144.5-2-144.5zm8-9.3l.6 153.8V216zm6.4-6.5l2 160.3V208.7a12.7 12.7 0 0 0-2 1.3zm8-3.6l.6 164v-164zm6.4-.5h0zm8 .7l.6 163.6V206.8zm6.4 1.6l2 162-2-162zm8 5.5l.6 156.4V214.5zm6.4 8.7l2 147.7-2-147.7zm8 14.8l.6 133V238.6c-.2-.4-.4-1-.6-1.3zM232 272c-.1-.7-.2-1.3-.4-2q-.6-3-1-6c0-.2-.1-.4-.1-.6s-.1-.6-.2-1l2 107.5v-96.7c-.1-.5-.1-1-.3-1.5zm6 35l.6 63-.6-63zm8.4 50.7l-2-12.2V370h2v-12.3zm-52.8-151.4l-14.4.5 16-.3zm16.4 8l-1.4-1.7H170c-.7.7-1.3 1.3-2 2h42.2zm4.7 6.2l-52.3.6 52.3-.6zm4 6.4l-62.5 2 62.6-2zM152 235l-.4.6 71.2-.6zm73.4 6.4l-78.8 2 78.8-2zm2.2 8l-84.8.6h85c0-.2-.1-.4-.1-.5zm1.3 6.4l-90.3 2 90.3-2zm1.5 8l-95 .6 95-.5zm1.2 6.4l-100 2 100-2zm1.4 8l-104.2.6H233c0-.2 0-.3-.1-.5zm1 6.4l-108.6 2 108.6-2zm1.4 8l-112.5.6h112.6c0-.2-.1-.3-.1-.5zm1 6.4l-116.4 2H237a110 110 0 0 1-.3-2zm1.3 8l-120 .6h120zm1 6.4l-123.6 2 123.6-2zm1.3 8H113.6c0 .2-.1.4-.2.6h127c-.1-.1-.1-.3-.1-.5zm1 6.4l-130.2 2h130.5zm1.3 8l-133.4.6h133.5zm1 6.4l-136.2 2H244zm1.3 8l-139 .6h139zm1 6.4l-141.6 2 141.7-2zm1.2 8h-144c0 .2-.1.4-.1.6h144.3c0-.1 0-.3-.1-.5zM102 370v.4h.1z" class="E"/><path d="M228.2 253a125 125 0 0 1 3.3 11.7v-7.2c0-.1.2-.2.2 0a34.6 34.6 0 0 1 .5 6.8v3.2l5 33.6c0 .5-.3.5-.4 0-.8-2.5-5-25.2-5.8-28.5a181.7 181.7 0 0 1-3-19.6c0-.2.2-.2.2 0z" class="B"/><path d="M202.4 244c-9 .5-21.4-15.2-25.3-27-.3-.8 2.2-8.3 4.8-17.6l4-17.7 35 15.3s-5.7 11.6-7.5 21.8a14 14 0 0 0-.2 2.4v.4c-.1 4.7-2.4 21.6-11 22.2z" class="D"/><path d="M213.4 221.4v.4a23.9 23.9 0 0 1-3.8-.5c-20.7-4-22-30.6-22-38.8L221 197s-5.7 11.6-7.5 21.8a12.8 12.8 0 0 0-.2 2.4zm31.8-78.4s9 8.3 7 19.7a47 47 0 0 1-9.7 22c-1 .2 2.8-41.7 2.8-41.7z" class="B"/><path d="M193.4 138.6c-7.7 11.5-12 50-5.6 60.8 9.4 15.7 30.4 23.3 45.2 10.7 14.3-12.2 19-62.5 11.3-73-11.5-15.3-39.6-15.5-51 1.5z" class="D"/><g class="B"><path d="M216 162.8c1-.4 2.2-.6 3.3-1s2.3-.7 3.6-.3a1.8 1.8 0 0 1 1 1.9c-.4 1.6-2 2.4-3.4 3a6.5 6.5 0 0 1-4.7-.2 1.9 1.9 0 0 1 .2-3.5zm29 6.7l-2.6-2.3c-1-.8-1.7-1.6-3-1.8a1.8 1.8 0 0 0-1.7 1.3c-.3 1.7.6 3 1.8 4a6.5 6.5 0 0 0 4.3 1.9 1.9 1.9 0 0 0 1.3-3.2zm-30 26c.5.7 1 1.6 2 2a6.8 6.8 0 0 0 2.9-.2.1.1 0 0 1 .1.2 3.5 3.5 0 0 1-3.5.9 2.8 2.8 0 0 1-1.7-2.6c0-.2.2-.2.3-.1zm14.8-8l-1 6.4c0 .2-5.8-2.6-10.8-3.3-.2 0-.3-.5.3-.6 3.5-.4 9.5 2 9.5 2 .1-.3.5-7 .8-6.8a16.6 16.6 0 0 1 3.9 1.9l2-25a.3.3 0 0 1 .5 0c1 8.8-.2 18.4-1 27-.1 1-3.5-1.2-4.2-1.7zm-7.5-13.7c0-.1-.2.1-.2.2-.4 2.6-1.2 5.5-3.7 6-.1 0-.1.1 0 .1 3 .1 4-3.8 4-6.3z"/><path d="M216.3 173.3a9.8 9.8 0 0 0 .7 3.3 2.1 2.1 0 0 0 2.2 1.3c1-.1 1.6-1 2-2a14.7 14.7 0 0 0 1.1-3.3 7.3 7.3 0 0 1-.2 3.6 5.1 5.1 0 0 1-.9 1.7 3 3 0 0 1-1.8 1.1 2.9 2.9 0 0 1-2-.5 3.1 3.1 0 0 1-1.2-1.7 6 6 0 0 1 .1-3.6zm20 2.4c0-.1.2.2.2.3-.4 2.6-.5 5.6 1.8 6.8.1 0 0 .2 0 .1-3-.8-2.8-4.8-2-7.2z"/><path d="M242.3 177a5.9 5.9 0 0 1-1 3.5 3.1 3.1 0 0 1-1.6 1.2 2.8 2.8 0 0 1-3.5-1.7 5.2 5.2 0 0 1-.3-1.9 7.3 7.3 0 0 1 .9-3.5 14.5 14.5 0 0 0 0 3.4 3.2 3.2 0 0 0 1.3 2.5 2.1 2.1 0 0 0 2.5-.6 9.7 9.7 0 0 0 1.7-2.9zm-51.5-7.2c7 1.7 14-29.8 14-29.8s6.4 5.2 12.3 7a64.6 64.6 0 0 0 14.1 2.7c1 0-10-8-10-8s29.5 13.3 32.6 8c1-2-8-26.5-29.6-30.2C208 117 195 131 195 131s-9.7 6.6-10.5 11.7c-1 6.7-1.3 25.3 6.2 27z"/></g><path d="M192.8 171s-5-14.2-11.2-12.7-4.8 20.4.8 24.5a6.7 6.7 0 0 0 9.6-1z" class="D"/><path d="M182.2 163.5c-.1 0-.2.1-.1.2 4 3 5 7.8 5.6 12.5-1-2-2.4-3.4-5-2.5-.1.1-.1.3.1.3a4.1 4.1 0 0 1 4 2.6 19.5 19.5 0 0 1 1.1 4.1c.1.5 1 .4.8 0a.5.5 0 0 0 0-.1c1.6-5.7-.5-14.8-6.5-17zm64.5 13l-4 16a47.5 47.5 0 0 1-6 13.3 24.6 24.6 0 0 1-2.4 3l-3 3 2.8-2a22.9 22.9 0 0 0 2.5-2.4 28.5 28.5 0 0 0 4-5.8c2.5-4.8 3.7-10 4.8-15.4l1.7-9.5a.1.1 0 0 0-.2 0z" class="B"/><path d="M213.7 219.2l-9.4 21.5-26.2-28.4-8 8.6s25 44.6 25.3 42.6L205 245l12.5 13.5v-32.8z" class="C"/><path d="M218.5 242.3l-.7-16.3c0-.2-.3-.3-.4-.1-1.2 5.2-.4 26-.6 31v-.1A367 367 0 0 0 205 245c-2 3-9 16.4-9.5 17.6L170 221a.2.2 0 0 0-.3.2 810 810 0 0 0 25.6 44.3c.2.2 9-16.4 10-19.5a138 138 0 0 0 13.1 14.3 173.3 173.3 0 0 0 .2-17.8z" class="B"/><g class="D"><path d="M108.2 368c-10.7 6.3-27.8 3-29.5-12-5.6-50 35-150.4 42.2-159 5.2-6 53.8 27 51.5 35C168.7 245.6 132 354 108.2 368z"/><path d="M118.2 204s5.6-24 12.5-35.8c9.2-15.7 23.6-25.5 30-29.2 13-7.8 50.2-17.6 55-7.4 4.2 9.2-34.2 17.3-34.2 17.3s37.8-14.7 41-2.7-42 19-42 19 39.2-14.3 40.4-1.3c1 9.8-39.6 18.3-39.6 18.3s33.8-12 35-2c1.5 11-35.4 21.3-35.4 21.3a57 57 0 0 1-20.7 45.7c-2 1.8-41.6-43-41.6-43z"/></g><g class="B"><path d="M208.3 158.3c2.2-.8 15.4-4 14.4-11.8-.7-5.8-7.3-5-9.6-5h.3c.5 0-7-.2-18.5 2.4l-13.8 4-13.3 5.3c-.1 0-.1.2 0 .2l13.6-4.2a181 181 0 0 1 31.1-7.5 15.2 15.2 0 0 1 6.1 1.2 5.3 5.3 0 0 1 3.2 4.1c.3 4.2-4 6.7-7.2 8.3a46.1 46.1 0 0 1-6.5 3 .1.1 0 0 0 0 .1h-.7a.8.8 0 0 0-.2 0L190 163l-17 6.5c-.1 0-.1.2 0 .1l34.2-11a.6.6 0 0 0 .4-.2 30.6 30.6 0 0 1 7.5.7c2.2.5 4.2 1.8 4.8 4 .6 2.5-1.5 4.4-3.2 5.7a31.2 31.2 0 0 1-6 3.5l-9.2 4c-.1 0 0 .1.1.1 17.3-4.2 20-10 19.6-13.2-1-6-10-5-12.8-4.8z"/><path d="M174.8 184.5a134.7 134.7 0 0 1 26.6-8.1c.5-.1.3.3-.2.4a458 458 0 0 0-26.3 8c-.2.1-.3-.2-.1-.3z"/><path d="M215 177c-3.4-2.8-11.2-1.2-13.7-.7-.1 0-.1.3 0 .3a34.9 34.9 0 0 1 6.5-.4 15.5 15.5 0 0 1 5.5 1 3.8 3.8 0 0 1 1.8 1.5 3.7 3.7 0 0 1 .2 2.9 9.9 9.9 0 0 1-3 4.6c-8.6 8-32 15-32.2 15s-.4 6.6-.8 9.6l-.7 4.3a26.3 26.3 0 0 1-1 4.5c0 .1.1.1.2 0 .4-1.5 1-3 1.5-4.3a40.7 40.7 0 0 0 1.1-4.5 64.5 64.5 0 0 0 .5-9.2c41.2-11 37-21.8 34-24.4z"/></g><path d="M113.5 199l61.2 41.8s-46.2 127-72 130.7c-11.8 1.7-18.5-1.8-23.2-10s-11-50.2 34-162.5z" class="C"/><path d="M125 207h-14.6l.2-.6h13.6zm10.4 7l-1.8-1.3-26.3 2h29.2zm9.7 6.6l-40.2.6h41zm11 7.6l-1.7-1-52.5 2h55.4zm9.8 6.7l-66.3.6h67zm-68.3 6.4l-.7 2 77.4-2zm-2.6 8l-.2.6 76.5-.6zm-2 6.4l-.5 1.6c0 .1-.1.3-.1.4l76.6-2zm-2.4 8l-.1.2c0 .1-.1.2-.1.4l75.4-.6zm-2 6.4c-.2.7-.4 1.3-.6 2l75-2zm-2.2 8c-.1.2-.1.4-.2.6l73.6-.6zm-1.7 6.4l-.5 2 73-2zm-2 8v.6h71c.1-.2.2-.4.2-.6zm-1.4 6.4l-.4 2 70-2zm-1.6 8c0 .2-.1.4-.1.6l67.7-.6zm-1 6.4l-.3 2 66-2zm-1.2 8c0 .2 0 .4-.1.6l63-.6zm-.7 6.4l-.2 2 60.7-2zm-.6 8v.6l57-.6zm-.2 6.4v2l53.4-2zm.3 8v.6l48.3-.6zm1 6.4a42 42 0 0 0 .5 2l41.3-.2q.7-1 1.3-1.8zm3.3 8l.4.6 33-.6zM88 370a17.7 17.7 0 0 0 2.5 1 20 20 0 0 0 2 .5 25.6 25.6 0 0 0 5.9.4 5.1 5.1 0 0 0 .5 0l3.6-.4a10.3 10.3 0 0 0 2.3-.6 14.4 14.4 0 0 0 1.7-.8zm-10.4-49.3c0 .2 0 .4-.1.6q-.4 3-.7 6l-.2 2a174 174 0 0 0-.4 5.9l.2 15a55.1 55.1 0 0 0 .9 5.9 42 42 0 0 0 .5 2l.3 1-.6-38.2zm6.7-34.5l-.2 1v80.3c.2.2.4.3.5.5l-.3-81.7zm8-28.6q-1 3-1.8 6v.2V371a20 20 0 0 0 2 .5V257.3c0 .1 0 .3-.1.4zm6-18.3V372a5.1 5.1 0 0 0 .5 0V237.8c-.1.5-.3 1-.5 1.6zm6.7-18.7h-.3V371a14.4 14.4 0 0 0 1.7-.8h.3l-1.7-149.5zm7.7-19.7l.5 163.7-.3-164zm6.4 2v154.6q.7-1 1.3-1.8c.2-.3.5-.6.7-1V204.3zm8 5.4l.5 136.6V208.7zm6.4 4.4l2 118.3-1.8-118.2zm8 5.4l.6 100.2v-99.8zm6.4 4.4V306q1-2.2 2-4.4V224zm8 5.4l.6 59v-58.7zm6.4 4.4l.4 39.7 1.6-4v-34.5zm8 21l.6-1.5-.6-14.2z" class="E"/><path d="M176 241c0 .1-1 2.6-1.5 3.8a792 792 0 0 1-12.2 29.2l-26.4 57.4c-3.8 7.7-7.7 15.4-12.7 22.4a69.1 69.1 0 0 1-8.2 9.6 58 58 0 0 1-10 7.5.1.1 0 0 1-.1-.1 28.6 28.6 0 0 0 2.7-1.8 74.7 74.7 0 0 0 16.3-19 240.8 240.8 0 0 0 12.3-23.3q6.8-14.2 13.3-28.5l12.8-28.7 12.3-28.6a165 165 0 0 1-4-2.8c-.1 0 0-.2.1-.1 1 .2 5.4 2.8 5.3 3zm-9 9l-10.5-7.4c-3.5-2.4-7.2-4.8-10.8-7.2l-33.8-22a.1.1 0 0 0-.1.1c3.5 2.4 6.8 5.2 10.3 7.8l32 21.7a173 173 0 0 0 12.6 7.4.2.2 0 0 0 .2-.3z" class="B"/><path d="M339.8 396.8L370 379l38.3 12.8-31.5 19-37-14z" fill="#fff"/><path d="M375.6 406l17.5-11 6-3.2-5.7 4-11.8 7.2a119 119 0 0 1-6.1 3.2zm5-7.2a59.8 59.8 0 0 1 6.8-4.7 59.2 59.2 0 0 1 7.3-3.8 59.8 59.8 0 0 1-6.7 4.7 61.3 61.3 0 0 1-7.3 3.8zm-14 4.2l17.5-11 6-3.2-5.7 4-17.8 10.4zm-1.2-3.4l9.8-6.6 10.3-5.7-9.8 6.6-10.3 5.7zm4-6.6a47.5 47.5 0 0 1 11.7-7.1 40.8 40.8 0 0 1-5.6 4 41.2 41.2 0 0 1-6.1 3.1z" class="H"/><path d="M289 413.6l47.7-18.6 46 27.7L335 442 289 413.6z" fill="#fff"/><path d="M334.5 436.3l19.3-7.3-19.3 7.3zm12.2-9.8a120 120 0 0 1 10.4-4.8 107 107 0 0 1 10.8-3.9 114.3 114.3 0 0 1-10.4 4.8l-10.8 4zm-17 2a226 226 0 0 1 8.2-3.8l21.2-8-29.5 11.6zm-2.3-4a194 194 0 0 1 7.6-3.5l19.7-7.3-11.5 5-15.7 5.8zm-11.8 0l33.3-13.8c1.6-.6 3.2-1.2 5-1.7l-28.6 12-9.7 3.5zm-.4-4.8l29.7-11.8-21 8.7-8.6 3zm-9-1.2l19.3-7.3-19.3 7.3zm11-9.4c3.6-2 7.3-3.5 11-5a92 92 0 0 1 11.5-4l-11 5-11.5 4z" class="H"/><path d="M129 399l140.3-18.4 58.8 42L189.7 450 129 399z" class="G"/><path d="M137.5 399.6l55.5 46.6 129.7-25.4-57-40.2-39.7.4c-1.8.3-19 5-19 5l-25.2 1.4-44.4 12.2z" fill="#fff"/><path d="M207 386l6.5 6-6.5-6zm8 30l5-.8 10-1c1.7-.1 3.3-.2 5-.2a83 83 0 0 1-4.9.8l-5 .6a106 106 0 0 1-5 .4l-5 .2zm-29.8 12.5l33-9.8a9.7 9.7 0 0 1 1.7-.3l18.8-1.4-17 2a23.9 23.9 0 0 0-3.3.5l-33 9zm3.8 3.3l25.5-8q3.2-1 6.4-1.8c.5-.1 1-.3 1.7-.4l18.3-1.4-19.8 2.4-32 9zm4 3l25.8-7c2.2-.6 4.3-1 6.5-1.6l6.6-1 13.3-1.7c-4.4 1-8.8 1.6-13.2 2.3l-6.6 1-32.5 8zm63.5-12.4q6-2 12-3.6l3-.8 3-.5 31.4-4q-6.2 1-12.5 2l-37.2 7zm-3.5-3.7q6-1.6 12-3l36-5-36.2 6a348 348 0 0 1-12 2.2zm-3.7-3.3a267 267 0 0 1 11.8-2.9l12-2 24.2-2.4q-6 .8-12 1.6l-24 3.3q-6 1.3-12 2.3zm-3-2.6a121 121 0 0 1 11.6-3.8c.5-.1 1-.3 1.5-.4a10.5 10.5 0 0 1 1.6-.2l33.5-2.5L261 409a16.9 16.9 0 0 0-2.9.6l-12 3zm-3.4-3a127 127 0 0 1 11.6-3.8 27 27 0 0 1 1.5-.4 10.5 10.5 0 0 1 1.6-.2l33.4-2.5-33.4 3.2a16.9 16.9 0 0 0-2.9.6l-11.8 3zm-3.4-3a131 131 0 0 1 11.6-3.8c.5-.1 1-.3 1.5-.4a10.5 10.5 0 0 1 1.6-.2l33.4-2.5L254 403a16.9 16.9 0 0 0-2.9.6l-11.8 3zm-3.4-3a128 128 0 0 1 11.6-3.8c.5-.1 1-.3 1.5-.4a10.5 10.5 0 0 1 1.6-.2l33.5-2.5-33.4 3.2a16 16 0 0 0-2.9.6l-11.8 3zm-4.4-2.6a121 121 0 0 1 11.6-3.8c.5-.1 1-.3 1.5-.4a10.5 10.5 0 0 1 1.6-.2l33.4-2.5-33.4 3.2a15.7 15.7 0 0 0-2.9.6l-11.8 3zm-4.4-2.7a121 121 0 0 1 11.6-3.8c.5-.1 1-.3 1.5-.4a10.5 10.5 0 0 1 1.6-.2l33.5-2.5-33.4 3.2a16.9 16.9 0 0 0-2.9.6l-11.8 3zm-3.4-3a130 130 0 0 1 11.6-3.8c.5-.1 1-.3 1.5-.4a9.3 9.3 0 0 1 1.6-.2l33.4-2-33.4 2.6a16 16 0 0 0-2.9.6l-11.8 3zm-3.4-3a121 121 0 0 1 11.6-3.8c.5-.1 1-.3 1.5-.4a9.2 9.2 0 0 1 1.6-.2l3-.2 30.4-1-33.4 2a14.3 14.3 0 0 0-2.9.6l-11.8 3zM217 389a121 121 0 0 1 11.6-3.8c.5-.1 1-.3 1.5-.4a7.5 7.5 0 0 1 1.6-.2H265l-33.3.8a13.8 13.8 0 0 0-2.9.6l-11.7 3zm-20 49.8a643 643 0 0 1 13.1-3.3l26.4-5.6c4.4-.7 9-1.4 13.4-2l-13.3 2.6-6.7 1.2-33 7zm62.2-12.8l33.3-6.4c-2.2.4-4.4 1-6.6 1.3l-13.3 2.6a612 612 0 0 1-13.3 2.5z" class="H"/><path d="M150 365.8L292 372H150z" class="G"/><path d="M220.5 365.8H292v6.4h-71.4z" fill="#37474f"/><path d="M228.2 372h138.2l18-94H246.3l-18 94z" class="G"/><path d="M298 325.2a7.6 7.6 0 0 0 7.7 8.4 9.4 9.4 0 0 0 9.1-8.4 7.6 7.6 0 0 0-7.7-8.4 9.4 9.4 0 0 0-9.1 8.4z" fill="#a6a6a6"/><path d="M373 338.4l-6.5 33.7H259.2L373 338.4z" fill="#37474f"/><path d="M401.2 269c16.8 16.4 19.6 41.8 16 64-.1.5-1 .4-1-.1l.1-15c-.1-.2-.2-.4-.3-.7-4.4-3.2-8.4-6.8-11-11.7-2.8-5.5-4-11.7-6-17.5-.2-.6.4-.4.8-.1 10.2 7.5 13.4 15.6 16.4 26.4a90 90 0 0 0-1.8-16.9c-2.2-10.3-6.6-20.4-14-28-.3-.3.1-.7.4-.4z" class="B"/><use xlink:href="#B" class="C"/><use xlink:href="#B" class="E"/><path d="M399 271.6c-3.7-1.7-10.8.7-11.4-.7-1.2-2.8 4.4-4.8 7.5-5.2-2.8-.8-8.2-2-8-4.7.2-3.3 8.3-.5 12.4 2.7 5 4 5 7.8 4.3 8.5-1.2 1-4-.4-4.7-.7z" class="C"/><path d="M439.4 267.4c-17.4 15.8-21.2 41-18.5 63.4.1.5 1 .4 1-.1l.4-15c.1-.2.2-.4.3-.7 4.5-3 8.7-6.4 11.3-11.3 3-5.4 4.3-11.6 6.7-17.2.2-.5-.4-.4-.8-.1-10.5 7-14 15-17.4 25.8a89.9 89.9 0 0 1 2.4-16.8c2.6-10.2 7.3-20.2 15-27.5.3-.3-.1-.7-.4-.5z" class="B"/><use xlink:href="#C" class="C"/><use xlink:href="#C" class="E"/><path d="M441.7 270c3.8-1.5 10.7 1 11.4-.2 1.3-2.8-4.3-5-7.3-5.4 3-.6 8.3-1.7 8.2-4.4-.1-3.3-8.2-.8-12.4 2.2-5.3 3.8-5.4 7.6-4.6 8.4 1 1 4-.2 4.7-.5z" class="C"/><path d="M421.7 309a172 172 0 0 1-5.4 24.9.6.6 0 0 1-1.2-.2l4.4-23a115 115 0 0 0 1.3-23.5c-.7-13-4.2-26.7-12.7-37-.2-.2.2-.6.4-.4 17 19.7 14.2 44 14.2 46 2.4-8.2 5-17.5 14-25.8.4-.4.7-.2.6.4a43 43 0 0 1-14.6 31.1q-.4 3.7-1 7.2z" class="B"/><use xlink:href="#D" class="C"/><use xlink:href="#D" class="E"/><path d="M408.4 254c-3-3.6-11.6-4.7-11.5-6.4.2-3.6 7-2.7 10.4-1.6-2.5-2.2-7.5-6.2-6-9 2-3.3 8.8 3.7 11.5 9 3.4 6.7 1.4 10.6.1 11-1.7.5-4-2.5-4.5-3zm24.4 59.6l7.5 57H395l9.4-57z" class="C"/><path d="M73.3 410h25v4h-25z" class="G"/><path d="M73.3 410h25v2.6h-25z" class="B"/><path d="M128.2 399.5a14.2 14.2 0 0 1-14.2 6 14 14 0 0 1-2.5-.7 17.5 17.5 0 0 1-3.6-1.9l3.2-4.7a11.2 11.2 0 0 0 1.9 1.1c6 2.7 9.8-2 10.5-3 3.4-4.8 4.7-16 1.2-20.2-.2-.3-1.2-.8-5.3.1l-2.5.6a10 10 0 0 1-2.3.5l-.4-5.7a17 17 0 0 0 1.2-.3 36.8 36.8 0 0 1 5.7-1.2c3-.3 6 .1 8 2.4 5.7 7 3.4 21-1 27z" class="G"/><path d="M111.2 398.2a11.2 11.2 0 0 0 1.9 1.1l-1.5 5.5a17.5 17.5 0 0 1-3.6-1.9zm10-28.2l-1.7 6-2.5.6a10 10 0 0 1-2.3.5l-.4-5.7a17 17 0 0 0 1.2-.3 36.8 36.8 0 0 1 5.7-1.2z" class="B"/><path d="M52.4 362.6s3 25.6 8.2 36.4 12.5 12 17 12H94c4.5 0 11.8-1.2 17-12s8.2-36.4 8.2-36.4z" class="G"/><path d="M55.7 377.8a1.6 1.6 0 1 1 1.6 1.6 1.6 1.6 0 0 1-1.6-1.6zm.3 0a1.3 1.3 0 1 0 1.3-1.3 1.3 1.3 0 0 0-1.3 1.3zm47.4-8.3a1.6 1.6 0 1 1 1.6 1.6 1.6 1.6 0 0 1-1.6-1.6zm.3 0a1.3 1.3 0 1 0 1.3-1.3 1.3 1.3 0 0 0-1.3 1.3zM101 393a1.6 1.6 0 1 1 1.6 1.6 1.6 1.6 0 0 1-1.6-1.6zm.3 0a1.3 1.3 0 1 0 1.3-1.3 1.3 1.3 0 0 0-1.3 1.3zm12.8-27.8a1.6 1.6 0 1 1 1.6 1.6 1.6 1.6 0 0 1-1.7-1.6zm.3 0a1.3 1.3 0 1 0 1.3-1.3 1.3 1.3 0 0 0-1.3 1.3zm-22.7 10a1.6 1.6 0 1 1 0 0zm.3 0a1.3 1.3 0 1 0 1.3-1.2 1.3 1.3 0 0 0-1.3 1.3zm-17.8 17.2a1.6 1.6 0 1 1 1.6 1.6 1.6 1.6 0 0 1-1.6-1.6zm.3 0a1.3 1.3 0 1 0 1.3-1.3 1.3 1.3 0 0 0-1.3 1.3zM85 365.3a1.6 1.6 0 1 1 1.6 1.6 1.6 1.6 0 0 1-1.6-1.6zm.3 0a1.3 1.3 0 1 0 1.3-1.3 1.3 1.3 0 0 0-1.3 1.3zM87 386a1.6 1.6 0 1 1 1.6 1.6 1.6 1.6 0 0 1-1.6-1.6zm.3 0a1.3 1.3 0 1 0 1.3-1.3 1.3 1.3 0 0 0-1.3 1.3zm15.7 19.3a1.6 1.6 0 1 1 1.6 1.6 1.6 1.6 0 0 1-1.6-1.6zm.3 0a1.3 1.3 0 1 0 1.3-1.3 1.3 1.3 0 0 0-1.3 1.3zm-39.5-37.6a1.6 1.6 0 1 1 1.6 1.6 1.6 1.6 0 0 1-1.6-1.6zm.3 0a1.3 1.3 0 1 0 1.3-1.3 1.3 1.3 0 0 0-1.3 1.3zm44.6 14a1.6 1.6 0 1 1 1.6 1.6 1.6 1.6 0 0 1-1.6-1.6zm.3 0a1.3 1.3 0 1 0 1.3-1.3 1.3 1.3 0 0 0-1.3 1.3zm-33.3-4.8a1.6 1.6 0 1 1 1.6 1.6 1.6 1.6 0 0 1-1.6-1.6zm.3 0a1.3 1.3 0 1 0 1.3-1.3 1.3 1.3 0 0 0-1.3 1.3zm11 26a1.6 1.6 0 1 1 1.6 1.6 1.6 1.6 0 0 1-1.6-1.6zm.3 0a1.3 1.3 0 1 0 1.3-1.3 1.3 1.3 0 0 0-1.3 1.3zm-13.8 5.8a1.6 1.6 0 1 1 1.6 1.6 1.6 1.6 0 0 1-1.6-1.6zm.3 0a1.3 1.3 0 1 0 1.3-1.3 1.3 1.3 0 0 0-1.3 1.3zm-10-24a1.6 1.6 0 1 1 1.6 1.6 1.6 1.6 0 0 1-1.6-1.6zm.3 0a1.3 1.3 0 1 0 1.3-1.3 1.3 1.3 0 0 0-1.3 1.3zM62.2 399a1.6 1.6 0 1 1 1.6 1.6 1.6 1.6 0 0 1-1.6-1.6zm.3 0a1.3 1.3 0 1 0 1.3-1.3 1.3 1.3 0 0 0-1.3 1.3z" fill="#fff"/><path d="M249.8 74.4a11.8 11.8 0 0 0-.5-8c-1.6-3.5-5.2-5-8.8-5.7a56.3 56.3 0 0 0-12.5-1.1 58.1 58.1 0 0 0-24.1 5.9A39.2 39.2 0 0 0 194 72l-.3.3c-.8.5-1.6 1-2.4 1.7a31.4 31.4 0 0 0-7.7 7.9 24.2 24.2 0 0 0-1.6 2.9 18.7 18.7 0 0 0-1.8 4.6 10.1 10.1 0 0 0 3.1 10c3 2.7 7 3.6 11 3.8a62.5 62.5 0 0 0 10.1-.5l5.8-.6c1.2-.2 2.4-.4 3.7-.6a57 57 0 0 0 4.4 14.3c0 .1.2.1.2-.1-1.8-4.6-3.6-9.5-4-14.4a69.8 69.8 0 0 0 18.1-5.3 36.7 36.7 0 0 0 9.5-6.4c2.4-2.2 4.8-5.4 4.6-8.8a15.2 15.2 0 0 0 2.7-4.2 10 10 0 0 0 .6-2.4zm-44.7 26.8c-5.4.4-11.7 0-16.7-2.7a51.5 51.5 0 0 0 10.5 1.5 57.1 57.1 0 0 0 11.9-.7c.4 0 1 0 1.3-.1s1-.1 1.4-.2v.8c-2 .5-4.2.8-6.3 1.2l-2 .2zm20.3-36.4a30.6 30.6 0 0 1 10.4 2.4c3 1.3 5.7 3.7 5.7 7.2 0 .2 0 .3-.1.4a14.9 14.9 0 0 0-3.4-.9l-1-.1a18.4 18.4 0 0 0-4.3-1.8 16.1 16.1 0 0 0-7.6-5.2 26.6 26.6 0 0 0-8.4-1.4l3.3-.7a42.2 42.2 0 0 1 5.3.1zm15 18a6.2 6.2 0 0 0-1-1c.4-.4.7-.8 1-1.3a7.3 7.3 0 0 1 0 2.3zm-22.8 15.6q2.7-.5 5.4-1.2a75.4 75.4 0 0 1-8.7 2.6V99l3.4-.6zm-2.2-5a1.2 1.2 0 0 1 .1-.2.6.6 0 0 0 .6.2 116 116 0 0 0 12-4.2 36.2 36.2 0 0 0 10.2-6.2 3.9 3.9 0 0 1 1.3 1.8l-2.6 1.5a77.3 77.3 0 0 1-21.9 7.9c.1-.3.2-.6.3-1zm.6-1.3a14.4 14.4 0 0 1 6.1-6.4 37 37 0 0 1 10.4-3.5 8.5 8.5 0 0 1 4.7.1l-1 .8c-6 4.4-13.2 6.7-20.2 9zm1.3 3.2a81 81 0 0 0 12.6-3.9 64.1 64.1 0 0 1-11.3 4.7c-.8.2-1.5.4-2.3.7l-1.7.3.2-1.3 2.6-.5zm-3.6 2a19.3 19.3 0 0 1-3.6.3 7.2 7.2 0 0 1-3.2-.7l7-1c-.1.4-.1.8-.2 1.2zm24-9l-.4.5-.6.7-1.4 1a32.5 32.5 0 0 1-4.7 2.5l-.6.2a67.1 67.1 0 0 0 7.7-4.8zm.6-7.2h-.1a9.6 9.6 0 0 0-6.2-.3 37.1 37.1 0 0 0-10.8 4 15 15 0 0 0-6.7 8.3c-.1.5-.3 1-.4 1.3a79.3 79.3 0 0 1-8.7 1.2 4.5 4.5 0 0 1-.4-3.3 11.6 11.6 0 0 1 2.3-4.6 52.9 52.9 0 0 0 20.1-7 45.9 45.9 0 0 0 4.8-3.3 4.4 4.4 0 0 0 1.5-2 19.4 19.4 0 0 1 3.4 0 7.9 7.9 0 0 1 2.9 3.5 14 14 0 0 1-1.7 2.2zm-47.2-3.5l.2-.3A57.2 57.2 0 0 1 208 68c.1-.1.3-.1.4-.2 5.8-1.3 12.3-1.5 17.7 1a15.3 15.3 0 0 1 3.9 2.5l.3.2a36.5 36.5 0 0 0-9.8-.6 38.5 38.5 0 0 0-20 7.5 26.6 26.6 0 0 0-7.4 7.8 4.7 4.7 0 0 1-2-1c-2.2-2-1.2-5.6.1-7.7zm41-3.6a43.8 43.8 0 0 0-6.9 1.5c-7 2-14.3 5-19 11l-.1.1a47 47 0 0 1-4.3.3 50.7 50.7 0 0 1-5.7-.1c-.5 0-1-.1-1.7-.1a18.2 18.2 0 0 1 1.9-2.5 34.6 34.6 0 0 1 7.7-6.4 37.3 37.3 0 0 1 19-5.5 33.2 33.2 0 0 1 8.7 1 3.6 3.6 0 0 1 .4.8zm-.2 1.6a9.4 9.4 0 0 1-2 1.5l-2.4 1.7a49 49 0 0 1-4.7 2.7 51 51 0 0 1-14.3 4.7 27.4 27.4 0 0 1 2.1-2 34.3 34.3 0 0 1 9-5.2 57 57 0 0 1 10.4-3.2l1.8-.2zM194 87.8a43.8 43.8 0 0 0 11.2.2h0c-1.5 2.3-2.7 5.2-1.6 7.7l-1.2.1c-2.7.1-6-.2-8-2.3-1.5-1.8-1.3-4-.4-5.8zm46.3-11.3c-.2-.2-.4-.4-.5-.6a13.2 13.2 0 0 1 1.6.6 8.1 8.1 0 0 1-.4 1 7.2 7.2 0 0 0-.7-1.1zm-55.6 19.2a8.7 8.7 0 0 1-2.4-4.1 7.9 7.9 0 0 1 .9-5.4 26.5 26.5 0 0 1 5.8-6.9 9.9 9.9 0 0 0-.3 1.5 6.7 6.7 0 0 0 .6 4.2 5.2 5.2 0 0 0 3.4 2.5 7.3 7.3 0 0 0-.5 4.3 6 6 0 0 0 2.7 3.8c2.7 1.8 6.3 1.7 9.4 1.6h.1a5.8 5.8 0 0 0 1.8 1.4 56.3 56.3 0 0 1-8.3.1 49.9 49.9 0 0 1-10.3-1.8 18.4 18.4 0 0 1-2.6-.9c-.1-.1-.2-.1-.3-.2zm57-12.3a8.9 8.9 0 0 0-.1-4.3 11.1 11.1 0 0 0 .9-2 5.2 5.2 0 0 1 2.4 3.3 29.5 29.5 0 0 1-2.6 2.6zm4.4-4.5a7.3 7.3 0 0 0-3.2-3.4 7.7 7.7 0 0 0 0-2.2c-.5-3.5-3.4-5.8-6.5-7.2a30.6 30.6 0 0 0-8.6-2.4l.6-.1a33 33 0 0 1 11.8.3 11.5 11.5 0 0 1 7.6 5.8 7.9 7.9 0 0 1 .2 5.9 15.7 15.7 0 0 1-1.9 3.3zm-37.4-14a57.1 57.1 0 0 1 22.6-3.9 42.3 42.3 0 0 1 11.4 1.7 9.1 9.1 0 0 1 4.4 2.8 8 8 0 0 1 1.1 1.9l-.5-.7c-5.3-6.4-14.7-5.4-22-4.4q-3.2.4-6.5 1a51 51 0 0 0-6 .8 55.4 55.4 0 0 0-10 3.1 54.4 54.4 0 0 1 5.5-2.5zm-25.8 32a6.9 6.9 0 0 1-.5-.9c.1.1.1.2.2.3a6.2 6.2 0 0 0 1.5 1 16.3 16.3 0 0 0 2.7 2.1 22.7 22.7 0 0 0 5.9 2.5l-.7-.1c-3.4-.6-7-2-9-5zm53.2-4.3a40.7 40.7 0 0 1-5.8 3l2.5-1.4c.7-.4 1.3-.8 2-1.3a24.7 24.7 0 0 0 4.9-3.4 5.2 5.2 0 0 0 1.9-4h.1l.2-.2a29.6 29.6 0 0 0 3-2.4 10.2 10.2 0 0 1-1.1 2.6c-1.8 3-4.7 5.2-7.6 7z" class="B"/><defs ><path id="B" d="M398 271c-3 .1-4.7 4.7-7 6a2.2 2.2 0 0 1-3.2-.5c-2.2-3 .8-7 3.7-9-2 .8-3.8 2.3-6 2.8a2.1 2.1 0 0 1-2.7-1.6c-1-4.2 4.3-6 8-6.2-1.8-1.2-6.8-4.6-4-6.2s8.7 3 10.6 4.7c3 2.3 6.3 5.8 6.4 9.4.2 4.2-3.5 1.6-5.7.7z"/><path id="C" d="M442.5 269.4c3 .2 4.5 5 6.7 6.3a2.2 2.2 0 0 0 3.2-.4c2.4-3-.6-7-3.4-9.2 2 1 3.7 2.5 6 3a2.1 2.1 0 0 0 2.8-1.5c1-4.2-4-6.3-7.7-6.5 1.8-1.2 7-4.3 4.4-6s-8.8 2.8-10.8 4.3c-3 2.2-6.5 5.5-6.7 9-.3 4.2 3.5 1.7 5.7 1z"/><path id="D" d="M408 252.7c-3-1.3-7.2 2.5-10.2 2.8-1.6.1-2.8-.5-3-2-.7-4.3 4.4-6.8 8.4-7.6-2.6-.2-5 .5-7.6-.2a2.4 2.4 0 0 1-2-3c1-5 7.6-4.2 11.4-2.4-1.2-2.2-4.8-8.2-1.2-8.5s7.4 7.6 8.6 10.2c1.8 3.8 3.6 9 2 13-2 4.4-4.5-.2-6.3-2.2z"/></defs></svg>